<?xml version="1.0" encoding="UTF-8" standalone="no"?><svg xmlns="http://www.w3.org/2000/svg" xmlns:xlink="http://www.w3.org/1999/xlink" contentStyleType="text/css" height="354px" preserveAspectRatio="none" style="width:810px;height:354px;background:#FFFFFF;" version="1.1" viewBox="0 0 810 354" width="810px" zoomAndPan="magnify"><defs/><g><!--MD5=[86c7c362de55a38b660185a1328fe18d]
class Organization--><g id="elem_Organization"><rect codeLine="6" fill="#F1F1F1" height="58.6211" id="Organization" rx="2.5" ry="2.5" style="stroke:#181818;stroke-width:0.5;" width="112" x="7" y="172"/><ellipse cx="22" cy="188" fill="#ADD1B2" rx="11" ry="11" style="stroke:#181818;stroke-width:1.0;"/><path d="M24.7656,183.875 Q24.9219,183.6563 25.1094,183.5469 Q25.2969,183.4375 25.5156,183.4375 Q25.8906,183.4375 26.125,183.7031 Q26.3594,183.9531 26.3594,184.5625 L26.3594,186.0156 Q26.3594,186.625 26.125,186.8906 Q25.8906,187.1563 25.5156,187.1563 Q25.1719,187.1563 24.9688,186.9531 Q24.7656,186.7656 24.6563,186.25 Q24.6094,185.8906 24.4219,185.7031 Q24.0938,185.3281 23.4844,185.1094 Q22.875,184.8906 22.25,184.8906 Q21.4844,184.8906 20.8438,185.2188 Q20.2188,185.5469 19.7188,186.2969 Q19.2344,187.0469 19.2344,188.0781 L19.2344,189.1719 Q19.2344,190.4063 20.125,191.2344 Q21.0156,192.0469 22.6094,192.0469 Q23.5469,192.0469 24.2031,191.7969 Q24.5938,191.6406 25.0156,191.2031 Q25.2813,190.9375 25.4219,190.8594 Q25.5781,190.7813 25.7813,190.7813 Q26.1094,190.7813 26.3594,191.0469 Q26.625,191.2969 26.625,191.6406 Q26.625,191.9844 26.2813,192.3906 Q25.7813,192.9688 24.9844,193.2969 Q23.9063,193.75 22.6094,193.75 Q21.0938,193.75 19.8906,193.125 Q18.9063,192.625 18.2188,191.5625 Q17.5313,190.4844 17.5313,189.2031 L17.5313,188.0469 Q17.5313,186.7188 18.1406,185.5781 Q18.7656,184.4219 19.8594,183.8125 Q20.9531,183.1875 22.1875,183.1875 Q22.9219,183.1875 23.5625,183.3594 Q24.2188,183.5156 24.7656,183.875 Z " fill="#000000"/><text fill="#000000" font-family="sans-serif" font-size="14" lengthAdjust="spacing" textLength="80" x="36" y="193.7969">Organization</text><line style="stroke:#181818;stroke-width:0.5;" x1="8" x2="118" y1="204" y2="204"/><text fill="#000000" font-family="sans-serif" font-size="14" lengthAdjust="spacing" textLength="78" x="13" y="223.1074">-designation</text></g><!--MD5=[94788779d4739de2902497064b395820]
class DistributionNetwork--><g id="elem_DistributionNetwork"><rect codeLine="10" fill="#F1F1F1" height="40" id="DistributionNetwork" rx="2.5" ry="2.5" style="stroke:#181818;stroke-width:0.5;" width="153" x="215" y="181.5"/><ellipse cx="230" cy="197.5" fill="#ADD1B2" rx="11" ry="11" style="stroke:#181818;stroke-width:1.0;"/><path d="M232.7656,193.375 Q232.9219,193.1563 233.1094,193.0469 Q233.2969,192.9375 233.5156,192.9375 Q233.8906,192.9375 234.125,193.2031 Q234.3594,193.4531 234.3594,194.0625 L234.3594,195.5156 Q234.3594,196.125 234.125,196.3906 Q233.8906,196.6563 233.5156,196.6563 Q233.1719,196.6563 232.9688,196.4531 Q232.7656,196.2656 232.6563,195.75 Q232.6094,195.3906 232.4219,195.2031 Q232.0938,194.8281 231.4844,194.6094 Q230.875,194.3906 230.25,194.3906 Q229.4844,194.3906 228.8438,194.7188 Q228.2188,195.0469 227.7188,195.7969 Q227.2344,196.5469 227.2344,197.5781 L227.2344,198.6719 Q227.2344,199.9063 228.125,200.7344 Q229.0156,201.5469 230.6094,201.5469 Q231.5469,201.5469 232.2031,201.2969 Q232.5938,201.1406 233.0156,200.7031 Q233.2813,200.4375 233.4219,200.3594 Q233.5781,200.2813 233.7813,200.2813 Q234.1094,200.2813 234.3594,200.5469 Q234.625,200.7969 234.625,201.1406 Q234.625,201.4844 234.2813,201.8906 Q233.7813,202.4688 232.9844,202.7969 Q231.9063,203.25 230.6094,203.25 Q229.0938,203.25 227.8906,202.625 Q226.9063,202.125 226.2188,201.0625 Q225.5313,199.9844 225.5313,198.7031 L225.5313,197.5469 Q225.5313,196.2188 226.1406,195.0781 Q226.7656,193.9219 227.8594,193.3125 Q228.9531,192.6875 230.1875,192.6875 Q230.9219,192.6875 231.5625,192.8594 Q232.2188,193.0156 232.7656,193.375 Z " fill="#000000"/><text fill="#000000" font-family="sans-serif" font-size="14" lengthAdjust="spacing" textLength="121" x="244" y="203.2969">DistributionNetwork</text><line style="stroke:#181818;stroke-width:0.5;" x1="216" x2="367" y1="213.5" y2="213.5"/></g><!--MD5=[be996cdb8e6bf2fc7cb89c555f2cd144]
class Entity--><g id="elem_Entity"><rect codeLine="13" fill="#F1F1F1" height="58.6211" id="Entity" rx="2.5" ry="2.5" style="stroke:#181818;stroke-width:0.5;" width="67" x="489" y="172"/><ellipse cx="504" cy="188" fill="#ADD1B2" rx="11" ry="11" style="stroke:#181818;stroke-width:1.0;"/><path d="M506.7656,183.875 Q506.9219,183.6563 507.1094,183.5469 Q507.2969,183.4375 507.5156,183.4375 Q507.8906,183.4375 508.125,183.7031 Q508.3594,183.9531 508.3594,184.5625 L508.3594,186.0156 Q508.3594,186.625 508.125,186.8906 Q507.8906,187.1563 507.5156,187.1563 Q507.1719,187.1563 506.9688,186.9531 Q506.7656,186.7656 506.6563,186.25 Q506.6094,185.8906 506.4219,185.7031 Q506.0938,185.3281 505.4844,185.1094 Q504.875,184.8906 504.25,184.8906 Q503.4844,184.8906 502.8438,185.2188 Q502.2188,185.5469 501.7188,186.2969 Q501.2344,187.0469 501.2344,188.0781 L501.2344,189.1719 Q501.2344,190.4063 502.125,191.2344 Q503.0156,192.0469 504.6094,192.0469 Q505.5469,192.0469 506.2031,191.7969 Q506.5938,191.6406 507.0156,191.2031 Q507.2813,190.9375 507.4219,190.8594 Q507.5781,190.7813 507.7813,190.7813 Q508.1094,190.7813 508.3594,191.0469 Q508.625,191.2969 508.625,191.6406 Q508.625,191.9844 508.2813,192.3906 Q507.7813,192.9688 506.9844,193.2969 Q505.9063,193.75 504.6094,193.75 Q503.0938,193.75 501.8906,193.125 Q500.9063,192.625 500.2188,191.5625 Q499.5313,190.4844 499.5313,189.2031 L499.5313,188.0469 Q499.5313,186.7188 500.1406,185.5781 Q500.7656,184.4219 501.8594,183.8125 Q502.9531,183.1875 504.1875,183.1875 Q504.9219,183.1875 505.5625,183.3594 Q506.2188,183.5156 506.7656,183.875 Z " fill="#000000"/><text fill="#000000" font-family="sans-serif" font-size="14" lengthAdjust="spacing" textLength="35" x="518" y="193.7969">Entity</text><line style="stroke:#181818;stroke-width:0.5;" x1="490" x2="555" y1="204" y2="204"/><text fill="#000000" font-family="sans-serif" font-size="14" lengthAdjust="spacing" textLength="40" x="495" y="223.1074">-name</text></g><!--MD5=[02e4b9b7573f1156f41e60aa5b4e25a4]
class Company--><g id="elem_Company"><rect codeLine="17" fill="#F1F1F1" height="58.6211" id="Company" rx="2.5" ry="2.5" style="stroke:#181818;stroke-width:0.5;" width="123" x="680" y="7"/><ellipse cx="708.95" cy="23" fill="#ADD1B2" rx="11" ry="11" style="stroke:#181818;stroke-width:1.0;"/><path d="M711.7156,18.875 Q711.8719,18.6563 712.0594,18.5469 Q712.2469,18.4375 712.4656,18.4375 Q712.8406,18.4375 713.075,18.7031 Q713.3094,18.9531 713.3094,19.5625 L713.3094,21.0156 Q713.3094,21.625 713.075,21.8906 Q712.8406,22.1563 712.4656,22.1563 Q712.1219,22.1563 711.9188,21.9531 Q711.7156,21.7656 711.6063,21.25 Q711.5594,20.8906 711.3719,20.7031 Q711.0438,20.3281 710.4344,20.1094 Q709.825,19.8906 709.2,19.8906 Q708.4344,19.8906 707.7938,20.2188 Q707.1688,20.5469 706.6688,21.2969 Q706.1844,22.0469 706.1844,23.0781 L706.1844,24.1719 Q706.1844,25.4063 707.075,26.2344 Q707.9656,27.0469 709.5594,27.0469 Q710.4969,27.0469 711.1531,26.7969 Q711.5438,26.6406 711.9656,26.2031 Q712.2313,25.9375 712.3719,25.8594 Q712.5281,25.7813 712.7313,25.7813 Q713.0594,25.7813 713.3094,26.0469 Q713.575,26.2969 713.575,26.6406 Q713.575,26.9844 713.2313,27.3906 Q712.7313,27.9688 711.9344,28.2969 Q710.8563,28.75 709.5594,28.75 Q708.0438,28.75 706.8406,28.125 Q705.8563,27.625 705.1688,26.5625 Q704.4813,25.4844 704.4813,24.2031 L704.4813,23.0469 Q704.4813,21.7188 705.0906,20.5781 Q705.7156,19.4219 706.8094,18.8125 Q707.9031,18.1875 709.1375,18.1875 Q709.8719,18.1875 710.5125,18.3594 Q711.1688,18.5156 711.7156,18.875 Z " fill="#000000"/><text fill="#000000" font-family="sans-serif" font-size="14" lengthAdjust="spacing" textLength="60" x="726.05" y="28.7969">Company</text><line style="stroke:#181818;stroke-width:0.5;" x1="681" x2="802" y1="39" y2="39"/><text fill="#000000" font-family="sans-serif" font-size="14" lengthAdjust="spacing" textLength="111" x="686" y="58.1074">-isDistributionHub</text></g><!--MD5=[4f1f3706c1a355a8488e154afcaed5df]
class Location--><g id="elem_Location"><rect codeLine="21" fill="#F1F1F1" height="95.8633" id="Location" rx="2.5" ry="2.5" style="stroke:#181818;stroke-width:0.5;" width="86" x="698.5" y="101.5"/><ellipse cx="713.5" cy="117.5" fill="#ADD1B2" rx="11" ry="11" style="stroke:#181818;stroke-width:1.0;"/><path d="M716.2656,113.375 Q716.4219,113.1563 716.6094,113.0469 Q716.7969,112.9375 717.0156,112.9375 Q717.3906,112.9375 717.625,113.2031 Q717.8594,113.4531 717.8594,114.0625 L717.8594,115.5156 Q717.8594,116.125 717.625,116.3906 Q717.3906,116.6563 717.0156,116.6563 Q716.6719,116.6563 716.4688,116.4531 Q716.2656,116.2656 716.1563,115.75 Q716.1094,115.3906 715.9219,115.2031 Q715.5938,114.8281 714.9844,114.6094 Q714.375,114.3906 713.75,114.3906 Q712.9844,114.3906 712.3438,114.7188 Q711.7188,115.0469 711.2188,115.7969 Q710.7344,116.5469 710.7344,117.5781 L710.7344,118.6719 Q710.7344,119.9063 711.625,120.7344 Q712.5156,121.5469 714.1094,121.5469 Q715.0469,121.5469 715.7031,121.2969 Q716.0938,121.1406 716.5156,120.7031 Q716.7813,120.4375 716.9219,120.3594 Q717.0781,120.2813 717.2813,120.2813 Q717.6094,120.2813 717.8594,120.5469 Q718.125,120.7969 718.125,121.1406 Q718.125,121.4844 717.7813,121.8906 Q717.2813,122.4688 716.4844,122.7969 Q715.4063,123.25 714.1094,123.25 Q712.5938,123.25 711.3906,122.625 Q710.4063,122.125 709.7188,121.0625 Q709.0313,119.9844 709.0313,118.7031 L709.0313,117.5469 Q709.0313,116.2188 709.6406,115.0781 Q710.2656,113.9219 711.3594,113.3125 Q712.4531,112.6875 713.6875,112.6875 Q714.4219,112.6875 715.0625,112.8594 Q715.7188,113.0156 716.2656,113.375 Z " fill="#000000"/><text fill="#000000" font-family="sans-serif" font-size="14" lengthAdjust="spacing" textLength="54" x="727.5" y="123.2969">Location</text><line style="stroke:#181818;stroke-width:0.5;" x1="699.5" x2="783.5" y1="133.5" y2="133.5"/><text fill="#000000" font-family="sans-serif" font-size="14" lengthAdjust="spacing" textLength="65" x="704.5" y="152.6074">-locationId</text><text fill="#000000" font-family="sans-serif" font-size="14" lengthAdjust="spacing" textLength="63" x="704.5" y="171.2285">-longitude</text><text fill="#000000" font-family="sans-serif" font-size="14" lengthAdjust="spacing" textLength="51" x="704.5" y="189.8496">-latitude</text></g><!--MD5=[41d36d5b64ff1ad3ad8cd8035ff73d0f]
class Productor--><g id="elem_Productor"><rect codeLine="27" fill="#F1F1F1" height="40" id="Productor" rx="2.5" ry="2.5" style="stroke:#181818;stroke-width:0.5;" width="94" x="694.5" y="232.5"/><ellipse cx="709.5" cy="248.5" fill="#ADD1B2" rx="11" ry="11" style="stroke:#181818;stroke-width:1.0;"/><path d="M712.2656,244.375 Q712.4219,244.1563 712.6094,244.0469 Q712.7969,243.9375 713.0156,243.9375 Q713.3906,243.9375 713.625,244.2031 Q713.8594,244.4531 713.8594,245.0625 L713.8594,246.5156 Q713.8594,247.125 713.625,247.3906 Q713.3906,247.6563 713.0156,247.6563 Q712.6719,247.6563 712.4688,247.4531 Q712.2656,247.2656 712.1563,246.75 Q712.1094,246.3906 711.9219,246.2031 Q711.5938,245.8281 710.9844,245.6094 Q710.375,245.3906 709.75,245.3906 Q708.9844,245.3906 708.3438,245.7188 Q707.7188,246.0469 707.2188,246.7969 Q706.7344,247.5469 706.7344,248.5781 L706.7344,249.6719 Q706.7344,250.9063 707.625,251.7344 Q708.5156,252.5469 710.1094,252.5469 Q711.0469,252.5469 711.7031,252.2969 Q712.0938,252.1406 712.5156,251.7031 Q712.7813,251.4375 712.9219,251.3594 Q713.0781,251.2813 713.2813,251.2813 Q713.6094,251.2813 713.8594,251.5469 Q714.125,251.7969 714.125,252.1406 Q714.125,252.4844 713.7813,252.8906 Q713.2813,253.4688 712.4844,253.7969 Q711.4063,254.25 710.1094,254.25 Q708.5938,254.25 707.3906,253.625 Q706.4063,253.125 705.7188,252.0625 Q705.0313,250.9844 705.0313,249.7031 L705.0313,248.5469 Q705.0313,247.2188 705.6406,246.0781 Q706.2656,244.9219 707.3594,244.3125 Q708.4531,243.6875 709.6875,243.6875 Q710.4219,243.6875 711.0625,243.8594 Q711.7188,244.0156 712.2656,244.375 Z " fill="#000000"/><text fill="#000000" font-family="sans-serif" font-size="14" lengthAdjust="spacing" textLength="62" x="723.5" y="254.2969">Productor</text><line style="stroke:#181818;stroke-width:0.5;" x1="695.5" x2="787.5" y1="264.5" y2="264.5"/></g><!--MD5=[ed6624c6556d5e7b1bd23032162d20b7]
class Client--><g id="elem_Client"><rect codeLine="30" fill="#F1F1F1" height="40" id="Client" rx="2.5" ry="2.5" style="stroke:#181818;stroke-width:0.5;" width="68" x="707.5" y="307.5"/><ellipse cx="722.5" cy="323.5" fill="#ADD1B2" rx="11" ry="11" style="stroke:#181818;stroke-width:1.0;"/><path d="M725.2656,319.375 Q725.4219,319.1563 725.6094,319.0469 Q725.7969,318.9375 726.0156,318.9375 Q726.3906,318.9375 726.625,319.2031 Q726.8594,319.4531 726.8594,320.0625 L726.8594,321.5156 Q726.8594,322.125 726.625,322.3906 Q726.3906,322.6563 726.0156,322.6563 Q725.6719,322.6563 725.4688,322.4531 Q725.2656,322.2656 725.1563,321.75 Q725.1094,321.3906 724.9219,321.2031 Q724.5938,320.8281 723.9844,320.6094 Q723.375,320.3906 722.75,320.3906 Q721.9844,320.3906 721.3438,320.7188 Q720.7188,321.0469 720.2188,321.7969 Q719.7344,322.5469 719.7344,323.5781 L719.7344,324.6719 Q719.7344,325.9063 720.625,326.7344 Q721.5156,327.5469 723.1094,327.5469 Q724.0469,327.5469 724.7031,327.2969 Q725.0938,327.1406 725.5156,326.7031 Q725.7813,326.4375 725.9219,326.3594 Q726.0781,326.2813 726.2813,326.2813 Q726.6094,326.2813 726.8594,326.5469 Q727.125,326.7969 727.125,327.1406 Q727.125,327.4844 726.7813,327.8906 Q726.2813,328.4688 725.4844,328.7969 Q724.4063,329.25 723.1094,329.25 Q721.5938,329.25 720.3906,328.625 Q719.4063,328.125 718.7188,327.0625 Q718.0313,325.9844 718.0313,324.7031 L718.0313,323.5469 Q718.0313,322.2188 718.6406,321.0781 Q719.2656,319.9219 720.3594,319.3125 Q721.4531,318.6875 722.6875,318.6875 Q723.4219,318.6875 724.0625,318.8594 Q724.7188,319.0156 725.2656,319.375 Z " fill="#000000"/><text fill="#000000" font-family="sans-serif" font-size="14" lengthAdjust="spacing" textLength="36" x="736.5" y="329.2969">Client</text><line style="stroke:#181818;stroke-width:0.5;" x1="708.5" x2="774.5" y1="339.5" y2="339.5"/></g><!--MD5=[eff0bc5b4a0b8bfbd1cfe51708073d5b]
link Organization to DistributionNetwork--><g id="link_Organization_DistributionNetwork"><path codeLine="33" d="M119.12,201.5 C147.93,201.5 183.62,201.5 214.96,201.5 " fill="none" id="Organization-DistributionNetwork" style="stroke:#181818;stroke-width:1.0;"/><polygon fill="#000000" points="159,192.1455,149.9549,189.2066,149.9549,195.0844,159,192.1455" style="stroke:#000000;stroke-width:1.0;"/><text fill="#000000" font-family="sans-serif" font-size="13" lengthAdjust="spacing" textLength="21" x="163" y="197.5283">has</text><text fill="#000000" font-family="sans-serif" font-size="13" lengthAdjust="spacing" textLength="7" x="127.1314" y="216.7155">1</text><text fill="#000000" font-family="sans-serif" font-size="13" lengthAdjust="spacing" textLength="7" x="200.0811" y="216.3794">1</text></g><!--MD5=[82a4f64134c052add9c2562f821b6c87]
link DistributionNetwork to Entity--><g id="link_DistributionNetwork_Entity"><path codeLine="34" d="M368.12,201.5 C409.03,201.5 457.45,201.5 488.78,201.5 " fill="none" id="DistributionNetwork-Entity" style="stroke:#181818;stroke-width:1.0;"/><polygon fill="#000000" points="408,192.1455,398.9549,189.2066,398.9549,195.0844,408,192.1455" style="stroke:#000000;stroke-width:1.0;"/><text fill="#000000" font-family="sans-serif" font-size="13" lengthAdjust="spacing" textLength="46" x="412" y="197.5283">made of</text><text fill="#000000" font-family="sans-serif" font-size="13" lengthAdjust="spacing" textLength="7" x="376.0068" y="216.3794">1</text><text fill="#000000" font-family="sans-serif" font-size="13" lengthAdjust="spacing" textLength="7" x="474.1034" y="217.3505">n</text></g><!--MD5=[4e8fb74fb059c63d1e1b96be374c1e87]
link Entity to Location--><g id="link_Entity_Location"><path codeLine="35" d="M556.46,193.6 C594.4,184.51 656.8,169.56 698.27,159.62 " fill="none" id="Entity-Location" style="stroke:#181818;stroke-width:1.0;"/><polygon fill="#000000" points="595.8624,161.9804,586.3814,161.2301,587.7511,166.9461,595.8624,161.9804" style="stroke:#000000;stroke-width:1.0;"/><text fill="#000000" font-family="sans-serif" font-size="13" lengthAdjust="spacing" textLength="49" x="600" y="168.5283">based in</text><text fill="#000000" font-family="sans-serif" font-size="13" lengthAdjust="spacing" textLength="7" x="564.1861" y="207.8212">1</text><text fill="#000000" font-family="sans-serif" font-size="13" lengthAdjust="spacing" textLength="7" x="683.5303" y="176.7677">1</text></g><!--MD5=[8bbc7effe0fa8202cbb8b76ba7c3547b]
link Entity to Company--><g id="link_Entity_Company"><path codeLine="36" d="M555,171.99 C564.73,163.22 575.63,153.76 586,145.5 C621.69,117.08 664.18,87.38 695.55,66.18 " fill="none" id="Entity-Company" style="stroke:#181818;stroke-width:1.0;"/><polygon fill="#000000" points="608.9946,87.1383,600.0007,90.2305,603.5359,94.9264,608.9946,87.1383" style="stroke:#000000;stroke-width:1.0;"/><text fill="#000000" font-family="sans-serif" font-size="13" lengthAdjust="spacing" textLength="21" x="614" y="95.5283">is a</text></g><!--MD5=[15ac450c465174fdd74dc18e1a1be42a]
link Entity to Productor--><g id="link_Entity_Productor"><path codeLine="37" d="M556.46,209.25 C593.21,217.88 652.93,231.92 694.33,241.65 " fill="none" id="Entity-Productor" style="stroke:#181818;stroke-width:1.0;"/><polygon fill="#000000" points="609.8674,209.2894,601.7345,204.3591,600.3898,210.0811,609.8674,209.2894" style="stroke:#000000;stroke-width:1.0;"/><text fill="#000000" font-family="sans-serif" font-size="13" lengthAdjust="spacing" textLength="21" x="614" y="213.5283">is a</text></g><!--MD5=[153c54afe579337113e235320605ca89]
link Entity to Client--><g id="link_Entity_Client"><path codeLine="38" d="M552.81,231.12 C562.81,240.28 574.41,249.94 586,257.5 C625.09,283 675,303.76 707.35,315.87 " fill="none" id="Entity-Client" style="stroke:#181818;stroke-width:1.0;"/><polygon fill="#000000" points="609.384,250.5497,602.8664,243.6236,600.0401,248.7773,609.384,250.5497" style="stroke:#000000;stroke-width:1.0;"/><text fill="#000000" font-family="sans-serif" font-size="13" lengthAdjust="spacing" textLength="21" x="614" y="253.5283">is a</text></g><!--MD5=[fc73d46ad716e5d3af6e7ef83ad80f02]
@startuml
hide methods
left to right direction
skinparam classAttributeIconSize 0


class Organization {
  -designation
}

class DistributionNetwork{
}

class Entity{
    -name
}

class Company{
    -isDistributionHub
}

class Location{
     -locationId
     -longitude
     -latitude
}

class Productor{
}

class Client{
}

Organization "1" - - "1" DistributionNetwork : has >
DistributionNetwork "1" - - "n" Entity : made of >
Entity "1" - - "1" Location : based in >
Entity - -  Company : is a >
Entity - - Productor : is a >
Entity - - Client : is a >

@enduml

PlantUML version 1.2022.12(Sun Oct 23 19:12:26 WEST 2022)
(GPL source distribution)
Java Runtime: OpenJDK Runtime Environment
JVM: OpenJDK 64-Bit Server VM
Default Encoding: Cp1252
Language: pt
Country: PT
--></g></svg>