<?xml version="1.0" encoding="UTF-8" standalone="no"?><svg xmlns="http://www.w3.org/2000/svg" xmlns:xlink="http://www.w3.org/1999/xlink" contentStyleType="text/css" height="644px" preserveAspectRatio="none" style="width:594px;height:644px;background:#FFFFFF;" version="1.1" viewBox="0 0 594 644" width="594px" zoomAndPan="magnify"><defs/><g><text fill="#000000" font-family="sans-serif" font-size="14" font-weight="bold" lengthAdjust="spacing" textLength="76" x="252.25" y="25.1074">Star Model</text><!--MD5=[4070ca5927d9b725dd0d376aec46acd6]
class Production--><g id="elem_Production"><rect codeLine="4" fill="#F1F1F1" height="141.1055" id="Production" rx="2.5" ry="2.5" style="stroke:#181818;stroke-width:0.5;" width="100" x="371" y="271.6211"/><ellipse cx="386" cy="287.6211" fill="#5087FF" rx="11" ry="11" style="stroke:#181818;stroke-width:1.0;"/><path d="M385.4375,288.4336 L385.4375,290.918 L387.1719,290.918 Q387.7969,290.918 388.0469,291.1523 Q388.3125,291.3867 388.3125,291.7773 Q388.3125,292.1523 388.0469,292.3867 Q387.7969,292.6211 387.1719,292.6211 L383.4688,292.6211 Q382.8594,292.6211 382.5938,292.3867 Q382.3281,292.1523 382.3281,291.7617 Q382.3281,291.3867 382.5938,291.1523 Q382.8594,290.918 383.4688,290.918 L383.7344,290.918 L383.7344,284.2617 L383.4688,284.2617 Q382.8594,284.2617 382.5938,284.0273 Q382.3281,283.793 382.3281,283.4023 Q382.3281,283.0273 382.5938,282.793 Q382.8594,282.5586 383.4688,282.5586 L391.4844,282.5586 L391.4844,285.1523 Q391.4844,285.7617 391.2344,286.0273 Q391,286.293 390.625,286.293 Q390.25,286.293 390.0156,286.043 Q389.7813,285.7773 389.7813,285.1523 L389.7813,284.2617 L385.4375,284.2617 L385.4375,286.7305 L386.9219,286.7305 Q386.9219,286.0586 387.0469,285.8711 Q387.3125,285.4648 387.7813,285.4648 Q388.1563,285.4648 388.3906,285.7305 Q388.625,285.9961 388.625,286.6055 L388.625,288.5586 Q388.625,289.1836 388.3906,289.4492 Q388.1563,289.6992 387.7813,289.6992 Q387.3125,289.6992 387.0469,289.293 Q386.9219,289.1055 386.9219,288.4336 L385.4375,288.4336 Z " fill="#000000"/><text fill="#000000" font-family="sans-serif" font-size="14" lengthAdjust="spacing" textLength="68" x="400" y="293.418">Production</text><line style="stroke:#181818;stroke-width:0.5;" x1="372" x2="470" y1="303.6211" y2="303.6211"/><text fill="#000000" font-family="sans-serif" font-size="14" lengthAdjust="spacing" text-decoration="underline" textLength="11" x="377" y="322.7285">id</text><text fill="#000000" font-family="sans-serif" font-size="14" lengthAdjust="spacing" textLength="45" x="377" y="341.3496">time_id</text><text fill="#000000" font-family="sans-serif" font-size="14" lengthAdjust="spacing" textLength="58" x="377" y="359.9707">sector_id</text><text fill="#000000" font-family="sans-serif" font-size="14" lengthAdjust="spacing" textLength="67" x="377" y="378.5918">product_id</text><text fill="#000000" font-family="sans-serif" font-size="14" lengthAdjust="spacing" textLength="47" x="377" y="397.2129">amount</text><line style="stroke:#181818;stroke-width:0.5;" x1="372" x2="470" y1="404.7266" y2="404.7266"/></g><!--MD5=[e0bd77868626c22cfc0c5aeed1b8d67f]
class Sale--><g id="elem_Sale"><rect codeLine="12" fill="#F1F1F1" height="141.1055" id="Sale" rx="2.5" ry="2.5" style="stroke:#181818;stroke-width:0.5;" width="79" x="142.5" y="271.6211"/><ellipse cx="166.05" cy="287.6211" fill="#5087FF" rx="11" ry="11" style="stroke:#181818;stroke-width:1.0;"/><path d="M165.4875,288.4336 L165.4875,290.918 L167.2219,290.918 Q167.8469,290.918 168.0969,291.1523 Q168.3625,291.3867 168.3625,291.7773 Q168.3625,292.1523 168.0969,292.3867 Q167.8469,292.6211 167.2219,292.6211 L163.5188,292.6211 Q162.9094,292.6211 162.6438,292.3867 Q162.3781,292.1523 162.3781,291.7617 Q162.3781,291.3867 162.6438,291.1523 Q162.9094,290.918 163.5188,290.918 L163.7844,290.918 L163.7844,284.2617 L163.5188,284.2617 Q162.9094,284.2617 162.6438,284.0273 Q162.3781,283.793 162.3781,283.4023 Q162.3781,283.0273 162.6438,282.793 Q162.9094,282.5586 163.5188,282.5586 L171.5344,282.5586 L171.5344,285.1523 Q171.5344,285.7617 171.2844,286.0273 Q171.05,286.293 170.675,286.293 Q170.3,286.293 170.0656,286.043 Q169.8313,285.7773 169.8313,285.1523 L169.8313,284.2617 L165.4875,284.2617 L165.4875,286.7305 L166.9719,286.7305 Q166.9719,286.0586 167.0969,285.8711 Q167.3625,285.4648 167.8313,285.4648 Q168.2063,285.4648 168.4406,285.7305 Q168.675,285.9961 168.675,286.6055 L168.675,288.5586 Q168.675,289.1836 168.4406,289.4492 Q168.2063,289.6992 167.8313,289.6992 Q167.3625,289.6992 167.0969,289.293 Q166.9719,289.1055 166.9719,288.4336 L165.4875,288.4336 Z " fill="#000000"/><text fill="#000000" font-family="sans-serif" font-size="14" lengthAdjust="spacing" textLength="28" x="181.95" y="293.418">Sale</text><line style="stroke:#181818;stroke-width:0.5;" x1="143.5" x2="220.5" y1="303.6211" y2="303.6211"/><text fill="#000000" font-family="sans-serif" font-size="14" lengthAdjust="spacing" text-decoration="underline" textLength="11" x="148.5" y="322.7285">id</text><text fill="#000000" font-family="sans-serif" font-size="14" lengthAdjust="spacing" textLength="45" x="148.5" y="341.3496">time_id</text><text fill="#000000" font-family="sans-serif" font-size="14" lengthAdjust="spacing" textLength="52" x="148.5" y="359.9707">client_id</text><text fill="#000000" font-family="sans-serif" font-size="14" lengthAdjust="spacing" textLength="67" x="148.5" y="378.5918">product_id</text><text fill="#000000" font-family="sans-serif" font-size="14" lengthAdjust="spacing" textLength="50" x="148.5" y="397.2129">quantity</text><line style="stroke:#181818;stroke-width:0.5;" x1="143.5" x2="220.5" y1="404.7266" y2="404.7266"/></g><!--MD5=[2e42295458bb0bec21c9622a623eb29e]
class Time--><g id="elem_Time"><rect codeLine="20" fill="#F1F1F1" height="103.8633" id="Time" rx="2.5" ry="2.5" style="stroke:#181818;stroke-width:0.5;" width="63" x="269.5" y="533.6211"/><ellipse cx="284.5" cy="549.6211" fill="#FFA500" rx="11" ry="11" style="stroke:#181818;stroke-width:1.0;"/><path d="M282.0469,552.918 L282.0469,546.2617 Q281.5,546.2461 281.2344,546.0117 Q280.9844,545.7773 280.9844,545.4023 Q280.9844,545.0273 281.25,544.793 Q281.5156,544.5586 282.125,544.5586 L285.6875,544.5586 Q286.5156,544.5586 287.3125,544.8711 Q288.1094,545.168 288.5938,545.6523 Q288.9531,546.0117 289.3438,546.6367 Q289.7344,547.2461 289.9375,547.8711 Q290.1406,548.4805 290.1406,549.3711 L290.1406,550.1836 Q290.1406,551.2617 289.7656,552.1055 Q289.4063,552.9336 288.8125,553.4648 Q288.2188,553.9805 287.7031,554.2305 Q286.875,554.6211 285.5469,554.6211 L282.125,554.6211 Q281.5156,554.6211 281.25,554.3867 Q280.9844,554.1523 280.9844,553.7617 Q280.9844,553.3867 281.25,553.1523 Q281.5156,552.918 282.0469,552.918 Z M283.75,552.918 L285.5625,552.918 Q286.5625,552.918 287.0781,552.6211 Q287.75,552.2461 288.0938,551.668 Q288.4375,551.0742 288.4375,550.1367 L288.4375,549.3242 Q288.4375,548.5273 288.125,547.918 Q287.6406,546.9648 287.0313,546.6211 Q286.4375,546.2617 285.5469,546.2617 L283.75,546.2617 L283.75,552.918 Z " fill="#000000"/><text fill="#000000" font-family="sans-serif" font-size="14" lengthAdjust="spacing" textLength="31" x="298.5" y="555.418">Time</text><line style="stroke:#181818;stroke-width:0.5;" x1="270.5" x2="331.5" y1="565.6211" y2="565.6211"/><text fill="#000000" font-family="sans-serif" font-size="14" lengthAdjust="spacing" text-decoration="underline" textLength="11" x="275.5" y="584.7285">id</text><text fill="#000000" font-family="sans-serif" font-size="14" lengthAdjust="spacing" textLength="28" x="275.5" y="603.3496">year</text><text fill="#000000" font-family="sans-serif" font-size="14" lengthAdjust="spacing" textLength="39" x="275.5" y="621.9707">month</text><line style="stroke:#181818;stroke-width:0.5;" x1="270.5" x2="331.5" y1="629.4844" y2="629.4844"/></g><!--MD5=[ed6624c6556d5e7b1bd23032162d20b7]
class Client--><g id="elem_Client"><rect codeLine="26" fill="#F1F1F1" height="122.4844" id="Client" rx="2.5" ry="2.5" style="stroke:#181818;stroke-width:0.5;" width="100" x="7" y="281.1211"/><ellipse cx="36.4" cy="297.1211" fill="#FFA500" rx="11" ry="11" style="stroke:#181818;stroke-width:1.0;"/><path d="M33.9469,300.418 L33.9469,293.7617 Q33.4,293.7461 33.1344,293.5117 Q32.8844,293.2773 32.8844,292.9023 Q32.8844,292.5273 33.15,292.293 Q33.4156,292.0586 34.025,292.0586 L37.5875,292.0586 Q38.4156,292.0586 39.2125,292.3711 Q40.0094,292.668 40.4938,293.1523 Q40.8531,293.5117 41.2438,294.1367 Q41.6344,294.7461 41.8375,295.3711 Q42.0406,295.9805 42.0406,296.8711 L42.0406,297.6836 Q42.0406,298.7617 41.6656,299.6055 Q41.3063,300.4336 40.7125,300.9648 Q40.1188,301.4805 39.6031,301.7305 Q38.775,302.1211 37.4469,302.1211 L34.025,302.1211 Q33.4156,302.1211 33.15,301.8867 Q32.8844,301.6523 32.8844,301.2617 Q32.8844,300.8867 33.15,300.6523 Q33.4156,300.418 33.9469,300.418 Z M35.65,300.418 L37.4625,300.418 Q38.4625,300.418 38.9781,300.1211 Q39.65,299.7461 39.9938,299.168 Q40.3375,298.5742 40.3375,297.6367 L40.3375,296.8242 Q40.3375,296.0273 40.025,295.418 Q39.5406,294.4648 38.9313,294.1211 Q38.3375,293.7617 37.4469,293.7617 L35.65,293.7617 L35.65,300.418 Z " fill="#000000"/><text fill="#000000" font-family="sans-serif" font-size="14" lengthAdjust="spacing" textLength="36" x="53.6" y="302.918">Client</text><line style="stroke:#181818;stroke-width:0.5;" x1="8" x2="106" y1="313.1211" y2="313.1211"/><text fill="#000000" font-family="sans-serif" font-size="14" lengthAdjust="spacing" text-decoration="underline" textLength="11" x="13" y="332.2285">id</text><text fill="#000000" font-family="sans-serif" font-size="14" lengthAdjust="spacing" textLength="88" x="13" y="350.8496">fiscal_number</text><text fill="#000000" font-family="sans-serif" font-size="14" lengthAdjust="spacing" textLength="33" x="13" y="369.4707">email</text><text fill="#000000" font-family="sans-serif" font-size="14" lengthAdjust="spacing" textLength="35" x="13" y="388.0918">name</text><line style="stroke:#181818;stroke-width:0.5;" x1="8" x2="106" y1="395.6055" y2="395.6055"/></g><!--MD5=[72136138052d025cffdce3c22fbd185f]
class Product--><g id="elem_Product"><rect codeLine="33" fill="#F1F1F1" height="103.8633" id="Product" rx="2.5" ry="2.5" style="stroke:#181818;stroke-width:0.5;" width="81" x="260.5" y="46.6211"/><ellipse cx="275.5" cy="62.6211" fill="#FFA500" rx="11" ry="11" style="stroke:#181818;stroke-width:1.0;"/><path d="M273.0469,65.918 L273.0469,59.2617 Q272.5,59.2461 272.2344,59.0117 Q271.9844,58.7773 271.9844,58.4023 Q271.9844,58.0273 272.25,57.793 Q272.5156,57.5586 273.125,57.5586 L276.6875,57.5586 Q277.5156,57.5586 278.3125,57.8711 Q279.1094,58.168 279.5938,58.6523 Q279.9531,59.0117 280.3438,59.6367 Q280.7344,60.2461 280.9375,60.8711 Q281.1406,61.4805 281.1406,62.3711 L281.1406,63.1836 Q281.1406,64.2617 280.7656,65.1055 Q280.4063,65.9336 279.8125,66.4648 Q279.2188,66.9805 278.7031,67.2305 Q277.875,67.6211 276.5469,67.6211 L273.125,67.6211 Q272.5156,67.6211 272.25,67.3867 Q271.9844,67.1523 271.9844,66.7617 Q271.9844,66.3867 272.25,66.1523 Q272.5156,65.918 273.0469,65.918 Z M274.75,65.918 L276.5625,65.918 Q277.5625,65.918 278.0781,65.6211 Q278.75,65.2461 279.0938,64.668 Q279.4375,64.0742 279.4375,63.1367 L279.4375,62.3242 Q279.4375,61.5273 279.125,60.918 Q278.6406,59.9648 278.0313,59.6211 Q277.4375,59.2617 276.5469,59.2617 L274.75,59.2617 L274.75,65.918 Z " fill="#000000"/><text fill="#000000" font-family="sans-serif" font-size="14" lengthAdjust="spacing" textLength="49" x="289.5" y="68.418">Product</text><line style="stroke:#181818;stroke-width:0.5;" x1="261.5" x2="340.5" y1="78.6211" y2="78.6211"/><text fill="#000000" font-family="sans-serif" font-size="14" lengthAdjust="spacing" text-decoration="underline" textLength="11" x="266.5" y="97.7285">id</text><text fill="#000000" font-family="sans-serif" font-size="14" lengthAdjust="spacing" textLength="27" x="266.5" y="116.3496">type</text><text fill="#000000" font-family="sans-serif" font-size="14" lengthAdjust="spacing" textLength="35" x="266.5" y="134.9707">name</text><line style="stroke:#181818;stroke-width:0.5;" x1="261.5" x2="340.5" y1="142.4844" y2="142.4844"/></g><!--MD5=[a6842a721ad0a9f623a523d1d7b13c1e]
class Sector--><g id="elem_Sector"><rect codeLine="39" fill="#F1F1F1" height="103.8633" id="Sector" rx="2.5" ry="2.5" style="stroke:#181818;stroke-width:0.5;" width="81" x="506.5" y="290.1211"/><ellipse cx="525.1" cy="306.1211" fill="#FFA500" rx="11" ry="11" style="stroke:#181818;stroke-width:1.0;"/><path d="M522.6469,309.418 L522.6469,302.7617 Q522.1,302.7461 521.8344,302.5117 Q521.5844,302.2773 521.5844,301.9023 Q521.5844,301.5273 521.85,301.293 Q522.1156,301.0586 522.725,301.0586 L526.2875,301.0586 Q527.1156,301.0586 527.9125,301.3711 Q528.7094,301.668 529.1938,302.1523 Q529.5531,302.5117 529.9438,303.1367 Q530.3344,303.7461 530.5375,304.3711 Q530.7406,304.9805 530.7406,305.8711 L530.7406,306.6836 Q530.7406,307.7617 530.3656,308.6055 Q530.0063,309.4336 529.4125,309.9648 Q528.8188,310.4805 528.3031,310.7305 Q527.475,311.1211 526.1469,311.1211 L522.725,311.1211 Q522.1156,311.1211 521.85,310.8867 Q521.5844,310.6523 521.5844,310.2617 Q521.5844,309.8867 521.85,309.6523 Q522.1156,309.418 522.6469,309.418 Z M524.35,309.418 L526.1625,309.418 Q527.1625,309.418 527.6781,309.1211 Q528.35,308.7461 528.6938,308.168 Q529.0375,307.5742 529.0375,306.6367 L529.0375,305.8242 Q529.0375,305.0273 528.725,304.418 Q528.2406,303.4648 527.6313,303.1211 Q527.0375,302.7617 526.1469,302.7617 L524.35,302.7617 L524.35,309.418 Z " fill="#000000"/><text fill="#000000" font-family="sans-serif" font-size="14" lengthAdjust="spacing" textLength="41" x="539.9" y="311.918">Sector</text><line style="stroke:#181818;stroke-width:0.5;" x1="507.5" x2="586.5" y1="322.1211" y2="322.1211"/><text fill="#000000" font-family="sans-serif" font-size="14" lengthAdjust="spacing" text-decoration="underline" textLength="11" x="512.5" y="341.2285">id</text><text fill="#000000" font-family="sans-serif" font-size="14" lengthAdjust="spacing" textLength="35" x="512.5" y="359.8496">name</text><text fill="#000000" font-family="sans-serif" font-size="14" lengthAdjust="spacing" textLength="69" x="512.5" y="378.4707">exploration</text><line style="stroke:#181818;stroke-width:0.5;" x1="507.5" x2="586.5" y1="385.9844" y2="385.9844"/></g><!--MD5=[c9909e49caaf1979ad2681cbd6a47992]
class HUB--><g id="elem_HUB"><rect codeLine="45" fill="#F1F1F1" height="103.8633" id="HUB" rx="2.5" ry="2.5" style="stroke:#181818;stroke-width:0.5;" width="79" x="256.5" y="290.1211"/><ellipse cx="280.5" cy="306.1211" fill="#FFA500" rx="11" ry="11" style="stroke:#181818;stroke-width:1.0;"/><path d="M278.0469,309.418 L278.0469,302.7617 Q277.5,302.7461 277.2344,302.5117 Q276.9844,302.2773 276.9844,301.9023 Q276.9844,301.5273 277.25,301.293 Q277.5156,301.0586 278.125,301.0586 L281.6875,301.0586 Q282.5156,301.0586 283.3125,301.3711 Q284.1094,301.668 284.5938,302.1523 Q284.9531,302.5117 285.3438,303.1367 Q285.7344,303.7461 285.9375,304.3711 Q286.1406,304.9805 286.1406,305.8711 L286.1406,306.6836 Q286.1406,307.7617 285.7656,308.6055 Q285.4063,309.4336 284.8125,309.9648 Q284.2188,310.4805 283.7031,310.7305 Q282.875,311.1211 281.5469,311.1211 L278.125,311.1211 Q277.5156,311.1211 277.25,310.8867 Q276.9844,310.6523 276.9844,310.2617 Q276.9844,309.8867 277.25,309.6523 Q277.5156,309.418 278.0469,309.418 Z M279.75,309.418 L281.5625,309.418 Q282.5625,309.418 283.0781,309.1211 Q283.75,308.7461 284.0938,308.168 Q284.4375,307.5742 284.4375,306.6367 L284.4375,305.8242 Q284.4375,305.0273 284.125,304.418 Q283.6406,303.4648 283.0313,303.1211 Q282.4375,302.7617 281.5469,302.7617 L279.75,302.7617 L279.75,309.418 Z " fill="#000000"/><text fill="#000000" font-family="sans-serif" font-size="14" lengthAdjust="spacing" textLength="27" x="296.5" y="311.918">HUB</text><line style="stroke:#181818;stroke-width:0.5;" x1="257.5" x2="334.5" y1="322.1211" y2="322.1211"/><text fill="#000000" font-family="sans-serif" font-size="14" lengthAdjust="spacing" text-decoration="underline" textLength="11" x="262.5" y="341.2285">id</text><text fill="#000000" font-family="sans-serif" font-size="14" lengthAdjust="spacing" textLength="67" x="262.5" y="359.8496">hub_name</text><text fill="#000000" font-family="sans-serif" font-size="14" lengthAdjust="spacing" textLength="59" x="262.5" y="378.4707">hub_type</text><line style="stroke:#181818;stroke-width:0.5;" x1="257.5" x2="334.5" y1="385.9844" y2="385.9844"/></g><!--MD5=[abb3ee3249a7d9057188ac83170ec77e]
link Production to Time--><g id="link_Production_Time"><path codeLine="51" d="M386.45,412.6511 C367.27,451.2511 343.83,498.4211 326.36,533.5811 " fill="none" id="Production-Time" style="stroke:#181818;stroke-width:1.0;"/><text fill="#000000" font-family="sans-serif" font-size="13" lengthAdjust="spacing" textLength="9" x="373.423" y="434.839">N</text><text fill="#000000" font-family="sans-serif" font-size="13" lengthAdjust="spacing" textLength="7" x="322.2974" y="522.5031">1</text></g><!--MD5=[56a281ca8c97d0f35bb4e2aced578a92]
link Sale to Time--><g id="link_Sale_Time"><path codeLine="52" d="M216.26,412.6511 C235.28,451.2511 258.52,498.4211 275.85,533.5811 " fill="none" id="Sale-Time" style="stroke:#181818;stroke-width:1.0;"/><text fill="#000000" font-family="sans-serif" font-size="13" lengthAdjust="spacing" textLength="9" x="210.329" y="434.839">N</text><text fill="#000000" font-family="sans-serif" font-size="13" lengthAdjust="spacing" textLength="7" x="265.0002" y="522.5031">1</text></g><!--MD5=[0c52a5bc3cac59332484e2e11958d267]
link Product to Sale--><g id="link_Product_Sale"><path codeLine="53" d="M275.76,150.8411 C258.5,185.8711 235.41,232.7411 216.45,271.2011 " fill="none" id="Product-Sale" style="stroke:#181818;stroke-width:1.0;"/><text fill="#000000" font-family="sans-serif" font-size="13" lengthAdjust="spacing" textLength="7" x="265.0777" y="172.6766">1</text><text fill="#000000" font-family="sans-serif" font-size="13" lengthAdjust="spacing" textLength="9" x="210.3982" y="260.4206">N</text></g><!--MD5=[e4efc476239026f83ad778b83b46d2b6]
link Product to Production--><g id="link_Product_Production"><path codeLine="54" d="M326.45,150.8411 C343.85,185.8711 367.15,232.7411 386.26,271.2011 " fill="none" id="Product-Production" style="stroke:#181818;stroke-width:1.0;"/><text fill="#000000" font-family="sans-serif" font-size="13" lengthAdjust="spacing" textLength="7" x="322.2623" y="172.6766">1</text><text fill="#000000" font-family="sans-serif" font-size="13" lengthAdjust="spacing" textLength="9" x="373.3973" y="260.4206">N</text></g><!--MD5=[975a9c7ffdeb41e870a86867f5923d6e]
link Client to Sale--><g id="link_Client_Sale"><path codeLine="56" d="M107.29,342.1211 C118.97,342.1211 130.64,342.1211 142.31,342.1211 " fill="none" id="Client-Sale" style="stroke:#181818;stroke-width:1.0;"/><text fill="#000000" font-family="sans-serif" font-size="13" lengthAdjust="spacing" textLength="7" x="114.8542" y="337.9405">1</text><text fill="#000000" font-family="sans-serif" font-size="13" lengthAdjust="spacing" textLength="9" x="125.4387" y="337.6519">N</text></g><!--MD5=[34433e9bdba1186ccd9604beb044a108]
link Production to Sector--><g id="link_Production_Sector"><path codeLine="57" d="M471.2,342.1211 C482.95,342.1211 494.69,342.1211 506.44,342.1211 " fill="none" id="Production-Sector" style="stroke:#181818;stroke-width:1.0;"/><text fill="#000000" font-family="sans-serif" font-size="13" lengthAdjust="spacing" textLength="9" x="478.8922" y="337.9671">N</text><text fill="#000000" font-family="sans-serif" font-size="13" lengthAdjust="spacing" textLength="7" x="491.5918" y="337.6734">1</text></g><!--MD5=[0d253f2d160709f41163801bbd145fa0]
link Sale to HUB--><g id="link_Sale_HUB"><path codeLine="58" d="M221.63,342.1211 C233.25,342.1211 244.87,342.1211 256.49,342.1211 " fill="none" id="Sale-HUB" style="stroke:#181818;stroke-width:1.0;"/><text fill="#000000" font-family="sans-serif" font-size="13" lengthAdjust="spacing" textLength="9" x="229.4907" y="337.6519">N</text><text fill="#000000" font-family="sans-serif" font-size="13" lengthAdjust="spacing" textLength="7" x="241.56" y="337.6217">1</text></g><!--MD5=[98118b67dc658b089801f279c1fd219e]
@startuml
title "Star Model"


class Production <<(F,#5087FF)>>{
    {static} id
    time_id
    sector_id
    product_id
    amount
}

class Sale <<(F,#5087FF)>>{
    {static} id
    time_id
    client_id
    product_id
    quantity
}

class Time <<(D,#FFA500)>>{
    {static} id
    year
    month
}

class Client<<(D,#FFA500)>>{
    {static} id
    fiscal_number
    email
    name
}

class Product<<(D,#FFA500)>>{
    {static} id
    type
    name
}

class Sector<<(D,#FFA500)>>{
    {static}id
    name
    exploration
}

class HUB <<(D,#FFA500)>>{
    {static} id
    hub_name
    hub_type
}

Production "N" -down- - "1" Time
Sale "N" -down- - "1" Time
Sale "N" -up- - "1" Product
Production "N" -up- - "1" Product

Sale "N" -left "1" Client
Production "N" -right "1" Sector
Sale "N" -right "1" HUB

@enduml

PlantUML version 1.2022.13(Sat Nov 19 13:22:17 WET 2022)
(GPL source distribution)
Java Runtime: OpenJDK Runtime Environment
JVM: OpenJDK 64-Bit Server VM
Default Encoding: Cp1252
Language: pt
Country: PT
--></g></svg>