<?xml version="1.0" encoding="UTF-8" standalone="no"?><svg xmlns="http://www.w3.org/2000/svg" xmlns:xlink="http://www.w3.org/1999/xlink" contentStyleType="text/css" height="414.4px" preserveAspectRatio="none" style="width:1105px;height:414px;background:#FFFFFF;" version="1.1" viewBox="0 0 1105 414" width="1105.2px" zoomAndPan="magnify"><defs/><g><!--MD5=[64e2e010ba86d7988e5cd73bd64f61f9]
cluster ui--><g id="cluster_ui"><path d="M225.104,2.4 L230.704,2.4 A1.5,1.5 0 0 1 231.704,3.4 L234.504,11.0563 L587.104,11.0563 A1,1 0 0 1 588.104,12.0563 L588.104,115.4 A1,1 0 0 1 587.104,116.4 L225.104,116.4 A1,1 0 0 1 224.104,115.4 L224.104,3.4 A1,1 0 0 1 225.104,2.4 " fill="none" style="stroke:#000000;stroke-width:0.6000000000000001;"/><line style="stroke:#000000;stroke-width:0.6000000000000001;" x1="224.104" x2="234.504" y1="11.0563" y2="11.0563"/><text fill="#000000" font-family="sans-serif" font-size="5.6" font-weight="bold" lengthAdjust="spacing" textLength="5.2" x="225.704" y="8.2695">ui</text></g><!--MD5=[1f2cfc53d9d308f53762fd0fcbaa4873]
cluster Controller--><g id="cluster_Controller"><path d="M203.504,129.6 L232.304,129.6 A1.5,1.5 0 0 1 233.304,130.6 L236.104,138.2563 L522.704,138.2563 A1,1 0 0 1 523.704,139.2563 L523.704,205.4 A1,1 0 0 1 522.704,206.4 L203.504,206.4 A1,1 0 0 1 202.504,205.4 L202.504,130.6 A1,1 0 0 1 203.504,129.6 " fill="none" style="stroke:#000000;stroke-width:0.6000000000000001;"/><line style="stroke:#000000;stroke-width:0.6000000000000001;" x1="202.504" x2="236.104" y1="138.2563" y2="138.2563"/><text fill="#000000" font-family="sans-serif" font-size="5.6" font-weight="bold" lengthAdjust="spacing" textLength="28.4" x="204.104" y="135.4695">Controller</text></g><!--MD5=[121a8bf1197281ab89ed693fab589f94]
cluster Domain--><g id="cluster_Domain"><path d="M27.904,219.6 L49.104,219.6 A1.5,1.5 0 0 1 50.104,220.6 L52.904,228.2563 L867.504,228.2563 A1,1 0 0 1 868.504,229.2563 L868.504,410.6 A1,1 0 0 1 867.504,411.6 L27.904,411.6 A1,1 0 0 1 26.904,410.6 L26.904,220.6 A1,1 0 0 1 27.904,219.6 " fill="none" style="stroke:#000000;stroke-width:0.6000000000000001;"/><line style="stroke:#000000;stroke-width:0.6000000000000001;" x1="26.904" x2="52.904" y1="228.2563" y2="228.2563"/><text fill="#000000" font-family="sans-serif" font-size="5.6" font-weight="bold" lengthAdjust="spacing" textLength="20.8" x="28.504" y="225.4695">Domain</text></g><!--MD5=[7ce1723ddb6e6233854253973eae5a71]
cluster Store--><g id="cluster_Store"><path d="M671.104,331.6 L686.704,331.6 A1.5,1.5 0 0 1 687.704,332.6 L690.504,340.2563 L857.904,340.2563 A1,1 0 0 1 858.904,341.2563 L858.904,401 A1,1 0 0 1 857.904,402 L671.104,402 A1,1 0 0 1 670.104,401 L670.104,332.6 A1,1 0 0 1 671.104,331.6 " fill="none" style="stroke:#000000;stroke-width:0.6000000000000001;"/><line style="stroke:#000000;stroke-width:0.6000000000000001;" x1="670.104" x2="690.504" y1="340.2563" y2="340.2563"/><text fill="#000000" font-family="sans-serif" font-size="5.6" font-weight="bold" lengthAdjust="spacing" textLength="15.2" x="671.704" y="337.4695">Store</text></g><!--MD5=[15636c1ca4a123c16a2a1a8e90aca7a9]
cluster Model--><g id="cluster_Model"><path d="M37.504,236.4 L55.504,236.4 A1.5,1.5 0 0 1 56.504,237.4 L59.304,245.0563 L659.504,245.0563 A1,1 0 0 1 660.504,246.0563 L660.504,394.8 A1,1 0 0 1 659.504,395.8 L37.504,395.8 A1,1 0 0 1 36.504,394.8 L36.504,237.4 A1,1 0 0 1 37.504,236.4 " fill="none" style="stroke:#000000;stroke-width:0.6000000000000001;"/><line style="stroke:#000000;stroke-width:0.6000000000000001;" x1="36.504" x2="59.304" y1="245.0563" y2="245.0563"/><text fill="#000000" font-family="sans-serif" font-size="5.6" font-weight="bold" lengthAdjust="spacing" textLength="17.6" x="38.104" y="242.2695">Model</text></g><!--MD5=[7e40339c58605559321960399585b560]
cluster Utils--><g id="cluster_Utils"><path d="M879.104,334.6 L891.904,334.6 A1.5,1.5 0 0 1 892.904,335.6 L895.704,343.2563 L1101.504,343.2563 A1,1 0 0 1 1102.504,344.2563 L1102.504,398 A1,1 0 0 1 1101.504,399 L879.104,399 A1,1 0 0 1 878.104,398 L878.104,335.6 A1,1 0 0 1 879.104,334.6 " fill="none" style="stroke:#000000;stroke-width:0.6000000000000001;"/><line style="stroke:#000000;stroke-width:0.6000000000000001;" x1="878.104" x2="895.704" y1="343.2563" y2="343.2563"/><text fill="#000000" font-family="sans-serif" font-size="5.6" font-weight="bold" lengthAdjust="spacing" textLength="12.4" x="879.704" y="340.4695">Utils</text></g><!--MD5=[b1c54036374974352eb2c1c7e54afdc9]
class ImportIrrigationDataUi--><g id="elem_ImportIrrigationDataUi"><rect codeLine="3" fill="#F1F1F1" height="37.9688" id="ImportIrrigationDataUi" rx="1" ry="1" style="stroke:#181818;stroke-width:0.20000000000000004;" width="110" x="230.704" y="72"/><ellipse cx="256.804" cy="78.4" fill="#ADD1B2" rx="4.4" ry="4.4" style="stroke:#181818;stroke-width:0.4000000000000001;"/><path d="M257.9103,76.75 Q257.9728,76.6625 258.0478,76.6188 Q258.1228,76.575 258.2103,76.575 Q258.3603,76.575 258.454,76.6813 Q258.5478,76.7813 258.5478,77.025 L258.5478,77.6063 Q258.5478,77.85 258.454,77.9563 Q258.3603,78.0625 258.2103,78.0625 Q258.0728,78.0625 257.9915,77.9813 Q257.9103,77.9063 257.8665,77.7 Q257.8478,77.5563 257.7728,77.4813 Q257.6415,77.3313 257.3978,77.2438 Q257.154,77.1563 256.904,77.1563 Q256.5978,77.1563 256.3415,77.2875 Q256.0915,77.4188 255.8915,77.7188 Q255.6978,78.0188 255.6978,78.4313 L255.6978,78.8688 Q255.6978,79.3625 256.054,79.6938 Q256.4103,80.0188 257.0478,80.0188 Q257.4228,80.0188 257.6853,79.9188 Q257.8415,79.8563 258.0103,79.6813 Q258.1165,79.575 258.1728,79.5438 Q258.2353,79.5125 258.3165,79.5125 Q258.4478,79.5125 258.5478,79.6188 Q258.654,79.7188 258.654,79.8563 Q258.654,79.9938 258.5165,80.1563 Q258.3165,80.3875 257.9978,80.5188 Q257.5665,80.7 257.0478,80.7 Q256.4415,80.7 255.9603,80.45 Q255.5665,80.25 255.2915,79.825 Q255.0165,79.3938 255.0165,78.8813 L255.0165,78.4188 Q255.0165,77.8875 255.2603,77.4313 Q255.5103,76.9688 255.9478,76.725 Q256.3853,76.475 256.879,76.475 Q257.1728,76.475 257.429,76.5438 Q257.6915,76.6063 257.9103,76.75 Z " fill="#000000"/><text fill="#000000" font-family="sans-serif" font-size="5.6" lengthAdjust="spacing" textLength="54.4" x="265.004" y="80.3414">ImportIrrigationDataUi</text><line style="stroke:#181818;stroke-width:0.20000000000000004;" x1="231.104" x2="340.304" y1="84.8" y2="84.8"/><rect fill="none" height="2.4" style="stroke:#C82930;stroke-width:0.4000000000000001;" width="2.4" x="233.904" y="88.9281"/><text fill="#000000" font-family="sans-serif" font-size="5.6" lengthAdjust="spacing" textLength="99.6" x="238.704" y="91.4695">ImportIrrigationDataController controller</text><rect fill="none" height="2.4" style="stroke:#C82930;stroke-width:0.4000000000000001;" width="2.4" x="233.904" y="95.1844"/><text fill="#000000" font-family="sans-serif" font-size="5.6" lengthAdjust="spacing" textLength="28.4" x="238.704" y="97.7258">Scanner sc</text><line style="stroke:#181818;stroke-width:0.20000000000000004;" x1="231.104" x2="340.304" y1="100.5125" y2="100.5125"/><ellipse cx="235.104" cy="105.8406" fill="#84BE84" rx="1.2" ry="1.2" style="stroke:#038048;stroke-width:0.4000000000000001;"/><text fill="#000000" font-family="sans-serif" font-size="5.6" lengthAdjust="spacing" textLength="24.4" x="238.704" y="107.182">void run()</text></g><!--MD5=[e0ee4b106f06706cbcc9cdd8ee76c235]
class IrrigationCalendarUi--><g id="elem_IrrigationCalendarUi"><rect codeLine="8" fill="#F1F1F1" height="25.4563" id="IrrigationCalendarUi" rx="1" ry="1" style="stroke:#181818;stroke-width:0.20000000000000004;" width="62.8" x="518.704" y="78.2"/><ellipse cx="524.704" cy="84.6" fill="#ADD1B2" rx="4.4" ry="4.4" style="stroke:#181818;stroke-width:0.4000000000000001;"/><path d="M525.8103,82.95 Q525.8728,82.8625 525.9478,82.8188 Q526.0228,82.775 526.1103,82.775 Q526.2603,82.775 526.354,82.8813 Q526.4478,82.9813 526.4478,83.225 L526.4478,83.8063 Q526.4478,84.05 526.354,84.1563 Q526.2603,84.2625 526.1103,84.2625 Q525.9728,84.2625 525.8915,84.1813 Q525.8103,84.1063 525.7665,83.9 Q525.7478,83.7563 525.6728,83.6813 Q525.5415,83.5313 525.2978,83.4438 Q525.054,83.3563 524.804,83.3563 Q524.4978,83.3563 524.2415,83.4875 Q523.9915,83.6188 523.7915,83.9188 Q523.5978,84.2188 523.5978,84.6313 L523.5978,85.0688 Q523.5978,85.5625 523.954,85.8938 Q524.3103,86.2188 524.9478,86.2188 Q525.3228,86.2188 525.5853,86.1188 Q525.7415,86.0563 525.9103,85.8813 Q526.0165,85.775 526.0728,85.7438 Q526.1353,85.7125 526.2165,85.7125 Q526.3478,85.7125 526.4478,85.8188 Q526.554,85.9188 526.554,86.0563 Q526.554,86.1938 526.4165,86.3563 Q526.2165,86.5875 525.8978,86.7188 Q525.4665,86.9 524.9478,86.9 Q524.3415,86.9 523.8603,86.65 Q523.4665,86.45 523.1915,86.025 Q522.9165,85.5938 522.9165,85.0813 L522.9165,84.6188 Q522.9165,84.0875 523.1603,83.6313 Q523.4103,83.1688 523.8478,82.925 Q524.2853,82.675 524.779,82.675 Q525.0728,82.675 525.329,82.7438 Q525.5915,82.8063 525.8103,82.95 Z " fill="#000000"/><text fill="#000000" font-family="sans-serif" font-size="5.6" lengthAdjust="spacing" textLength="50" x="530.304" y="86.5414">IrrigationCalendarUi</text><line style="stroke:#181818;stroke-width:0.20000000000000004;" x1="519.104" x2="581.104" y1="91" y2="91"/><line style="stroke:#181818;stroke-width:0.20000000000000004;" x1="519.104" x2="581.104" y1="94.2" y2="94.2"/><ellipse cx="523.104" cy="99.5281" fill="#84BE84" rx="1.2" ry="1.2" style="stroke:#038048;stroke-width:0.4000000000000001;"/><text fill="#000000" font-family="sans-serif" font-size="5.6" lengthAdjust="spacing" textLength="24.4" x="526.704" y="100.8695">void run()</text></g><!--MD5=[4878b9d7d8eec2c328012acd96e194ce]
class IrrigationCheckerUi--><g id="elem_IrrigationCheckerUi"><rect codeLine="11" fill="#F1F1F1" height="37.9688" id="IrrigationCheckerUi" rx="1" ry="1" style="stroke:#181818;stroke-width:0.20000000000000004;" width="149.6" x="354.904" y="72"/><ellipse cx="404.004" cy="78.4" fill="#ADD1B2" rx="4.4" ry="4.4" style="stroke:#181818;stroke-width:0.4000000000000001;"/><path d="M405.1103,76.75 Q405.1728,76.6625 405.2478,76.6188 Q405.3228,76.575 405.4103,76.575 Q405.5603,76.575 405.654,76.6813 Q405.7478,76.7813 405.7478,77.025 L405.7478,77.6063 Q405.7478,77.85 405.654,77.9563 Q405.5603,78.0625 405.4103,78.0625 Q405.2728,78.0625 405.1915,77.9813 Q405.1103,77.9063 405.0665,77.7 Q405.0478,77.5563 404.9728,77.4813 Q404.8415,77.3313 404.5978,77.2438 Q404.354,77.1563 404.104,77.1563 Q403.7978,77.1563 403.5415,77.2875 Q403.2915,77.4188 403.0915,77.7188 Q402.8978,78.0188 402.8978,78.4313 L402.8978,78.8688 Q402.8978,79.3625 403.254,79.6938 Q403.6103,80.0188 404.2478,80.0188 Q404.6228,80.0188 404.8853,79.9188 Q405.0415,79.8563 405.2103,79.6813 Q405.3165,79.575 405.3728,79.5438 Q405.4353,79.5125 405.5165,79.5125 Q405.6478,79.5125 405.7478,79.6188 Q405.854,79.7188 405.854,79.8563 Q405.854,79.9938 405.7165,80.1563 Q405.5165,80.3875 405.1978,80.5188 Q404.7665,80.7 404.2478,80.7 Q403.6415,80.7 403.1603,80.45 Q402.7665,80.25 402.4915,79.825 Q402.2165,79.3938 402.2165,78.8813 L402.2165,78.4188 Q402.2165,77.8875 402.4603,77.4313 Q402.7103,76.9688 403.1478,76.725 Q403.5853,76.475 404.079,76.475 Q404.3728,76.475 404.629,76.5438 Q404.8915,76.6063 405.1103,76.75 Z " fill="#000000"/><text fill="#000000" font-family="sans-serif" font-size="5.6" lengthAdjust="spacing" textLength="48" x="412.204" y="80.3414">IrrigationCheckerUi</text><line style="stroke:#181818;stroke-width:0.20000000000000004;" x1="355.304" x2="504.104" y1="84.8" y2="84.8"/><rect fill="none" height="2.4" style="stroke:#C82930;stroke-width:0.4000000000000001;" width="2.4" x="358.104" y="88.9281"/><text fill="#000000" font-family="sans-serif" font-size="5.6" lengthAdjust="spacing" textLength="139.2" x="362.904" y="91.4695">IrrigationCheckerController irrigationCheckerController;</text><rect fill="none" height="2.4" style="stroke:#C82930;stroke-width:0.4000000000000001;" width="2.4" x="358.104" y="95.1844"/><text fill="#000000" font-family="sans-serif" font-size="5.6" lengthAdjust="spacing" textLength="28.4" x="362.904" y="97.7258">Scanner sc</text><line style="stroke:#181818;stroke-width:0.20000000000000004;" x1="355.304" x2="504.104" y1="100.5125" y2="100.5125"/><ellipse cx="359.304" cy="105.8406" fill="#84BE84" rx="1.2" ry="1.2" style="stroke:#038048;stroke-width:0.4000000000000001;"/><text fill="#000000" font-family="sans-serif" font-size="5.6" lengthAdjust="spacing" textLength="24.4" x="362.904" y="107.182">void run()</text></g><!--MD5=[751b92e480a314db09c41437bcf55a29]
class IrrigationUi--><g id="elem_IrrigationUi"><rect codeLine="16" fill="#F1F1F1" height="31.7125" id="IrrigationUi" rx="1" ry="1" style="stroke:#181818;stroke-width:0.20000000000000004;" width="39.6" x="409.904" y="16"/><ellipse cx="415.904" cy="22.4" fill="#ADD1B2" rx="4.4" ry="4.4" style="stroke:#181818;stroke-width:0.4000000000000001;"/><path d="M417.0103,20.75 Q417.0728,20.6625 417.1478,20.6188 Q417.2228,20.575 417.3103,20.575 Q417.4603,20.575 417.554,20.6813 Q417.6478,20.7813 417.6478,21.025 L417.6478,21.6063 Q417.6478,21.85 417.554,21.9563 Q417.4603,22.0625 417.3103,22.0625 Q417.1728,22.0625 417.0915,21.9813 Q417.0103,21.9063 416.9665,21.7 Q416.9478,21.5563 416.8728,21.4813 Q416.7415,21.3313 416.4978,21.2438 Q416.254,21.1563 416.004,21.1563 Q415.6978,21.1563 415.4415,21.2875 Q415.1915,21.4188 414.9915,21.7188 Q414.7978,22.0188 414.7978,22.4313 L414.7978,22.8688 Q414.7978,23.3625 415.154,23.6938 Q415.5103,24.0188 416.1478,24.0188 Q416.5228,24.0188 416.7853,23.9188 Q416.9415,23.8563 417.1103,23.6813 Q417.2165,23.575 417.2728,23.5438 Q417.3353,23.5125 417.4165,23.5125 Q417.5478,23.5125 417.6478,23.6188 Q417.754,23.7188 417.754,23.8563 Q417.754,23.9938 417.6165,24.1563 Q417.4165,24.3875 417.0978,24.5188 Q416.6665,24.7 416.1478,24.7 Q415.5415,24.7 415.0603,24.45 Q414.6665,24.25 414.3915,23.825 Q414.1165,23.3938 414.1165,22.8813 L414.1165,22.4188 Q414.1165,21.8875 414.3603,21.4313 Q414.6103,20.9688 415.0478,20.725 Q415.4853,20.475 415.979,20.475 Q416.2728,20.475 416.529,20.5438 Q416.7915,20.6063 417.0103,20.75 Z " fill="#000000"/><text fill="#000000" font-family="sans-serif" font-size="5.6" lengthAdjust="spacing" textLength="26.8" x="421.504" y="24.3414">IrrigationUi</text><line style="stroke:#181818;stroke-width:0.20000000000000004;" x1="410.304" x2="449.104" y1="28.8" y2="28.8"/><rect fill="none" height="2.4" style="stroke:#C82930;stroke-width:0.4000000000000001;" width="2.4" x="413.104" y="32.9281"/><text fill="#000000" font-family="sans-serif" font-size="5.6" lengthAdjust="spacing" textLength="28.4" x="417.904" y="35.4695">Scanner sc</text><line style="stroke:#181818;stroke-width:0.20000000000000004;" x1="410.304" x2="449.104" y1="38.2563" y2="38.2563"/><ellipse cx="414.304" cy="43.5844" fill="#84BE84" rx="1.2" ry="1.2" style="stroke:#038048;stroke-width:0.4000000000000001;"/><text fill="#000000" font-family="sans-serif" font-size="5.6" lengthAdjust="spacing" textLength="24.4" x="417.904" y="44.9258">void run()</text></g><!--MD5=[47ee078db190ea0c519cc6fd62e68331]
class ImportIrrigationDataController--><g id="elem_ImportIrrigationDataController"><rect codeLine="23" fill="#F1F1F1" height="56.7375" id="ImportIrrigationDataController" rx="1" ry="1" style="stroke:#181818;stroke-width:0.20000000000000004;" width="132.8" x="208.904" y="143.2"/><ellipse cx="236.404" cy="149.6" fill="#ADD1B2" rx="4.4" ry="4.4" style="stroke:#181818;stroke-width:0.4000000000000001;"/><path d="M237.5103,147.95 Q237.5728,147.8625 237.6478,147.8188 Q237.7228,147.775 237.8103,147.775 Q237.9603,147.775 238.054,147.8813 Q238.1478,147.9813 238.1478,148.225 L238.1478,148.8063 Q238.1478,149.05 238.054,149.1563 Q237.9603,149.2625 237.8103,149.2625 Q237.6728,149.2625 237.5915,149.1813 Q237.5103,149.1063 237.4665,148.9 Q237.4478,148.7563 237.3728,148.6813 Q237.2415,148.5313 236.9978,148.4438 Q236.754,148.3563 236.504,148.3563 Q236.1978,148.3563 235.9415,148.4875 Q235.6915,148.6188 235.4915,148.9188 Q235.2978,149.2188 235.2978,149.6313 L235.2978,150.0688 Q235.2978,150.5625 235.654,150.8938 Q236.0103,151.2188 236.6478,151.2188 Q237.0228,151.2188 237.2853,151.1188 Q237.4415,151.0563 237.6103,150.8813 Q237.7165,150.775 237.7728,150.7438 Q237.8353,150.7125 237.9165,150.7125 Q238.0478,150.7125 238.1478,150.8188 Q238.254,150.9188 238.254,151.0563 Q238.254,151.1938 238.1165,151.3563 Q237.9165,151.5875 237.5978,151.7188 Q237.1665,151.9 236.6478,151.9 Q236.0415,151.9 235.5603,151.65 Q235.1665,151.45 234.8915,151.025 Q234.6165,150.5938 234.6165,150.0813 L234.6165,149.6188 Q234.6165,149.0875 234.8603,148.6313 Q235.1103,148.1688 235.5478,147.925 Q235.9853,147.675 236.479,147.675 Q236.7728,147.675 237.029,147.7438 Q237.2915,147.8063 237.5103,147.95 Z " fill="#000000"/><text fill="#000000" font-family="sans-serif" font-size="5.6" lengthAdjust="spacing" textLength="74.4" x="244.604" y="151.5414">ImportIrrigationDataController</text><line style="stroke:#181818;stroke-width:0.20000000000000004;" x1="209.304" x2="341.304" y1="156" y2="156"/><rect fill="none" height="2.4" style="stroke:#C82930;stroke-width:0.4000000000000001;" width="2.4" x="212.104" y="160.1281"/><text fill="#000000" font-family="sans-serif" font-size="5.6" lengthAdjust="spacing" textLength="122.4" x="216.904" y="162.6695">IrrigationControllerStore irrigationControllerStore</text><line style="stroke:#181818;stroke-width:0.20000000000000004;" x1="209.304" x2="341.304" y1="165.4563" y2="165.4563"/><ellipse cx="213.304" cy="170.7844" fill="#84BE84" rx="1.2" ry="1.2" style="stroke:#038048;stroke-width:0.4000000000000001;"/><text fill="#000000" font-family="sans-serif" font-size="5.6" lengthAdjust="spacing" textLength="102" x="216.904" y="172.1258">void importIrrigationController(String file)</text><ellipse cx="213.304" cy="177.0406" fill="#84BE84" rx="1.2" ry="1.2" style="stroke:#038048;stroke-width:0.4000000000000001;"/><text fill="#000000" font-family="sans-serif" font-size="5.6" lengthAdjust="spacing" textLength="66.4" x="216.904" y="178.382">void fillIrrigationCalendar()</text><ellipse cx="213.304" cy="183.2969" fill="#84BE84" rx="1.2" ry="1.2" style="stroke:#038048;stroke-width:0.4000000000000001;"/><text fill="#000000" font-family="sans-serif" font-size="5.6" lengthAdjust="spacing" textLength="100.8" x="216.904" y="184.6383">void importEntityConnections(String file)</text><ellipse cx="213.304" cy="189.5531" fill="#84BE84" rx="1.2" ry="1.2" style="stroke:#038048;stroke-width:0.4000000000000001;"/><text fill="#000000" font-family="sans-serif" font-size="5.6" lengthAdjust="spacing" textLength="108.8" x="216.904" y="190.8945">void addToDay(Date date, String dayType)</text><ellipse cx="213.304" cy="195.8094" fill="#84BE84" rx="1.2" ry="1.2" style="stroke:#038048;stroke-width:0.4000000000000001;"/><text fill="#000000" font-family="sans-serif" font-size="5.6" lengthAdjust="spacing" textLength="52.8" x="216.904" y="197.1508">void addThirtyDays()</text></g><!--MD5=[bbfdb2c4bd99c328ecf25cb0307f2b58]
class IrrigationCheckerController--><g id="elem_IrrigationCheckerController"><rect codeLine="31" fill="#F1F1F1" height="56.7375" id="IrrigationCheckerController" rx="1" ry="1" style="stroke:#181818;stroke-width:0.20000000000000004;" width="161.6" x="355.704" y="143.2"/><ellipse cx="400.804" cy="149.6" fill="#ADD1B2" rx="4.4" ry="4.4" style="stroke:#181818;stroke-width:0.4000000000000001;"/><path d="M401.9103,147.95 Q401.9728,147.8625 402.0478,147.8188 Q402.1228,147.775 402.2103,147.775 Q402.3603,147.775 402.454,147.8813 Q402.5478,147.9813 402.5478,148.225 L402.5478,148.8063 Q402.5478,149.05 402.454,149.1563 Q402.3603,149.2625 402.2103,149.2625 Q402.0728,149.2625 401.9915,149.1813 Q401.9103,149.1063 401.8665,148.9 Q401.8478,148.7563 401.7728,148.6813 Q401.6415,148.5313 401.3978,148.4438 Q401.154,148.3563 400.904,148.3563 Q400.5978,148.3563 400.3415,148.4875 Q400.0915,148.6188 399.8915,148.9188 Q399.6978,149.2188 399.6978,149.6313 L399.6978,150.0688 Q399.6978,150.5625 400.054,150.8938 Q400.4103,151.2188 401.0478,151.2188 Q401.4228,151.2188 401.6853,151.1188 Q401.8415,151.0563 402.0103,150.8813 Q402.1165,150.775 402.1728,150.7438 Q402.2353,150.7125 402.3165,150.7125 Q402.4478,150.7125 402.5478,150.8188 Q402.654,150.9188 402.654,151.0563 Q402.654,151.1938 402.5165,151.3563 Q402.3165,151.5875 401.9978,151.7188 Q401.5665,151.9 401.0478,151.9 Q400.4415,151.9 399.9603,151.65 Q399.5665,151.45 399.2915,151.025 Q399.0165,150.5938 399.0165,150.0813 L399.0165,149.6188 Q399.0165,149.0875 399.2603,148.6313 Q399.5103,148.1688 399.9478,147.925 Q400.3853,147.675 400.879,147.675 Q401.1728,147.675 401.429,147.7438 Q401.6915,147.8063 401.9103,147.95 Z " fill="#000000"/><text fill="#000000" font-family="sans-serif" font-size="5.6" lengthAdjust="spacing" textLength="68" x="409.004" y="151.5414">IrrigationCheckerController</text><line style="stroke:#181818;stroke-width:0.20000000000000004;" x1="356.104" x2="516.904" y1="156" y2="156"/><rect fill="none" height="2.4" style="stroke:#C82930;stroke-width:0.4000000000000001;" width="2.4" x="358.904" y="160.1281"/><text fill="#000000" font-family="sans-serif" font-size="5.6" lengthAdjust="spacing" textLength="122.4" x="363.704" y="162.6695">IrrigationControllerStore irrigationControllerStore</text><rect fill="none" height="2.4" style="stroke:#C82930;stroke-width:0.4000000000000001;" width="2.4" x="358.904" y="166.3844"/><text fill="#000000" font-family="sans-serif" font-size="5.6" lengthAdjust="spacing" textLength="112.4" x="363.704" y="168.9258">private IrrigationCalendar irrigationCalendar;</text><ellipse cx="360.104" cy="173.8406" fill="none" rx="1.2" ry="1.2" style="stroke:#038048;stroke-width:0.4000000000000001;"/><text fill="#000000" font-family="sans-serif" font-size="5.6" lengthAdjust="spacing" textLength="151.2" x="363.704" y="175.182">Pair&lt;Boolean, Pair&lt;Plot, Integer&gt;&gt; isAnyPlotGettingIrrigated</text><line style="stroke:#181818;stroke-width:0.20000000000000004;" x1="356.104" x2="516.904" y1="177.9688" y2="177.9688"/><ellipse cx="360.104" cy="183.2969" fill="#84BE84" rx="1.2" ry="1.2" style="stroke:#038048;stroke-width:0.4000000000000001;"/><text fill="#000000" font-family="sans-serif" font-size="5.6" lengthAdjust="spacing" textLength="136.8" x="363.704" y="184.6383">Pair&lt;Boolean, Integer&gt; isPlotGettingIrrigated(Plot plot)</text><ellipse cx="360.104" cy="189.5531" fill="#84BE84" rx="1.2" ry="1.2" style="stroke:#038048;stroke-width:0.4000000000000001;"/><text fill="#000000" font-family="sans-serif" font-size="5.6" lengthAdjust="spacing" textLength="84" x="363.704" y="190.8945">int getIrrigationTimeLeft(Plot plot)</text><ellipse cx="360.104" cy="195.8094" fill="#84BE84" rx="1.2" ry="1.2" style="stroke:#038048;stroke-width:0.4000000000000001;"/><text fill="#000000" font-family="sans-serif" font-size="5.6" lengthAdjust="spacing" textLength="100.8" x="363.704" y="197.1508">List&lt;Pair&lt;Plot, Integer&gt;&gt; irrigatedPlots()</text></g><!--MD5=[52231b5bab35cc714e515285fbe3dc8d]
class IrrigationControllerStore--><g id="elem_IrrigationControllerStore"><rect codeLine="46" fill="#F1F1F1" height="50.4813" id="IrrigationControllerStore" rx="1" ry="1" style="stroke:#181818;stroke-width:0.20000000000000004;" width="176" x="676.504" y="345.2"/><ellipse cx="732.604" cy="351.6" fill="#ADD1B2" rx="4.4" ry="4.4" style="stroke:#181818;stroke-width:0.4000000000000001;"/><path d="M733.7103,349.95 Q733.7728,349.8625 733.8478,349.8188 Q733.9228,349.775 734.0103,349.775 Q734.1603,349.775 734.254,349.8813 Q734.3478,349.9813 734.3478,350.225 L734.3478,350.8063 Q734.3478,351.05 734.254,351.1563 Q734.1603,351.2625 734.0103,351.2625 Q733.8728,351.2625 733.7915,351.1813 Q733.7103,351.1063 733.6665,350.9 Q733.6478,350.7563 733.5728,350.6813 Q733.4415,350.5313 733.1978,350.4438 Q732.954,350.3563 732.704,350.3563 Q732.3978,350.3563 732.1415,350.4875 Q731.8915,350.6188 731.6915,350.9188 Q731.4978,351.2188 731.4978,351.6313 L731.4978,352.0688 Q731.4978,352.5625 731.854,352.8938 Q732.2103,353.2188 732.8478,353.2188 Q733.2228,353.2188 733.4853,353.1188 Q733.6415,353.0563 733.8103,352.8813 Q733.9165,352.775 733.9728,352.7438 Q734.0353,352.7125 734.1165,352.7125 Q734.2478,352.7125 734.3478,352.8188 Q734.454,352.9188 734.454,353.0563 Q734.454,353.1938 734.3165,353.3563 Q734.1165,353.5875 733.7978,353.7188 Q733.3665,353.9 732.8478,353.9 Q732.2415,353.9 731.7603,353.65 Q731.3665,353.45 731.0915,353.025 Q730.8165,352.5938 730.8165,352.0813 L730.8165,351.6188 Q730.8165,351.0875 731.0603,350.6313 Q731.3103,350.1688 731.7478,349.925 Q732.1853,349.675 732.679,349.675 Q732.9728,349.675 733.229,349.7438 Q733.4915,349.8063 733.7103,349.95 Z " fill="#000000"/><text fill="#000000" font-family="sans-serif" font-size="5.6" lengthAdjust="spacing" textLength="60.4" x="740.804" y="353.5414">IrrigationControllerStore</text><line style="stroke:#181818;stroke-width:0.20000000000000004;" x1="676.904" x2="852.104" y1="358" y2="358"/><rect fill="none" height="2.4" style="stroke:#C82930;stroke-width:0.4000000000000001;" width="2.4" x="679.704" y="362.1281"/><text fill="#000000" font-family="sans-serif" font-size="5.6" lengthAdjust="spacing" textLength="95.2" x="684.504" y="364.6695">IrrigationController irrigationController</text><rect fill="none" height="2.4" style="stroke:#C82930;stroke-width:0.4000000000000001;" width="2.4" x="679.704" y="368.3844"/><text fill="#000000" font-family="sans-serif" font-size="5.6" lengthAdjust="spacing" textLength="92" x="684.504" y="370.9258">IrrigationCalendar irrigationCalendar</text><line style="stroke:#181818;stroke-width:0.20000000000000004;" x1="676.904" x2="852.104" y1="373.7125" y2="373.7125"/><ellipse cx="680.904" cy="379.0406" fill="#84BE84" rx="1.2" ry="1.2" style="stroke:#038048;stroke-width:0.4000000000000001;"/><text fill="#000000" font-family="sans-serif" font-size="5.6" lengthAdjust="spacing" textLength="107.2" x="684.504" y="380.382">IrrigationController getIrrigationController()</text><ellipse cx="680.904" cy="385.2969" fill="#84BE84" rx="1.2" ry="1.2" style="stroke:#038048;stroke-width:0.4000000000000001;"/><text fill="#000000" font-family="sans-serif" font-size="5.6" lengthAdjust="spacing" textLength="165.6" x="684.504" y="386.6383">void setIrrigationController(IrrigationController irrigationController)</text><ellipse cx="680.904" cy="391.5531" fill="#84BE84" rx="1.2" ry="1.2" style="stroke:#038048;stroke-width:0.4000000000000001;"/><text fill="#000000" font-family="sans-serif" font-size="5.6" lengthAdjust="spacing" textLength="160.8" x="684.504" y="392.8945">void setIrrigationCalendar(IrrigationCalendar irrigationCalendar)</text></g><!--MD5=[fddf4802280d5aa4b2920135fbc8d22e]
class IrrigationCalendar--><g id="elem_IrrigationCalendar"><rect codeLine="57" fill="#F1F1F1" height="31.7125" id="IrrigationCalendar" rx="1" ry="1" style="stroke:#181818;stroke-width:0.20000000000000004;" width="208" x="446.104" y="262.6"/><ellipse cx="525.804" cy="269" fill="#ADD1B2" rx="4.4" ry="4.4" style="stroke:#181818;stroke-width:0.4000000000000001;"/><path d="M526.9103,267.35 Q526.9728,267.2625 527.0478,267.2188 Q527.1228,267.175 527.2103,267.175 Q527.3603,267.175 527.454,267.2813 Q527.5478,267.3813 527.5478,267.625 L527.5478,268.2063 Q527.5478,268.45 527.454,268.5563 Q527.3603,268.6625 527.2103,268.6625 Q527.0728,268.6625 526.9915,268.5813 Q526.9103,268.5063 526.8665,268.3 Q526.8478,268.1563 526.7728,268.0813 Q526.6415,267.9313 526.3978,267.8438 Q526.154,267.7563 525.904,267.7563 Q525.5978,267.7563 525.3415,267.8875 Q525.0915,268.0188 524.8915,268.3188 Q524.6978,268.6188 524.6978,269.0313 L524.6978,269.4688 Q524.6978,269.9625 525.054,270.2938 Q525.4103,270.6188 526.0478,270.6188 Q526.4228,270.6188 526.6853,270.5188 Q526.8415,270.4563 527.0103,270.2813 Q527.1165,270.175 527.1728,270.1438 Q527.2353,270.1125 527.3165,270.1125 Q527.4478,270.1125 527.5478,270.2188 Q527.654,270.3188 527.654,270.4563 Q527.654,270.5938 527.5165,270.7563 Q527.3165,270.9875 526.9978,271.1188 Q526.5665,271.3 526.0478,271.3 Q525.4415,271.3 524.9603,271.05 Q524.5665,270.85 524.2915,270.425 Q524.0165,269.9938 524.0165,269.4813 L524.0165,269.0188 Q524.0165,268.4875 524.2603,268.0313 Q524.5103,267.5688 524.9478,267.325 Q525.3853,267.075 525.879,267.075 Q526.1728,267.075 526.429,267.1438 Q526.6915,267.2063 526.9103,267.35 Z " fill="#000000"/><text fill="#000000" font-family="sans-serif" font-size="5.6" lengthAdjust="spacing" textLength="45.2" x="534.004" y="270.9414">IrrigationCalendar</text><line style="stroke:#181818;stroke-width:0.20000000000000004;" x1="446.504" x2="653.704" y1="275.4" y2="275.4"/><ellipse cx="450.504" cy="280.7281" fill="none" rx="1.2" ry="1.2" style="stroke:#038048;stroke-width:0.4000000000000001;"/><text fill="#000000" font-family="sans-serif" font-size="5.6" lengthAdjust="spacing" textLength="164" x="454.104" y="282.0695">TreeMap&lt;Date, LinkedList&lt;Pair&lt;Plot, Hour&gt;&gt;&gt; daysIrrigationMap</text><line style="stroke:#181818;stroke-width:0.20000000000000004;" x1="446.504" x2="653.704" y1="284.8563" y2="284.8563"/><ellipse cx="450.504" cy="290.1844" fill="#84BE84" rx="1.2" ry="1.2" style="stroke:#038048;stroke-width:0.4000000000000001;"/><text fill="#000000" font-family="sans-serif" font-size="5.6" lengthAdjust="spacing" textLength="197.6" x="454.104" y="291.5258">TreeMap&lt;java.util.Date, LinkedList&lt;Pair&lt;Plot, Hour&gt;&gt;&gt; getDaysIrrigationMap()</text></g><!--MD5=[8421d82e8f67844c6a7e68fdc431db9f]
class IrrigationController--><g id="elem_IrrigationController"><rect codeLine="62" fill="#F1F1F1" height="56.7375" id="IrrigationController" rx="1" ry="1" style="stroke:#181818;stroke-width:0.20000000000000004;" width="230.4" x="42.904" y="250"/><ellipse cx="133.004" cy="256.4" fill="#ADD1B2" rx="4.4" ry="4.4" style="stroke:#181818;stroke-width:0.4000000000000001;"/><path d="M134.1103,254.75 Q134.1728,254.6625 134.2478,254.6188 Q134.3228,254.575 134.4103,254.575 Q134.5603,254.575 134.654,254.6813 Q134.7478,254.7813 134.7478,255.025 L134.7478,255.6063 Q134.7478,255.85 134.654,255.9563 Q134.5603,256.0625 134.4103,256.0625 Q134.2728,256.0625 134.1915,255.9813 Q134.1103,255.9063 134.0665,255.7 Q134.0478,255.5563 133.9728,255.4813 Q133.8415,255.3313 133.5978,255.2438 Q133.354,255.1563 133.104,255.1563 Q132.7978,255.1563 132.5415,255.2875 Q132.2915,255.4188 132.0915,255.7188 Q131.8978,256.0188 131.8978,256.4313 L131.8978,256.8688 Q131.8978,257.3625 132.254,257.6938 Q132.6103,258.0188 133.2478,258.0188 Q133.6228,258.0188 133.8853,257.9188 Q134.0415,257.8563 134.2103,257.6813 Q134.3165,257.575 134.3728,257.5438 Q134.4353,257.5125 134.5165,257.5125 Q134.6478,257.5125 134.7478,257.6188 Q134.854,257.7188 134.854,257.8563 Q134.854,257.9938 134.7165,258.1563 Q134.5165,258.3875 134.1978,258.5188 Q133.7665,258.7 133.2478,258.7 Q132.6415,258.7 132.1603,258.45 Q131.7665,258.25 131.4915,257.825 Q131.2165,257.3938 131.2165,256.8813 L131.2165,256.4188 Q131.2165,255.8875 131.4603,255.4313 Q131.7103,254.9688 132.1478,254.725 Q132.5853,254.475 133.079,254.475 Q133.3728,254.475 133.629,254.5438 Q133.8915,254.6063 134.1103,254.75 Z " fill="#000000"/><text fill="#000000" font-family="sans-serif" font-size="5.6" lengthAdjust="spacing" textLength="46.8" x="141.204" y="258.3414">IrrigationController</text><line style="stroke:#181818;stroke-width:0.20000000000000004;" x1="43.304" x2="272.904" y1="262.8" y2="262.8"/><rect fill="none" height="2.4" style="stroke:#C82930;stroke-width:0.4000000000000001;" width="2.4" x="46.104" y="266.9281"/><text fill="#000000" font-family="sans-serif" font-size="5.6" lengthAdjust="spacing" textLength="79.2" x="50.904" y="269.4695">ArrayList&lt;Hour&gt; irrigationHours</text><rect fill="none" height="2.4" style="stroke:#C82930;stroke-width:0.4000000000000001;" width="2.4" x="46.104" y="273.1844"/><text fill="#000000" font-family="sans-serif" font-size="5.6" lengthAdjust="spacing" textLength="146.4" x="50.904" y="275.7258">HashMap&lt;Plot, Pair&lt;Integer, String&gt;&gt; irrigationValuesMap</text><line style="stroke:#181818;stroke-width:0.20000000000000004;" x1="43.304" x2="272.904" y1="278.5125" y2="278.5125"/><ellipse cx="47.304" cy="283.8406" fill="#84BE84" rx="1.2" ry="1.2" style="stroke:#038048;stroke-width:0.4000000000000001;"/><text fill="#000000" font-family="sans-serif" font-size="5.6" lengthAdjust="spacing" textLength="91.2" x="50.904" y="285.182">ArrayList&lt;Hour&gt; getIrrigationHours()</text><ellipse cx="47.304" cy="290.0969" fill="#84BE84" rx="1.2" ry="1.2" style="stroke:#038048;stroke-width:0.4000000000000001;"/><text fill="#000000" font-family="sans-serif" font-size="5.6" lengthAdjust="spacing" textLength="158.4" x="50.904" y="291.4383">HashMap&lt;Plot, Pair&lt;Integer, String&gt;&gt; getIrrigationValuesMap()</text><ellipse cx="47.304" cy="296.3531" fill="#84BE84" rx="1.2" ry="1.2" style="stroke:#038048;stroke-width:0.4000000000000001;"/><text fill="#000000" font-family="sans-serif" font-size="5.6" lengthAdjust="spacing" textLength="139.6" x="50.904" y="297.6945">void setIrrigationHours(ArrayList&lt;Hour&gt; irrigationHours)</text><ellipse cx="47.304" cy="302.6094" fill="#84BE84" rx="1.2" ry="1.2" style="stroke:#038048;stroke-width:0.4000000000000001;"/><text fill="#000000" font-family="sans-serif" font-size="5.6" lengthAdjust="spacing" textLength="220" x="50.904" y="303.9508">void setIrrigationValuesMap(HashMap&lt;Plot, Pair&lt;Integer, String&gt;&gt; irrigationValuesMap)</text></g><!--MD5=[86c7c362de55a38b660185a1328fe18d]
class Organization--><g id="elem_Organization"><rect codeLine="70" fill="#F1F1F1" height="44.225" id="Organization" rx="1" ry="1" style="stroke:#181818;stroke-width:0.20000000000000004;" width="144.8" x="287.304" y="256.2"/><ellipse cx="342.004" cy="262.6" fill="#ADD1B2" rx="4.4" ry="4.4" style="stroke:#181818;stroke-width:0.4000000000000001;"/><path d="M343.1103,260.95 Q343.1728,260.8625 343.2478,260.8188 Q343.3228,260.775 343.4103,260.775 Q343.5603,260.775 343.654,260.8813 Q343.7478,260.9813 343.7478,261.225 L343.7478,261.8063 Q343.7478,262.05 343.654,262.1563 Q343.5603,262.2625 343.4103,262.2625 Q343.2728,262.2625 343.1915,262.1813 Q343.1103,262.1063 343.0665,261.9 Q343.0478,261.7563 342.9728,261.6813 Q342.8415,261.5313 342.5978,261.4438 Q342.354,261.3563 342.104,261.3563 Q341.7978,261.3563 341.5415,261.4875 Q341.2915,261.6188 341.0915,261.9188 Q340.8978,262.2188 340.8978,262.6313 L340.8978,263.0688 Q340.8978,263.5625 341.254,263.8938 Q341.6103,264.2188 342.2478,264.2188 Q342.6228,264.2188 342.8853,264.1188 Q343.0415,264.0563 343.2103,263.8813 Q343.3165,263.775 343.3728,263.7438 Q343.4353,263.7125 343.5165,263.7125 Q343.6478,263.7125 343.7478,263.8188 Q343.854,263.9188 343.854,264.0563 Q343.854,264.1938 343.7165,264.3563 Q343.5165,264.5875 343.1978,264.7188 Q342.7665,264.9 342.2478,264.9 Q341.6415,264.9 341.1603,264.65 Q340.7665,264.45 340.4915,264.025 Q340.2165,263.5938 340.2165,263.0813 L340.2165,262.6188 Q340.2165,262.0875 340.4603,261.6313 Q340.7103,261.1688 341.1478,260.925 Q341.5853,260.675 342.079,260.675 Q342.3728,260.675 342.629,260.7438 Q342.8915,260.8063 343.1103,260.95 Z " fill="#000000"/><text fill="#000000" font-family="sans-serif" font-size="5.6" lengthAdjust="spacing" textLength="32" x="350.204" y="264.5414">Organization</text><line style="stroke:#181818;stroke-width:0.20000000000000004;" x1="287.704" x2="431.704" y1="269" y2="269"/><rect fill="none" height="2.4" style="stroke:#C82930;stroke-width:0.4000000000000001;" width="2.4" x="290.504" y="273.1281"/><text fill="#000000" font-family="sans-serif" font-size="5.6" lengthAdjust="spacing" textLength="56.4" x="295.304" y="275.6695">EntityStore entityStore</text><rect fill="none" height="2.4" style="stroke:#C82930;stroke-width:0.4000000000000001;" width="2.4" x="290.504" y="279.3844"/><text fill="#000000" font-family="sans-serif" font-size="5.6" lengthAdjust="spacing" textLength="122.4" x="295.304" y="281.9258">IrrigationControllerStore irrigationControllerStore</text><line style="stroke:#181818;stroke-width:0.20000000000000004;" x1="287.704" x2="431.704" y1="284.7125" y2="284.7125"/><ellipse cx="291.704" cy="290.0406" fill="#84BE84" rx="1.2" ry="1.2" style="stroke:#038048;stroke-width:0.4000000000000001;"/><text fill="#000000" font-family="sans-serif" font-size="5.6" lengthAdjust="spacing" textLength="68.8" x="295.304" y="291.382">EntityStore getEntityStore()</text><ellipse cx="291.704" cy="296.2969" fill="#84BE84" rx="1.2" ry="1.2" style="stroke:#038048;stroke-width:0.4000000000000001;"/><text fill="#000000" font-family="sans-serif" font-size="5.6" lengthAdjust="spacing" textLength="134.4" x="295.304" y="297.6383">IrrigationControllerStore getIrrigationControllerStore()</text></g><!--MD5=[7d314000a6882a2080647ba4c83ed0ae]
class Plot--><g id="elem_Plot"><rect codeLine="76" fill="#F1F1F1" height="37.9688" id="Plot" rx="1" ry="1" style="stroke:#181818;stroke-width:0.20000000000000004;" width="56" x="522.104" y="351.4"/><ellipse cx="543.604" cy="357.8" fill="#ADD1B2" rx="4.4" ry="4.4" style="stroke:#181818;stroke-width:0.4000000000000001;"/><path d="M544.7103,356.15 Q544.7728,356.0625 544.8478,356.0188 Q544.9228,355.975 545.0103,355.975 Q545.1603,355.975 545.254,356.0813 Q545.3478,356.1813 545.3478,356.425 L545.3478,357.0063 Q545.3478,357.25 545.254,357.3563 Q545.1603,357.4625 545.0103,357.4625 Q544.8728,357.4625 544.7915,357.3813 Q544.7103,357.3063 544.6665,357.1 Q544.6478,356.9563 544.5728,356.8813 Q544.4415,356.7313 544.1978,356.6438 Q543.954,356.5563 543.704,356.5563 Q543.3978,356.5563 543.1415,356.6875 Q542.8915,356.8188 542.6915,357.1188 Q542.4978,357.4188 542.4978,357.8313 L542.4978,358.2688 Q542.4978,358.7625 542.854,359.0938 Q543.2103,359.4188 543.8478,359.4188 Q544.2228,359.4188 544.4853,359.3188 Q544.6415,359.2563 544.8103,359.0813 Q544.9165,358.975 544.9728,358.9438 Q545.0353,358.9125 545.1165,358.9125 Q545.2478,358.9125 545.3478,359.0188 Q545.454,359.1188 545.454,359.2563 Q545.454,359.3938 545.3165,359.5563 Q545.1165,359.7875 544.7978,359.9188 Q544.3665,360.1 543.8478,360.1 Q543.2415,360.1 542.7603,359.85 Q542.3665,359.65 542.0915,359.225 Q541.8165,358.7938 541.8165,358.2813 L541.8165,357.8188 Q541.8165,357.2875 542.0603,356.8313 Q542.3103,356.3688 542.7478,356.125 Q543.1853,355.875 543.679,355.875 Q543.9728,355.875 544.229,355.9438 Q544.4915,356.0063 544.7103,356.15 Z " fill="#000000"/><text fill="#000000" font-family="sans-serif" font-size="5.6" lengthAdjust="spacing" textLength="9.6" x="551.804" y="359.7414">Plot</text><line style="stroke:#181818;stroke-width:0.20000000000000004;" x1="522.504" x2="577.704" y1="364.2" y2="364.2"/><ellipse cx="526.504" cy="369.5281" fill="none" rx="1.2" ry="1.2" style="stroke:#038048;stroke-width:0.4000000000000001;"/><text fill="#000000" font-family="sans-serif" font-size="5.6" lengthAdjust="spacing" textLength="45.6" x="530.104" y="370.8695">String designation</text><ellipse cx="526.504" cy="375.7844" fill="none" rx="1.2" ry="1.2" style="stroke:#038048;stroke-width:0.4000000000000001;"/><text fill="#000000" font-family="sans-serif" font-size="5.6" lengthAdjust="spacing" textLength="19.2" x="530.104" y="377.1258">int area</text><ellipse cx="526.504" cy="382.0406" fill="none" rx="1.2" ry="1.2" style="stroke:#038048;stroke-width:0.4000000000000001;"/><text fill="#000000" font-family="sans-serif" font-size="5.6" lengthAdjust="spacing" textLength="33.6" x="530.104" y="383.382">String culture</text><line style="stroke:#181818;stroke-width:0.20000000000000004;" x1="522.504" x2="577.704" y1="386.1688" y2="386.1688"/></g><!--MD5=[220f5f32351d35cc72380e3951491ed2]
class Pair--><g id="elem_Pair"><rect codeLine="88" fill="#F1F1F1" height="44.225" id="Pair" rx="1" ry="1" style="stroke:#181818;stroke-width:0.20000000000000004;" width="46.8" x="1049.104" y="348.2"/><ellipse cx="1065.904" cy="354.6" fill="#ADD1B2" rx="4.4" ry="4.4" style="stroke:#181818;stroke-width:0.4000000000000001;"/><path d="M1067.0103,352.95 Q1067.0728,352.8625 1067.1478,352.8188 Q1067.2228,352.775 1067.3103,352.775 Q1067.4603,352.775 1067.554,352.8813 Q1067.6478,352.9813 1067.6478,353.225 L1067.6478,353.8063 Q1067.6478,354.05 1067.554,354.1563 Q1067.4603,354.2625 1067.3103,354.2625 Q1067.1728,354.2625 1067.0915,354.1813 Q1067.0103,354.1063 1066.9665,353.9 Q1066.9478,353.7563 1066.8728,353.6813 Q1066.7415,353.5313 1066.4978,353.4438 Q1066.254,353.3563 1066.004,353.3563 Q1065.6978,353.3563 1065.4415,353.4875 Q1065.1915,353.6188 1064.9915,353.9188 Q1064.7978,354.2188 1064.7978,354.6313 L1064.7978,355.0688 Q1064.7978,355.5625 1065.154,355.8938 Q1065.5103,356.2188 1066.1478,356.2188 Q1066.5228,356.2188 1066.7853,356.1188 Q1066.9415,356.0563 1067.1103,355.8813 Q1067.2165,355.775 1067.2728,355.7438 Q1067.3353,355.7125 1067.4165,355.7125 Q1067.5478,355.7125 1067.6478,355.8188 Q1067.754,355.9188 1067.754,356.0563 Q1067.754,356.1938 1067.6165,356.3563 Q1067.4165,356.5875 1067.0978,356.7188 Q1066.6665,356.9 1066.1478,356.9 Q1065.5415,356.9 1065.0603,356.65 Q1064.6665,356.45 1064.3915,356.025 Q1064.1165,355.5938 1064.1165,355.0813 L1064.1165,354.6188 Q1064.1165,354.0875 1064.3603,353.6313 Q1064.6103,353.1688 1065.0478,352.925 Q1065.4853,352.675 1065.979,352.675 Q1066.2728,352.675 1066.529,352.7438 Q1066.7915,352.8063 1067.0103,352.95 Z " fill="#000000"/><text fill="#000000" font-family="sans-serif" font-size="5.6" lengthAdjust="spacing" textLength="10" x="1073.904" y="356.5414">Pair</text><line style="stroke:#181818;stroke-width:0.20000000000000004;" x1="1049.504" x2="1095.504" y1="361" y2="361"/><rect fill="none" height="2.4" style="stroke:#C82930;stroke-width:0.4000000000000001;" width="2.4" x="1052.304" y="365.1281"/><text fill="#000000" font-family="sans-serif" font-size="5.6" lengthAdjust="spacing" textLength="14.4" x="1057.104" y="367.6695">F first</text><rect fill="none" height="2.4" style="stroke:#C82930;stroke-width:0.4000000000000001;" width="2.4" x="1052.304" y="371.3844"/><text fill="#000000" font-family="sans-serif" font-size="5.6" lengthAdjust="spacing" textLength="23.6" x="1057.104" y="373.9258">S second</text><line style="stroke:#181818;stroke-width:0.20000000000000004;" x1="1049.504" x2="1095.504" y1="376.7125" y2="376.7125"/><ellipse cx="1053.504" cy="382.0406" fill="#84BE84" rx="1.2" ry="1.2" style="stroke:#038048;stroke-width:0.4000000000000001;"/><text fill="#000000" font-family="sans-serif" font-size="5.6" lengthAdjust="spacing" textLength="28.4" x="1057.104" y="383.382">F getFirst()</text><ellipse cx="1053.504" cy="388.2969" fill="#84BE84" rx="1.2" ry="1.2" style="stroke:#038048;stroke-width:0.4000000000000001;"/><text fill="#000000" font-family="sans-serif" font-size="5.6" lengthAdjust="spacing" textLength="36.4" x="1057.104" y="389.6383">S getSecond()</text></g><!--MD5=[07f9ab048ff6ac593b30ecc873c3e795]
class Hour--><g id="elem_Hour"><rect codeLine="96" fill="#F1F1F1" height="37.9688" id="Hour" rx="1" ry="1" style="stroke:#181818;stroke-width:0.20000000000000004;" width="39.2" x="884.504" y="351.4"/><ellipse cx="896.984" cy="357.8" fill="#ADD1B2" rx="4.4" ry="4.4" style="stroke:#181818;stroke-width:0.4000000000000001;"/><path d="M898.0903,356.15 Q898.1528,356.0625 898.2278,356.0188 Q898.3028,355.975 898.3903,355.975 Q898.5403,355.975 898.634,356.0813 Q898.7278,356.1813 898.7278,356.425 L898.7278,357.0063 Q898.7278,357.25 898.634,357.3563 Q898.5403,357.4625 898.3903,357.4625 Q898.2528,357.4625 898.1715,357.3813 Q898.0903,357.3063 898.0465,357.1 Q898.0278,356.9563 897.9528,356.8813 Q897.8215,356.7313 897.5778,356.6438 Q897.334,356.5563 897.084,356.5563 Q896.7778,356.5563 896.5215,356.6875 Q896.2715,356.8188 896.0715,357.1188 Q895.8778,357.4188 895.8778,357.8313 L895.8778,358.2688 Q895.8778,358.7625 896.234,359.0938 Q896.5903,359.4188 897.2278,359.4188 Q897.6028,359.4188 897.8653,359.3188 Q898.0215,359.2563 898.1903,359.0813 Q898.2965,358.975 898.3528,358.9438 Q898.4153,358.9125 898.4965,358.9125 Q898.6278,358.9125 898.7278,359.0188 Q898.834,359.1188 898.834,359.2563 Q898.834,359.3938 898.6965,359.5563 Q898.4965,359.7875 898.1778,359.9188 Q897.7465,360.1 897.2278,360.1 Q896.6215,360.1 896.1403,359.85 Q895.7465,359.65 895.4715,359.225 Q895.1965,358.7938 895.1965,358.2813 L895.1965,357.8188 Q895.1965,357.2875 895.4403,356.8313 Q895.6903,356.3688 896.1278,356.125 Q896.5653,355.875 897.059,355.875 Q897.3528,355.875 897.609,355.9438 Q897.8715,356.0063 898.0903,356.15 Z " fill="#000000"/><text fill="#000000" font-family="sans-serif" font-size="5.6" lengthAdjust="spacing" textLength="12" x="904.024" y="359.7414">Hour</text><line style="stroke:#181818;stroke-width:0.20000000000000004;" x1="884.904" x2="923.304" y1="364.2" y2="364.2"/><rect fill="none" height="2.4" style="stroke:#C82930;stroke-width:0.4000000000000001;" width="2.4" x="887.704" y="368.3281"/><text fill="#000000" font-family="sans-serif" font-size="5.6" lengthAdjust="spacing" textLength="22" x="892.504" y="370.8695">int hours</text><rect fill="none" height="2.4" style="stroke:#C82930;stroke-width:0.4000000000000001;" width="2.4" x="887.704" y="374.5844"/><text fill="#000000" font-family="sans-serif" font-size="5.6" lengthAdjust="spacing" textLength="27.2" x="892.504" y="377.1258">int minutes</text><rect fill="none" height="2.4" style="stroke:#C82930;stroke-width:0.4000000000000001;" width="2.4" x="887.704" y="380.8406"/><text fill="#000000" font-family="sans-serif" font-size="5.6" lengthAdjust="spacing" textLength="28.8" x="892.504" y="383.382">int seconds</text><line style="stroke:#181818;stroke-width:0.20000000000000004;" x1="884.904" x2="923.304" y1="386.1688" y2="386.1688"/></g><!--MD5=[7829b64950ce38e0487c4015ea331f97]
class Date--><g id="elem_Date"><rect codeLine="102" fill="#F1F1F1" height="44.225" id="Date" rx="1" ry="1" style="stroke:#181818;stroke-width:0.20000000000000004;" width="97.2" x="937.904" y="348.2"/><ellipse cx="978.804" cy="354.6" fill="#ADD1B2" rx="4.4" ry="4.4" style="stroke:#181818;stroke-width:0.4000000000000001;"/><path d="M979.9103,352.95 Q979.9728,352.8625 980.0478,352.8188 Q980.1228,352.775 980.2103,352.775 Q980.3603,352.775 980.454,352.8813 Q980.5478,352.9813 980.5478,353.225 L980.5478,353.8063 Q980.5478,354.05 980.454,354.1563 Q980.3603,354.2625 980.2103,354.2625 Q980.0728,354.2625 979.9915,354.1813 Q979.9103,354.1063 979.8665,353.9 Q979.8478,353.7563 979.7728,353.6813 Q979.6415,353.5313 979.3978,353.4438 Q979.154,353.3563 978.904,353.3563 Q978.5978,353.3563 978.3415,353.4875 Q978.0915,353.6188 977.8915,353.9188 Q977.6978,354.2188 977.6978,354.6313 L977.6978,355.0688 Q977.6978,355.5625 978.054,355.8938 Q978.4103,356.2188 979.0478,356.2188 Q979.4228,356.2188 979.6853,356.1188 Q979.8415,356.0563 980.0103,355.8813 Q980.1165,355.775 980.1728,355.7438 Q980.2353,355.7125 980.3165,355.7125 Q980.4478,355.7125 980.5478,355.8188 Q980.654,355.9188 980.654,356.0563 Q980.654,356.1938 980.5165,356.3563 Q980.3165,356.5875 979.9978,356.7188 Q979.5665,356.9 979.0478,356.9 Q978.4415,356.9 977.9603,356.65 Q977.5665,356.45 977.2915,356.025 Q977.0165,355.5938 977.0165,355.0813 L977.0165,354.6188 Q977.0165,354.0875 977.2603,353.6313 Q977.5103,353.1688 977.9478,352.925 Q978.3853,352.675 978.879,352.675 Q979.1728,352.675 979.429,352.7438 Q979.6915,352.8063 979.9103,352.95 Z " fill="#000000"/><text fill="#000000" font-family="sans-serif" font-size="5.6" lengthAdjust="spacing" textLength="12" x="987.004" y="356.5414">Date</text><line style="stroke:#181818;stroke-width:0.20000000000000004;" x1="938.304" x2="1034.704" y1="361" y2="361"/><rect fill="none" height="2.4" style="stroke:#C82930;stroke-width:0.4000000000000001;" width="2.4" x="941.104" y="365.1281"/><text fill="#000000" font-family="sans-serif" font-size="5.6" lengthAdjust="spacing" textLength="16.8" x="945.904" y="367.6695">int day</text><rect fill="none" height="2.4" style="stroke:#C82930;stroke-width:0.4000000000000001;" width="2.4" x="941.104" y="371.3844"/><text fill="#000000" font-family="sans-serif" font-size="5.6" lengthAdjust="spacing" textLength="23.2" x="945.904" y="373.9258">int month</text><rect fill="none" height="2.4" style="stroke:#C82930;stroke-width:0.4000000000000001;" width="2.4" x="941.104" y="377.6406"/><text fill="#000000" font-family="sans-serif" font-size="5.6" lengthAdjust="spacing" textLength="18.8" x="945.904" y="380.182">int year</text><rect fill="none" height="2.4" style="stroke:#C82930;stroke-width:0.4000000000000001;" width="2.4" x="941.104" y="383.8969"/><text fill="#000000" font-family="sans-serif" font-size="5.6" lengthAdjust="spacing" textLength="86.8" x="945.904" y="386.4383">HashMap&lt;Integer,Integer&gt; months</text><line style="stroke:#181818;stroke-width:0.20000000000000004;" x1="938.304" x2="1034.704" y1="389.225" y2="389.225"/></g><!--MD5=[2e15f2d6eba92ba3a1f3e6445b40b686]
link IrrigationUi to IrrigationCheckerUi--><g id="link_IrrigationUi_IrrigationCheckerUi"><path codeLine="112" d="M429.704,47.696 C429.704,54.492 429.704,62.568 429.704,69.868 " fill="none" id="IrrigationUi-to-IrrigationCheckerUi" style="stroke:#181818;stroke-width:0.4000000000000001;"/><polygon fill="#181818" points="429.704,71.908,431.304,68.308,429.704,69.908,428.104,68.308,429.704,71.908" style="stroke:#181818;stroke-width:0.4000000000000001;"/></g><!--MD5=[757a2234b3b1a9f59dd615883226d673]
link IrrigationUi to IrrigationCalendarUi--><g id="link_IrrigationUi_IrrigationCalendarUi"><path codeLine="113" d="M449.584,41.844 C469.532,51.516 500.4,66.492 522.668,77.292 " fill="none" id="IrrigationUi-to-IrrigationCalendarUi" style="stroke:#181818;stroke-width:0.4000000000000001;"/><polygon fill="#181818" points="524.528,78.192,521.9888,75.1799,522.729,77.3182,520.5907,78.0584,524.528,78.192" style="stroke:#181818;stroke-width:0.4000000000000001;"/></g><!--MD5=[898c92cd0a7b63488c02102d59a77614]
link IrrigationUi to ImportIrrigationDataUi--><g id="link_IrrigationUi_ImportIrrigationDataUi"><path codeLine="114" d="M409.832,40.26 C390.204,48.22 359.44,60.696 333.448,71.236 " fill="none" id="IrrigationUi-to-ImportIrrigationDataUi" style="stroke:#181818;stroke-width:0.4000000000000001;"/><polygon fill="#181818" points="331.584,71.992,335.5215,72.1197,333.437,71.2394,334.3173,69.1549,331.584,71.992" style="stroke:#181818;stroke-width:0.4000000000000001;"/></g><!--MD5=[1c30f424d760f49940b48bdd4a07ae84]
link IrrigationCheckerUi to IrrigationCheckerController--><g id="link_IrrigationCheckerUi_IrrigationCheckerController"><path codeLine="115" d="M431.292,110.008 C432.076,119.248 433.048,130.644 433.94,141.084 " fill="none" id="IrrigationCheckerUi-to-IrrigationCheckerController" style="stroke:#181818;stroke-width:0.4000000000000001;"/><polygon fill="#181818" points="434.116,143.16,435.4124,139.4399,433.9504,141.1669,432.2234,139.7049,434.116,143.16" style="stroke:#181818;stroke-width:0.4000000000000001;"/></g><!--MD5=[a05201eae6ea97d8c250411d6641ec59]
link IrrigationCalendarUi to IrrigationCalendar--><g id="link_IrrigationCalendarUi_IrrigationCalendar"><path codeLine="116" d="M550.104,103.932 C550.104,136.372 550.104,223.16 550.104,260.508 " fill="none" id="IrrigationCalendarUi-to-IrrigationCalendar" style="stroke:#181818;stroke-width:0.4000000000000001;"/><polygon fill="#181818" points="550.104,262.572,551.704,258.972,550.104,260.572,548.504,258.972,550.104,262.572" style="stroke:#181818;stroke-width:0.4000000000000001;"/></g><!--MD5=[160913b9a92c5fe97aa842594669e928]
link ImportIrrigationDataUi to ImportIrrigationDataController--><g id="link_ImportIrrigationDataUi_ImportIrrigationDataController"><path codeLine="117" d="M283.28,110.008 C282.076,119.248 280.588,130.644 279.228,141.084 " fill="none" id="ImportIrrigationDataUi-to-ImportIrrigationDataController" style="stroke:#181818;stroke-width:0.4000000000000001;"/><polygon fill="#181818" points="278.96,143.16,281.0192,139.8015,279.2228,141.1773,277.847,139.381,278.96,143.16" style="stroke:#181818;stroke-width:0.4000000000000001;"/></g><!--MD5=[148255f9a85a961a3ace292e1a740bd1]
link ImportIrrigationDataController to IrrigationControllerStore--><g id="link_ImportIrrigationDataController_IrrigationControllerStore"><path codeLine="118" d="M208.844,175.104 C145.96,179.6 58.068,190.456 36.504,216.4 C5.596,253.588 2.4,290.92 36.504,325.2 C39.56,328.272 656.252,327.568 660.504,328.4 C677.608,331.74 695.48,337.836 711.484,344.356 " fill="none" id="ImportIrrigationDataController-to-IrrigationControllerStore" style="stroke:#181818;stroke-width:0.4000000000000001;"/><polygon fill="#181818" points="713.428,345.152,710.7053,342.3048,711.5778,344.3925,709.4901,345.2651,713.428,345.152" style="stroke:#181818;stroke-width:0.4000000000000001;"/></g><!--MD5=[7938ba6065c3e56258d19f23b14abfbb]
link ImportIrrigationDataController to IrrigationCalendar--><g id="link_ImportIrrigationDataController_IrrigationCalendar"><path codeLine="119" d="M323.488,200.004 C331.748,203.804 340.408,207.216 348.904,209.6 C387.696,220.492 400.708,204.832 439.304,216.4 C472.024,226.208 505.796,246.768 527.32,261.432 " fill="none" id="ImportIrrigationDataController-to-IrrigationCalendar" style="stroke:#181818;stroke-width:0.4000000000000001;"/><polygon fill="#181818" points="528.976,262.568,526.9105,259.2134,527.3261,261.4376,525.1018,261.8532,528.976,262.568" style="stroke:#181818;stroke-width:0.4000000000000001;"/></g><!--MD5=[ee3ce70cd309acb934ba3ec7206b5c77]
link IrrigationCalendar to Date--><g id="link_IrrigationCalendar_Date"><path codeLine="120" d="M654.132,286.392 C749.232,294.408 882.244,308.628 930.904,328.4 C941.736,332.8 952.336,339.836 961.332,346.88 " fill="none" id="IrrigationCalendar-to-Date" style="stroke:#181818;stroke-width:0.4000000000000001;"/><polygon fill="#181818" points="962.992,348.192,961.1632,344.7027,961.4241,346.9503,959.1765,347.2112,962.992,348.192" style="stroke:#181818;stroke-width:0.4000000000000001;"/></g><!--MD5=[27d9c5499977f2008a52e44d3681624e]
link IrrigationCalendar to Hour--><g id="link_IrrigationCalendar_Hour"><path codeLine="121" d="M654.144,289.02 C729.284,297.612 823.516,311.236 858.904,328.4 C869.428,333.504 879.232,341.872 887,349.768 " fill="none" id="IrrigationCalendar-to-Hour" style="stroke:#181818;stroke-width:0.4000000000000001;"/><polygon fill="#181818" points="888.528,351.34,887.1659,347.6434,887.1339,349.9059,884.8714,349.8739,888.528,351.34" style="stroke:#181818;stroke-width:0.4000000000000001;"/></g><!--MD5=[428181dfeef9e7318bfdab333b2ac2c3]
link IrrigationCalendar to Plot--><g id="link_IrrigationCalendar_Plot"><path codeLine="122" d="M550.104,294.272 C550.104,309.408 550.104,332.568 550.104,349.288 " fill="none" id="IrrigationCalendar-to-Plot" style="stroke:#181818;stroke-width:0.4000000000000001;"/><polygon fill="#181818" points="550.104,351.296,551.704,347.696,550.104,349.296,548.504,347.696,550.104,351.296" style="stroke:#181818;stroke-width:0.4000000000000001;"/></g><!--MD5=[1eaef3f92da00d1cf2f462fa84cde114]
link IrrigationControllerStore to IrrigationController--><g id="link_IrrigationControllerStore_IrrigationController"><path codeLine="123" d="M711.98,345.16 C695.816,338.568 677.732,332.228 660.504,328.4 C577.936,310.052 364.248,318.672 280.504,306.8 C278.796,306.56 277.08,306.304 275.352,306.04 " fill="none" id="IrrigationControllerStore-to-IrrigationController" style="stroke:#181818;stroke-width:0.4000000000000001;"/><polygon fill="#181818" points="273.324,305.724,276.6342,307.86,275.3001,306.0324,277.1277,304.6983,273.324,305.724" style="stroke:#181818;stroke-width:0.4000000000000001;"/><polygon fill="#000000" points="638.112,321.9262,641.6107,323.42,641.8205,321.0782,638.112,321.9262" style="stroke:#000000;stroke-width:0.4000000000000001;"/><text fill="#000000" font-family="sans-serif" font-size="5.2" lengthAdjust="spacing" textLength="19.6" x="643.704" y="323.9074">contains</text></g><!--MD5=[ea5396f310629b41e25eedf7948b01be]
link Organization to IrrigationControllerStore--><g id="link_Organization_IrrigationControllerStore"><path codeLine="124" d="M415.348,300.628 C423.292,303.08 431.436,305.248 439.304,306.8 C541.472,326.952 573.264,289.88 673.304,318.8 C692.28,324.284 711.596,334.356 727.54,344.12 " fill="none" id="Organization-to-IrrigationControllerStore" style="stroke:#181818;stroke-width:0.4000000000000001;"/><polygon fill="#181818" points="729.268,345.188,727.0375,341.9407,727.5637,344.1414,725.363,344.6676,729.268,345.188" style="stroke:#181818;stroke-width:0.4000000000000001;"/><polygon fill="#000000" points="693.2849,322.3806,689.8636,320.7171,689.5392,323.0458,693.2849,322.3806" style="stroke:#000000;stroke-width:0.4000000000000001;"/><text fill="#000000" font-family="sans-serif" font-size="5.2" lengthAdjust="spacing" textLength="19.6" x="694.904" y="323.9074">contains</text></g><!--MD5=[5eecbcdebcba88c6d26f6975026916ca]
@startuml

package ui {
class ImportIrrigationDataUi{
-ImportIrrigationDataController controller
-Scanner sc
+void run()
}
class IrrigationCalendarUi{
+void run()
}
class IrrigationCheckerUi{
-IrrigationCheckerController irrigationCheckerController;
-Scanner sc
+void run()
}
class IrrigationUi{
-Scanner sc
+void run()
}
}

package Controller {
class ImportIrrigationDataController{
-IrrigationControllerStore irrigationControllerStore
+void importIrrigationController(String file)
+void fillIrrigationCalendar()
+void importEntityConnections(String file)
+void addToDay(Date date, String dayType)
+void addThirtyDays()
}
class IrrigationCheckerController{
-IrrigationControllerStore irrigationControllerStore
-private IrrigationCalendar irrigationCalendar;
+Pair<Boolean, Integer> isPlotGettingIrrigated(Plot plot)
+int getIrrigationTimeLeft(Plot plot)
+List<Pair<Plot, Integer>> irrigatedPlots()
+Pair<Boolean, Pair<Plot, Integer>> isAnyPlotGettingIrrigated
}

}


package Domain {

package Store {
class IrrigationControllerStore {
-IrrigationController irrigationController
-IrrigationCalendar irrigationCalendar
+IrrigationController getIrrigationController()
+void setIrrigationController(IrrigationController irrigationController)
+void setIrrigationCalendar(IrrigationCalendar irrigationCalendar)
}
}

package Model {

class IrrigationCalendar {
+TreeMap<Date, LinkedList<Pair<Plot, Hour>>> daysIrrigationMap
+TreeMap<java.util.Date, LinkedList<Pair<Plot, Hour>>> getDaysIrrigationMap()
}

class IrrigationController {
-ArrayList<Hour> irrigationHours
-HashMap<Plot, Pair<Integer, String>> irrigationValuesMap
+ArrayList<Hour> getIrrigationHours()
+HashMap<Plot, Pair<Integer, String>> getIrrigationValuesMap()
+void setIrrigationHours(ArrayList<Hour> irrigationHours)
+void setIrrigationValuesMap(HashMap<Plot, Pair<Integer, String>> irrigationValuesMap)
}
class Organization {
-EntityStore entityStore
-IrrigationControllerStore irrigationControllerStore
+EntityStore getEntityStore()
+IrrigationControllerStore getIrrigationControllerStore()
}
class Plot {
+String designation
+int area
+String culture
}

}

}

package Utils {

class Pair {
-F first
-S second
+F getFirst()
+S getSecond()

}

class Hour {
-int hours
-int minutes
-int seconds
}

class Date {
-int day
-int month
-int year
-HashMap<Integer,Integer> months
}

}


IrrigationUi - -> IrrigationCheckerUi
IrrigationUi - -> IrrigationCalendarUi
IrrigationUi - -> ImportIrrigationDataUi
IrrigationCheckerUi - -> IrrigationCheckerController
IrrigationCalendarUi - -> IrrigationCalendar
ImportIrrigationDataUi - -> ImportIrrigationDataController
ImportIrrigationDataController - -> IrrigationControllerStore
ImportIrrigationDataController - -> IrrigationCalendar
IrrigationCalendar - -> Date
IrrigationCalendar - -> Hour
IrrigationCalendar - -> Plot
IrrigationControllerStore -> IrrigationController : contains >
Organization - -> IrrigationControllerStore : contains >


@enduml

PlantUML version 1.2022.12(Sun Oct 23 19:12:26 WEST 2022)
(GPL source distribution)
Java Runtime: OpenJDK Runtime Environment
JVM: OpenJDK 64-Bit Server VM
Default Encoding: Cp1252
Language: en
Country: GB
--></g></svg>