<?xml version="1.0" encoding="UTF-8" standalone="no"?><svg xmlns="http://www.w3.org/2000/svg" xmlns:xlink="http://www.w3.org/1999/xlink" contentStyleType="text/css" height="644px" preserveAspectRatio="none" style="width:856px;height:644px;background:#FFFFFF;" version="1.1" viewBox="0 0 856 644" width="856px" zoomAndPan="magnify"><defs/><g><text fill="#000000" font-family="sans-serif" font-size="14" font-weight="bold" lengthAdjust="spacing" textLength="120" x="361.25" y="25.1074">Snowflake Model</text><!--MD5=[4070ca5927d9b725dd0d376aec46acd6]
class Production--><g id="elem_Production"><rect codeLine="3" fill="#F1F1F1" height="141.1055" id="Production" rx="2.5" ry="2.5" style="stroke:#181818;stroke-width:0.5;" width="100" x="749.5" y="271.6211"/><ellipse cx="764.5" cy="287.6211" fill="#5087FF" rx="11" ry="11" style="stroke:#181818;stroke-width:1.0;"/><path d="M763.9375,288.4336 L763.9375,290.918 L765.6719,290.918 Q766.2969,290.918 766.5469,291.1523 Q766.8125,291.3867 766.8125,291.7773 Q766.8125,292.1523 766.5469,292.3867 Q766.2969,292.6211 765.6719,292.6211 L761.9688,292.6211 Q761.3594,292.6211 761.0938,292.3867 Q760.8281,292.1523 760.8281,291.7617 Q760.8281,291.3867 761.0938,291.1523 Q761.3594,290.918 761.9688,290.918 L762.2344,290.918 L762.2344,284.2617 L761.9688,284.2617 Q761.3594,284.2617 761.0938,284.0273 Q760.8281,283.793 760.8281,283.4023 Q760.8281,283.0273 761.0938,282.793 Q761.3594,282.5586 761.9688,282.5586 L769.9844,282.5586 L769.9844,285.1523 Q769.9844,285.7617 769.7344,286.0273 Q769.5,286.293 769.125,286.293 Q768.75,286.293 768.5156,286.043 Q768.2813,285.7773 768.2813,285.1523 L768.2813,284.2617 L763.9375,284.2617 L763.9375,286.7305 L765.4219,286.7305 Q765.4219,286.0586 765.5469,285.8711 Q765.8125,285.4648 766.2813,285.4648 Q766.6563,285.4648 766.8906,285.7305 Q767.125,285.9961 767.125,286.6055 L767.125,288.5586 Q767.125,289.1836 766.8906,289.4492 Q766.6563,289.6992 766.2813,289.6992 Q765.8125,289.6992 765.5469,289.293 Q765.4219,289.1055 765.4219,288.4336 L763.9375,288.4336 Z " fill="#000000"/><text fill="#000000" font-family="sans-serif" font-size="14" lengthAdjust="spacing" textLength="68" x="778.5" y="293.418">Production</text><line style="stroke:#181818;stroke-width:0.5;" x1="750.5" x2="848.5" y1="303.6211" y2="303.6211"/><text fill="#000000" font-family="sans-serif" font-size="14" lengthAdjust="spacing" text-decoration="underline" textLength="11" x="755.5" y="322.7285">id</text><text fill="#000000" font-family="sans-serif" font-size="14" lengthAdjust="spacing" textLength="45" x="755.5" y="341.3496">time_id</text><text fill="#000000" font-family="sans-serif" font-size="14" lengthAdjust="spacing" textLength="58" x="755.5" y="359.9707">sector_id</text><text fill="#000000" font-family="sans-serif" font-size="14" lengthAdjust="spacing" textLength="67" x="755.5" y="378.5918">product_id</text><text fill="#000000" font-family="sans-serif" font-size="14" lengthAdjust="spacing" textLength="47" x="755.5" y="397.2129">amount</text><line style="stroke:#181818;stroke-width:0.5;" x1="750.5" x2="848.5" y1="404.7266" y2="404.7266"/></g><!--MD5=[e0bd77868626c22cfc0c5aeed1b8d67f]
class Sale--><g id="elem_Sale"><rect codeLine="11" fill="#F1F1F1" height="141.1055" id="Sale" rx="2.5" ry="2.5" style="stroke:#181818;stroke-width:0.5;" width="79" x="7" y="271.6211"/><ellipse cx="30.55" cy="287.6211" fill="#5087FF" rx="11" ry="11" style="stroke:#181818;stroke-width:1.0;"/><path d="M29.9875,288.4336 L29.9875,290.918 L31.7219,290.918 Q32.3469,290.918 32.5969,291.1523 Q32.8625,291.3867 32.8625,291.7773 Q32.8625,292.1523 32.5969,292.3867 Q32.3469,292.6211 31.7219,292.6211 L28.0188,292.6211 Q27.4094,292.6211 27.1438,292.3867 Q26.8781,292.1523 26.8781,291.7617 Q26.8781,291.3867 27.1438,291.1523 Q27.4094,290.918 28.0188,290.918 L28.2844,290.918 L28.2844,284.2617 L28.0188,284.2617 Q27.4094,284.2617 27.1438,284.0273 Q26.8781,283.793 26.8781,283.4023 Q26.8781,283.0273 27.1438,282.793 Q27.4094,282.5586 28.0188,282.5586 L36.0344,282.5586 L36.0344,285.1523 Q36.0344,285.7617 35.7844,286.0273 Q35.55,286.293 35.175,286.293 Q34.8,286.293 34.5656,286.043 Q34.3313,285.7773 34.3313,285.1523 L34.3313,284.2617 L29.9875,284.2617 L29.9875,286.7305 L31.4719,286.7305 Q31.4719,286.0586 31.5969,285.8711 Q31.8625,285.4648 32.3313,285.4648 Q32.7063,285.4648 32.9406,285.7305 Q33.175,285.9961 33.175,286.6055 L33.175,288.5586 Q33.175,289.1836 32.9406,289.4492 Q32.7063,289.6992 32.3313,289.6992 Q31.8625,289.6992 31.5969,289.293 Q31.4719,289.1055 31.4719,288.4336 L29.9875,288.4336 Z " fill="#000000"/><text fill="#000000" font-family="sans-serif" font-size="14" lengthAdjust="spacing" textLength="28" x="46.45" y="293.418">Sale</text><line style="stroke:#181818;stroke-width:0.5;" x1="8" x2="85" y1="303.6211" y2="303.6211"/><text fill="#000000" font-family="sans-serif" font-size="14" lengthAdjust="spacing" text-decoration="underline" textLength="11" x="13" y="322.7285">id</text><text fill="#000000" font-family="sans-serif" font-size="14" lengthAdjust="spacing" textLength="45" x="13" y="341.3496">time_id</text><text fill="#000000" font-family="sans-serif" font-size="14" lengthAdjust="spacing" textLength="52" x="13" y="359.9707">client_id</text><text fill="#000000" font-family="sans-serif" font-size="14" lengthAdjust="spacing" textLength="67" x="13" y="378.5918">product_id</text><text fill="#000000" font-family="sans-serif" font-size="14" lengthAdjust="spacing" textLength="50" x="13" y="397.2129">quantity</text><line style="stroke:#181818;stroke-width:0.5;" x1="8" x2="85" y1="404.7266" y2="404.7266"/></g><!--MD5=[2e42295458bb0bec21c9622a623eb29e]
class Time--><g id="elem_Time"><rect codeLine="19" fill="#F1F1F1" height="103.8633" id="Time" rx="2.5" ry="2.5" style="stroke:#181818;stroke-width:0.5;" width="63" x="477" y="46.6211"/><ellipse cx="492" cy="62.6211" fill="#FFA500" rx="11" ry="11" style="stroke:#181818;stroke-width:1.0;"/><path d="M489.5469,65.918 L489.5469,59.2617 Q489,59.2461 488.7344,59.0117 Q488.4844,58.7773 488.4844,58.4023 Q488.4844,58.0273 488.75,57.793 Q489.0156,57.5586 489.625,57.5586 L493.1875,57.5586 Q494.0156,57.5586 494.8125,57.8711 Q495.6094,58.168 496.0938,58.6523 Q496.4531,59.0117 496.8438,59.6367 Q497.2344,60.2461 497.4375,60.8711 Q497.6406,61.4805 497.6406,62.3711 L497.6406,63.1836 Q497.6406,64.2617 497.2656,65.1055 Q496.9063,65.9336 496.3125,66.4648 Q495.7188,66.9805 495.2031,67.2305 Q494.375,67.6211 493.0469,67.6211 L489.625,67.6211 Q489.0156,67.6211 488.75,67.3867 Q488.4844,67.1523 488.4844,66.7617 Q488.4844,66.3867 488.75,66.1523 Q489.0156,65.918 489.5469,65.918 Z M491.25,65.918 L493.0625,65.918 Q494.0625,65.918 494.5781,65.6211 Q495.25,65.2461 495.5938,64.668 Q495.9375,64.0742 495.9375,63.1367 L495.9375,62.3242 Q495.9375,61.5273 495.625,60.918 Q495.1406,59.9648 494.5313,59.6211 Q493.9375,59.2617 493.0469,59.2617 L491.25,59.2617 L491.25,65.918 Z " fill="#000000"/><text fill="#000000" font-family="sans-serif" font-size="14" lengthAdjust="spacing" textLength="31" x="506" y="68.418">Time</text><line style="stroke:#181818;stroke-width:0.5;" x1="478" x2="539" y1="78.6211" y2="78.6211"/><text fill="#000000" font-family="sans-serif" font-size="14" lengthAdjust="spacing" text-decoration="underline" textLength="11" x="483" y="97.7285">id</text><text fill="#000000" font-family="sans-serif" font-size="14" lengthAdjust="spacing" textLength="28" x="483" y="116.3496">year</text><text fill="#000000" font-family="sans-serif" font-size="14" lengthAdjust="spacing" textLength="39" x="483" y="134.9707">month</text><line style="stroke:#181818;stroke-width:0.5;" x1="478" x2="539" y1="142.4844" y2="142.4844"/></g><!--MD5=[4b7878ea256981c432ee8388bc9b8b8b]
class Year--><g id="elem_Year"><rect codeLine="25" fill="#F1F1F1" height="66.6211" id="Year" rx="2.5" ry="2.5" style="stroke:#181818;stroke-width:0.5;" width="62" x="575.5" y="65.1211"/><ellipse cx="590.5" cy="81.1211" fill="#FFA500" rx="11" ry="11" style="stroke:#181818;stroke-width:1.0;"/><path d="M588.0469,84.418 L588.0469,77.7617 Q587.5,77.7461 587.2344,77.5117 Q586.9844,77.2773 586.9844,76.9023 Q586.9844,76.5273 587.25,76.293 Q587.5156,76.0586 588.125,76.0586 L591.6875,76.0586 Q592.5156,76.0586 593.3125,76.3711 Q594.1094,76.668 594.5938,77.1523 Q594.9531,77.5117 595.3438,78.1367 Q595.7344,78.7461 595.9375,79.3711 Q596.1406,79.9805 596.1406,80.8711 L596.1406,81.6836 Q596.1406,82.7617 595.7656,83.6055 Q595.4063,84.4336 594.8125,84.9648 Q594.2188,85.4805 593.7031,85.7305 Q592.875,86.1211 591.5469,86.1211 L588.125,86.1211 Q587.5156,86.1211 587.25,85.8867 Q586.9844,85.6523 586.9844,85.2617 Q586.9844,84.8867 587.25,84.6523 Q587.5156,84.418 588.0469,84.418 Z M589.75,84.418 L591.5625,84.418 Q592.5625,84.418 593.0781,84.1211 Q593.75,83.7461 594.0938,83.168 Q594.4375,82.5742 594.4375,81.6367 L594.4375,80.8242 Q594.4375,80.0273 594.125,79.418 Q593.6406,78.4648 593.0313,78.1211 Q592.4375,77.7617 591.5469,77.7617 L589.75,77.7617 L589.75,84.418 Z " fill="#000000"/><text fill="#000000" font-family="sans-serif" font-size="14" lengthAdjust="spacing" textLength="30" x="604.5" y="86.918">Year</text><line style="stroke:#181818;stroke-width:0.5;" x1="576.5" x2="636.5" y1="97.1211" y2="97.1211"/><text fill="#000000" font-family="sans-serif" font-size="14" lengthAdjust="spacing" text-decoration="underline" textLength="28" x="581.5" y="116.2285">year</text><line style="stroke:#181818;stroke-width:0.5;" x1="576.5" x2="636.5" y1="123.7422" y2="123.7422"/></g><!--MD5=[1c40a9495d7098c3b845044b099123dc]
class Month--><g id="elem_Month"><rect codeLine="29" fill="#F1F1F1" height="66.6211" id="Month" rx="2.5" ry="2.5" style="stroke:#181818;stroke-width:0.5;" width="71" x="371" y="65.1211"/><ellipse cx="386" cy="81.1211" fill="#FFA500" rx="11" ry="11" style="stroke:#181818;stroke-width:1.0;"/><path d="M383.5469,84.418 L383.5469,77.7617 Q383,77.7461 382.7344,77.5117 Q382.4844,77.2773 382.4844,76.9023 Q382.4844,76.5273 382.75,76.293 Q383.0156,76.0586 383.625,76.0586 L387.1875,76.0586 Q388.0156,76.0586 388.8125,76.3711 Q389.6094,76.668 390.0938,77.1523 Q390.4531,77.5117 390.8438,78.1367 Q391.2344,78.7461 391.4375,79.3711 Q391.6406,79.9805 391.6406,80.8711 L391.6406,81.6836 Q391.6406,82.7617 391.2656,83.6055 Q390.9063,84.4336 390.3125,84.9648 Q389.7188,85.4805 389.2031,85.7305 Q388.375,86.1211 387.0469,86.1211 L383.625,86.1211 Q383.0156,86.1211 382.75,85.8867 Q382.4844,85.6523 382.4844,85.2617 Q382.4844,84.8867 382.75,84.6523 Q383.0156,84.418 383.5469,84.418 Z M385.25,84.418 L387.0625,84.418 Q388.0625,84.418 388.5781,84.1211 Q389.25,83.7461 389.5938,83.168 Q389.9375,82.5742 389.9375,81.6367 L389.9375,80.8242 Q389.9375,80.0273 389.625,79.418 Q389.1406,78.4648 388.5313,78.1211 Q387.9375,77.7617 387.0469,77.7617 L385.25,77.7617 L385.25,84.418 Z " fill="#000000"/><text fill="#000000" font-family="sans-serif" font-size="14" lengthAdjust="spacing" textLength="39" x="400" y="86.918">Month</text><line style="stroke:#181818;stroke-width:0.5;" x1="372" x2="441" y1="97.1211" y2="97.1211"/><text fill="#000000" font-family="sans-serif" font-size="14" lengthAdjust="spacing" text-decoration="underline" textLength="39" x="377" y="116.2285">month</text><line style="stroke:#181818;stroke-width:0.5;" x1="372" x2="441" y1="123.7422" y2="123.7422"/></g><!--MD5=[ed6624c6556d5e7b1bd23032162d20b7]
class Client--><g id="elem_Client"><rect codeLine="33" fill="#F1F1F1" height="122.4844" id="Client" rx="2.5" ry="2.5" style="stroke:#181818;stroke-width:0.5;" width="100" x="121.5" y="281.1211"/><ellipse cx="150.9" cy="297.1211" fill="#FFA500" rx="11" ry="11" style="stroke:#181818;stroke-width:1.0;"/><path d="M148.4469,300.418 L148.4469,293.7617 Q147.9,293.7461 147.6344,293.5117 Q147.3844,293.2773 147.3844,292.9023 Q147.3844,292.5273 147.65,292.293 Q147.9156,292.0586 148.525,292.0586 L152.0875,292.0586 Q152.9156,292.0586 153.7125,292.3711 Q154.5094,292.668 154.9938,293.1523 Q155.3531,293.5117 155.7438,294.1367 Q156.1344,294.7461 156.3375,295.3711 Q156.5406,295.9805 156.5406,296.8711 L156.5406,297.6836 Q156.5406,298.7617 156.1656,299.6055 Q155.8063,300.4336 155.2125,300.9648 Q154.6188,301.4805 154.1031,301.7305 Q153.275,302.1211 151.9469,302.1211 L148.525,302.1211 Q147.9156,302.1211 147.65,301.8867 Q147.3844,301.6523 147.3844,301.2617 Q147.3844,300.8867 147.65,300.6523 Q147.9156,300.418 148.4469,300.418 Z M150.15,300.418 L151.9625,300.418 Q152.9625,300.418 153.4781,300.1211 Q154.15,299.7461 154.4938,299.168 Q154.8375,298.5742 154.8375,297.6367 L154.8375,296.8242 Q154.8375,296.0273 154.525,295.418 Q154.0406,294.4648 153.4313,294.1211 Q152.8375,293.7617 151.9469,293.7617 L150.15,293.7617 L150.15,300.418 Z " fill="#000000"/><text fill="#000000" font-family="sans-serif" font-size="14" lengthAdjust="spacing" textLength="36" x="168.1" y="302.918">Client</text><line style="stroke:#181818;stroke-width:0.5;" x1="122.5" x2="220.5" y1="313.1211" y2="313.1211"/><text fill="#000000" font-family="sans-serif" font-size="14" lengthAdjust="spacing" text-decoration="underline" textLength="11" x="127.5" y="332.2285">id</text><text fill="#000000" font-family="sans-serif" font-size="14" lengthAdjust="spacing" textLength="88" x="127.5" y="350.8496">fiscal_number</text><text fill="#000000" font-family="sans-serif" font-size="14" lengthAdjust="spacing" textLength="33" x="127.5" y="369.4707">email</text><text fill="#000000" font-family="sans-serif" font-size="14" lengthAdjust="spacing" textLength="35" x="127.5" y="388.0918">name</text><line style="stroke:#181818;stroke-width:0.5;" x1="122.5" x2="220.5" y1="395.6055" y2="395.6055"/></g><!--MD5=[72136138052d025cffdce3c22fbd185f]
class Product--><g id="elem_Product"><rect codeLine="40" fill="#F1F1F1" height="103.8633" id="Product" rx="2.5" ry="2.5" style="stroke:#181818;stroke-width:0.5;" width="81" x="468" y="533.6211"/><ellipse cx="483" cy="549.6211" fill="#FFA500" rx="11" ry="11" style="stroke:#181818;stroke-width:1.0;"/><path d="M480.5469,552.918 L480.5469,546.2617 Q480,546.2461 479.7344,546.0117 Q479.4844,545.7773 479.4844,545.4023 Q479.4844,545.0273 479.75,544.793 Q480.0156,544.5586 480.625,544.5586 L484.1875,544.5586 Q485.0156,544.5586 485.8125,544.8711 Q486.6094,545.168 487.0938,545.6523 Q487.4531,546.0117 487.8438,546.6367 Q488.2344,547.2461 488.4375,547.8711 Q488.6406,548.4805 488.6406,549.3711 L488.6406,550.1836 Q488.6406,551.2617 488.2656,552.1055 Q487.9063,552.9336 487.3125,553.4648 Q486.7188,553.9805 486.2031,554.2305 Q485.375,554.6211 484.0469,554.6211 L480.625,554.6211 Q480.0156,554.6211 479.75,554.3867 Q479.4844,554.1523 479.4844,553.7617 Q479.4844,553.3867 479.75,553.1523 Q480.0156,552.918 480.5469,552.918 Z M482.25,552.918 L484.0625,552.918 Q485.0625,552.918 485.5781,552.6211 Q486.25,552.2461 486.5938,551.668 Q486.9375,551.0742 486.9375,550.1367 L486.9375,549.3242 Q486.9375,548.5273 486.625,547.918 Q486.1406,546.9648 485.5313,546.6211 Q484.9375,546.2617 484.0469,546.2617 L482.25,546.2617 L482.25,552.918 Z " fill="#000000"/><text fill="#000000" font-family="sans-serif" font-size="14" lengthAdjust="spacing" textLength="49" x="497" y="555.418">Product</text><line style="stroke:#181818;stroke-width:0.5;" x1="469" x2="548" y1="565.6211" y2="565.6211"/><text fill="#000000" font-family="sans-serif" font-size="14" lengthAdjust="spacing" text-decoration="underline" textLength="11" x="474" y="584.7285">id</text><text fill="#000000" font-family="sans-serif" font-size="14" lengthAdjust="spacing" textLength="27" x="474" y="603.3496">type</text><text fill="#000000" font-family="sans-serif" font-size="14" lengthAdjust="spacing" textLength="35" x="474" y="621.9707">name</text><line style="stroke:#181818;stroke-width:0.5;" x1="469" x2="548" y1="629.4844" y2="629.4844"/></g><!--MD5=[3ae62558d3d4e9a0c8c0411f167702f7]
class Culture--><g id="elem_Culture"><rect codeLine="46" fill="#F1F1F1" height="66.6211" id="Culture" rx="2.5" ry="2.5" style="stroke:#181818;stroke-width:0.5;" width="78" x="584.5" y="552.1211"/><ellipse cx="599.5" cy="568.1211" fill="#FFA500" rx="11" ry="11" style="stroke:#181818;stroke-width:1.0;"/><path d="M597.0469,571.418 L597.0469,564.7617 Q596.5,564.7461 596.2344,564.5117 Q595.9844,564.2773 595.9844,563.9023 Q595.9844,563.5273 596.25,563.293 Q596.5156,563.0586 597.125,563.0586 L600.6875,563.0586 Q601.5156,563.0586 602.3125,563.3711 Q603.1094,563.668 603.5938,564.1523 Q603.9531,564.5117 604.3438,565.1367 Q604.7344,565.7461 604.9375,566.3711 Q605.1406,566.9805 605.1406,567.8711 L605.1406,568.6836 Q605.1406,569.7617 604.7656,570.6055 Q604.4063,571.4336 603.8125,571.9648 Q603.2188,572.4805 602.7031,572.7305 Q601.875,573.1211 600.5469,573.1211 L597.125,573.1211 Q596.5156,573.1211 596.25,572.8867 Q595.9844,572.6523 595.9844,572.2617 Q595.9844,571.8867 596.25,571.6523 Q596.5156,571.418 597.0469,571.418 Z M598.75,571.418 L600.5625,571.418 Q601.5625,571.418 602.0781,571.1211 Q602.75,570.7461 603.0938,570.168 Q603.4375,569.5742 603.4375,568.6367 L603.4375,567.8242 Q603.4375,567.0273 603.125,566.418 Q602.6406,565.4648 602.0313,565.1211 Q601.4375,564.7617 600.5469,564.7617 L598.75,564.7617 L598.75,571.418 Z " fill="#000000"/><text fill="#000000" font-family="sans-serif" font-size="14" lengthAdjust="spacing" textLength="46" x="613.5" y="573.918">Culture</text><line style="stroke:#181818;stroke-width:0.5;" x1="585.5" x2="661.5" y1="584.1211" y2="584.1211"/><text fill="#000000" font-family="sans-serif" font-size="14" lengthAdjust="spacing" text-decoration="underline" textLength="35" x="590.5" y="603.2285">name</text><line style="stroke:#181818;stroke-width:0.5;" x1="585.5" x2="661.5" y1="610.7422" y2="610.7422"/></g><!--MD5=[b0ae54f93f1de5f59888309d263d1c86]
class CultureType--><g id="elem_CultureType"><rect codeLine="50" fill="#F1F1F1" height="66.6211" id="CultureType" rx="2.5" ry="2.5" style="stroke:#181818;stroke-width:0.5;" width="110" x="322.5" y="552.1211"/><ellipse cx="337.5" cy="568.1211" fill="#FFA500" rx="11" ry="11" style="stroke:#181818;stroke-width:1.0;"/><path d="M335.0469,571.418 L335.0469,564.7617 Q334.5,564.7461 334.2344,564.5117 Q333.9844,564.2773 333.9844,563.9023 Q333.9844,563.5273 334.25,563.293 Q334.5156,563.0586 335.125,563.0586 L338.6875,563.0586 Q339.5156,563.0586 340.3125,563.3711 Q341.1094,563.668 341.5938,564.1523 Q341.9531,564.5117 342.3438,565.1367 Q342.7344,565.7461 342.9375,566.3711 Q343.1406,566.9805 343.1406,567.8711 L343.1406,568.6836 Q343.1406,569.7617 342.7656,570.6055 Q342.4063,571.4336 341.8125,571.9648 Q341.2188,572.4805 340.7031,572.7305 Q339.875,573.1211 338.5469,573.1211 L335.125,573.1211 Q334.5156,573.1211 334.25,572.8867 Q333.9844,572.6523 333.9844,572.2617 Q333.9844,571.8867 334.25,571.6523 Q334.5156,571.418 335.0469,571.418 Z M336.75,571.418 L338.5625,571.418 Q339.5625,571.418 340.0781,571.1211 Q340.75,570.7461 341.0938,570.168 Q341.4375,569.5742 341.4375,568.6367 L341.4375,567.8242 Q341.4375,567.0273 341.125,566.418 Q340.6406,565.4648 340.0313,565.1211 Q339.4375,564.7617 338.5469,564.7617 L336.75,564.7617 L336.75,571.418 Z " fill="#000000"/><text fill="#000000" font-family="sans-serif" font-size="14" lengthAdjust="spacing" textLength="78" x="351.5" y="573.918">CultureType</text><line style="stroke:#181818;stroke-width:0.5;" x1="323.5" x2="431.5" y1="584.1211" y2="584.1211"/><text fill="#000000" font-family="sans-serif" font-size="14" lengthAdjust="spacing" text-decoration="underline" textLength="27" x="328.5" y="603.2285">type</text><line style="stroke:#181818;stroke-width:0.5;" x1="323.5" x2="431.5" y1="610.7422" y2="610.7422"/></g><!--MD5=[a6842a721ad0a9f623a523d1d7b13c1e]
class Sector--><g id="elem_Sector"><rect codeLine="54" fill="#F1F1F1" height="103.8633" id="Sector" rx="2.5" ry="2.5" style="stroke:#181818;stroke-width:0.5;" width="81" x="633" y="290.1211"/><ellipse cx="651.6" cy="306.1211" fill="#FFA500" rx="11" ry="11" style="stroke:#181818;stroke-width:1.0;"/><path d="M649.1469,309.418 L649.1469,302.7617 Q648.6,302.7461 648.3344,302.5117 Q648.0844,302.2773 648.0844,301.9023 Q648.0844,301.5273 648.35,301.293 Q648.6156,301.0586 649.225,301.0586 L652.7875,301.0586 Q653.6156,301.0586 654.4125,301.3711 Q655.2094,301.668 655.6938,302.1523 Q656.0531,302.5117 656.4438,303.1367 Q656.8344,303.7461 657.0375,304.3711 Q657.2406,304.9805 657.2406,305.8711 L657.2406,306.6836 Q657.2406,307.7617 656.8656,308.6055 Q656.5063,309.4336 655.9125,309.9648 Q655.3188,310.4805 654.8031,310.7305 Q653.975,311.1211 652.6469,311.1211 L649.225,311.1211 Q648.6156,311.1211 648.35,310.8867 Q648.0844,310.6523 648.0844,310.2617 Q648.0844,309.8867 648.35,309.6523 Q648.6156,309.418 649.1469,309.418 Z M650.85,309.418 L652.6625,309.418 Q653.6625,309.418 654.1781,309.1211 Q654.85,308.7461 655.1938,308.168 Q655.5375,307.5742 655.5375,306.6367 L655.5375,305.8242 Q655.5375,305.0273 655.225,304.418 Q654.7406,303.4648 654.1313,303.1211 Q653.5375,302.7617 652.6469,302.7617 L650.85,302.7617 L650.85,309.418 Z " fill="#000000"/><text fill="#000000" font-family="sans-serif" font-size="14" lengthAdjust="spacing" textLength="41" x="666.4" y="311.918">Sector</text><line style="stroke:#181818;stroke-width:0.5;" x1="634" x2="713" y1="322.1211" y2="322.1211"/><text fill="#000000" font-family="sans-serif" font-size="14" lengthAdjust="spacing" text-decoration="underline" textLength="11" x="639" y="341.2285">id</text><text fill="#000000" font-family="sans-serif" font-size="14" lengthAdjust="spacing" textLength="35" x="639" y="359.8496">name</text><text fill="#000000" font-family="sans-serif" font-size="14" lengthAdjust="spacing" textLength="69" x="639" y="378.4707">exploration</text><line style="stroke:#181818;stroke-width:0.5;" x1="634" x2="713" y1="385.9844" y2="385.9844"/></g><!--MD5=[c9909e49caaf1979ad2681cbd6a47992]
class HUB--><g id="elem_HUB"><rect codeLine="60" fill="#F1F1F1" height="103.8633" id="HUB" rx="2.5" ry="2.5" style="stroke:#181818;stroke-width:0.5;" width="79" x="387" y="290.1211"/><ellipse cx="411" cy="306.1211" fill="#FFA500" rx="11" ry="11" style="stroke:#181818;stroke-width:1.0;"/><path d="M408.5469,309.418 L408.5469,302.7617 Q408,302.7461 407.7344,302.5117 Q407.4844,302.2773 407.4844,301.9023 Q407.4844,301.5273 407.75,301.293 Q408.0156,301.0586 408.625,301.0586 L412.1875,301.0586 Q413.0156,301.0586 413.8125,301.3711 Q414.6094,301.668 415.0938,302.1523 Q415.4531,302.5117 415.8438,303.1367 Q416.2344,303.7461 416.4375,304.3711 Q416.6406,304.9805 416.6406,305.8711 L416.6406,306.6836 Q416.6406,307.7617 416.2656,308.6055 Q415.9063,309.4336 415.3125,309.9648 Q414.7188,310.4805 414.2031,310.7305 Q413.375,311.1211 412.0469,311.1211 L408.625,311.1211 Q408.0156,311.1211 407.75,310.8867 Q407.4844,310.6523 407.4844,310.2617 Q407.4844,309.8867 407.75,309.6523 Q408.0156,309.418 408.5469,309.418 Z M410.25,309.418 L412.0625,309.418 Q413.0625,309.418 413.5781,309.1211 Q414.25,308.7461 414.5938,308.168 Q414.9375,307.5742 414.9375,306.6367 L414.9375,305.8242 Q414.9375,305.0273 414.625,304.418 Q414.1406,303.4648 413.5313,303.1211 Q412.9375,302.7617 412.0469,302.7617 L410.25,302.7617 L410.25,309.418 Z " fill="#000000"/><text fill="#000000" font-family="sans-serif" font-size="14" lengthAdjust="spacing" textLength="27" x="427" y="311.918">HUB</text><line style="stroke:#181818;stroke-width:0.5;" x1="388" x2="465" y1="322.1211" y2="322.1211"/><text fill="#000000" font-family="sans-serif" font-size="14" lengthAdjust="spacing" text-decoration="underline" textLength="11" x="393" y="341.2285">id</text><text fill="#000000" font-family="sans-serif" font-size="14" lengthAdjust="spacing" textLength="67" x="393" y="359.8496">hub_name</text><text fill="#000000" font-family="sans-serif" font-size="14" lengthAdjust="spacing" textLength="59" x="393" y="378.4707">hub_type</text><line style="stroke:#181818;stroke-width:0.5;" x1="388" x2="465" y1="385.9844" y2="385.9844"/></g><!--MD5=[849f0ee1c25791ac8d89b85995ea8423]
class HUBNAME--><g id="elem_HUBNAME"><rect codeLine="66" fill="#F1F1F1" height="66.6211" id="HUBNAME" rx="2.5" ry="2.5" style="stroke:#181818;stroke-width:0.5;" width="97" x="501" y="308.6211"/><ellipse cx="516" cy="324.6211" fill="#FFA500" rx="11" ry="11" style="stroke:#181818;stroke-width:1.0;"/><path d="M513.5469,327.918 L513.5469,321.2617 Q513,321.2461 512.7344,321.0117 Q512.4844,320.7773 512.4844,320.4023 Q512.4844,320.0273 512.75,319.793 Q513.0156,319.5586 513.625,319.5586 L517.1875,319.5586 Q518.0156,319.5586 518.8125,319.8711 Q519.6094,320.168 520.0938,320.6523 Q520.4531,321.0117 520.8438,321.6367 Q521.2344,322.2461 521.4375,322.8711 Q521.6406,323.4805 521.6406,324.3711 L521.6406,325.1836 Q521.6406,326.2617 521.2656,327.1055 Q520.9063,327.9336 520.3125,328.4648 Q519.7188,328.9805 519.2031,329.2305 Q518.375,329.6211 517.0469,329.6211 L513.625,329.6211 Q513.0156,329.6211 512.75,329.3867 Q512.4844,329.1523 512.4844,328.7617 Q512.4844,328.3867 512.75,328.1523 Q513.0156,327.918 513.5469,327.918 Z M515.25,327.918 L517.0625,327.918 Q518.0625,327.918 518.5781,327.6211 Q519.25,327.2461 519.5938,326.668 Q519.9375,326.0742 519.9375,325.1367 L519.9375,324.3242 Q519.9375,323.5273 519.625,322.918 Q519.1406,321.9648 518.5313,321.6211 Q517.9375,321.2617 517.0469,321.2617 L515.25,321.2617 L515.25,327.918 Z " fill="#000000"/><text fill="#000000" font-family="sans-serif" font-size="14" lengthAdjust="spacing" textLength="65" x="530" y="330.418">HUBNAME</text><line style="stroke:#181818;stroke-width:0.5;" x1="502" x2="597" y1="340.6211" y2="340.6211"/><text fill="#000000" font-family="sans-serif" font-size="14" lengthAdjust="spacing" text-decoration="underline" textLength="67" x="507" y="359.7285">hub_name</text><line style="stroke:#181818;stroke-width:0.5;" x1="502" x2="597" y1="367.2422" y2="367.2422"/></g><!--MD5=[b835e7e214c5d18292a6157b83231f02]
class HUBTYPE--><g id="elem_HUBTYPE"><rect codeLine="70" fill="#F1F1F1" height="66.6211" id="HUBTYPE" rx="2.5" ry="2.5" style="stroke:#181818;stroke-width:0.5;" width="95" x="257" y="308.6211"/><ellipse cx="272" cy="324.6211" fill="#FFA500" rx="11" ry="11" style="stroke:#181818;stroke-width:1.0;"/><path d="M269.5469,327.918 L269.5469,321.2617 Q269,321.2461 268.7344,321.0117 Q268.4844,320.7773 268.4844,320.4023 Q268.4844,320.0273 268.75,319.793 Q269.0156,319.5586 269.625,319.5586 L273.1875,319.5586 Q274.0156,319.5586 274.8125,319.8711 Q275.6094,320.168 276.0938,320.6523 Q276.4531,321.0117 276.8438,321.6367 Q277.2344,322.2461 277.4375,322.8711 Q277.6406,323.4805 277.6406,324.3711 L277.6406,325.1836 Q277.6406,326.2617 277.2656,327.1055 Q276.9063,327.9336 276.3125,328.4648 Q275.7188,328.9805 275.2031,329.2305 Q274.375,329.6211 273.0469,329.6211 L269.625,329.6211 Q269.0156,329.6211 268.75,329.3867 Q268.4844,329.1523 268.4844,328.7617 Q268.4844,328.3867 268.75,328.1523 Q269.0156,327.918 269.5469,327.918 Z M271.25,327.918 L273.0625,327.918 Q274.0625,327.918 274.5781,327.6211 Q275.25,327.2461 275.5938,326.668 Q275.9375,326.0742 275.9375,325.1367 L275.9375,324.3242 Q275.9375,323.5273 275.625,322.918 Q275.1406,321.9648 274.5313,321.6211 Q273.9375,321.2617 273.0469,321.2617 L271.25,321.2617 L271.25,327.918 Z " fill="#000000"/><text fill="#000000" font-family="sans-serif" font-size="14" lengthAdjust="spacing" textLength="63" x="286" y="330.418">HUBTYPE</text><line style="stroke:#181818;stroke-width:0.5;" x1="258" x2="351" y1="340.6211" y2="340.6211"/><text fill="#000000" font-family="sans-serif" font-size="14" lengthAdjust="spacing" text-decoration="underline" textLength="59" x="263" y="359.7285">hub_type</text><line style="stroke:#181818;stroke-width:0.5;" x1="258" x2="351" y1="367.2422" y2="367.2422"/></g><!--MD5=[b3936ce1df6f65f315166c2ec771ff8f]
link Time to Production--><g id="link_Time_Production"><path codeLine="74" d="M540.2,133.7311 C546.1,139.5611 552.35,145.4111 558.5,150.6211 C630.09,211.2711 659.94,210.9411 731.5,271.6211 C737.42,276.6411 743.41,282.1011 749.25,287.6811 " fill="none" id="Time-Production" style="stroke:#181818;stroke-width:1.0;"/><text fill="#000000" font-family="sans-serif" font-size="13" lengthAdjust="spacing" textLength="7" x="547.9" y="136.6271">1</text><text fill="#000000" font-family="sans-serif" font-size="13" lengthAdjust="spacing" textLength="9" x="732.5508" y="275.8715">N</text></g><!--MD5=[98b3d53a814b957b6911993602911d1b]
link Time to Sale--><g id="link_Time_Sale"><path codeLine="75" d="M476.97,136.8311 C471.51,141.9311 465.61,146.7311 459.5,150.6211 C318.5,240.3111 240.88,176.4711 103.5,271.6211 C97.34,275.8811 91.49,280.9911 86.04,286.4811 " fill="none" id="Time-Sale" style="stroke:#181818;stroke-width:1.0;"/><text fill="#000000" font-family="sans-serif" font-size="13" lengthAdjust="spacing" textLength="7" x="461.8693" y="140.7793">1</text><text fill="#000000" font-family="sans-serif" font-size="13" lengthAdjust="spacing" textLength="9" x="93.8846" y="272.101">N</text></g><!--MD5=[b979ddaa48ea04e64d4de1ce48d33243]
link Sale to Product--><g id="link_Sale_Product"><path codeLine="76" d="M86.08,397.7111 C91.52,403.2111 97.36,408.3311 103.5,412.6211 C237.4,506.1511 309.45,451.2811 450.5,533.6211 C456.41,537.0711 462.26,541.1711 467.85,545.5211 " fill="none" id="Sale-Product" style="stroke:#181818;stroke-width:1.0;"/><text fill="#000000" font-family="sans-serif" font-size="13" lengthAdjust="spacing" textLength="9" x="93.9318" y="403.1438">N</text><text fill="#000000" font-family="sans-serif" font-size="13" lengthAdjust="spacing" textLength="7" x="452.9858" y="533.9306">1</text></g><!--MD5=[f514aa6658976bbd50cf1c8a78e472fa]
link Production to Product--><g id="link_Production_Product"><path codeLine="77" d="M749.12,396.4111 C743.31,402.0111 737.36,407.5211 731.5,412.6211 C663.16,472.0711 638.26,477.0711 567.5,533.6211 C561.47,538.4411 555.2,543.6411 549.1,548.8111 " fill="none" id="Production-Product" style="stroke:#181818;stroke-width:1.0;"/><text fill="#000000" font-family="sans-serif" font-size="13" lengthAdjust="spacing" textLength="9" x="732.4025" y="399.8917">N</text><text fill="#000000" font-family="sans-serif" font-size="13" lengthAdjust="spacing" textLength="7" x="556.9553" y="537.8067">1</text></g><!--MD5=[bf04aac01b5f846a909aa6b696e61310]
link Sale to Client--><g id="link_Sale_Client"><path codeLine="79" d="M86.05,342.1211 C97.84,342.1211 109.64,342.1211 121.43,342.1211 " fill="none" id="Sale-Client" style="stroke:#181818;stroke-width:1.0;"/><text fill="#000000" font-family="sans-serif" font-size="13" lengthAdjust="spacing" textLength="9" x="93.8964" y="337.6519">N</text><text fill="#000000" font-family="sans-serif" font-size="13" lengthAdjust="spacing" textLength="7" x="106.5619" y="337.8868">1</text></g><!--MD5=[e9ebdcf4d5feacc676a712c8f1880efa]
link Sector to Production--><g id="link_Sector_Production"><path codeLine="80" d="M714.35,342.1211 C725.99,342.1211 737.63,342.1211 749.28,342.1211 " fill="none" id="Sector-Production" style="stroke:#181818;stroke-width:1.0;"/><text fill="#000000" font-family="sans-serif" font-size="13" lengthAdjust="spacing" textLength="7" x="721.9727" y="337.7252">1</text><text fill="#000000" font-family="sans-serif" font-size="13" lengthAdjust="spacing" textLength="9" x="732.585" y="337.9671">N</text></g><!--MD5=[b0e0da8434653e4c00773006c1d53698]
link Time to Year--><g id="link_Time_Year"><path codeLine="82" d="M540.27,98.6211 C552,98.6211 563.73,98.6211 575.46,98.6211 " fill="none" id="Time-Year" style="stroke:#181818;stroke-width:1.0;"/><text fill="#000000" font-family="sans-serif" font-size="13" lengthAdjust="spacing" textLength="9" x="548.2041" y="93.8368">N</text><text fill="#000000" font-family="sans-serif" font-size="13" lengthAdjust="spacing" textLength="7" x="560.4726" y="93.7612">1</text></g><!--MD5=[a70c6a7b9af1096a59b034522f16db53]
link Month to Time--><g id="link_Month_Time"><path codeLine="83" d="M442.36,98.6211 C453.9,98.6211 465.44,98.6211 476.98,98.6211 " fill="none" id="Month-Time" style="stroke:#181818;stroke-width:1.0;"/><text fill="#000000" font-family="sans-serif" font-size="13" lengthAdjust="spacing" textLength="7" x="450.109" y="94.0419">1</text><text fill="#000000" font-family="sans-serif" font-size="13" lengthAdjust="spacing" textLength="9" x="460.1006" y="93.8368">N</text></g><!--MD5=[b5fd13628eef65f8fc90212020485061]
link Product to Culture--><g id="link_Product_Culture"><path codeLine="85" d="M549.38,585.6211 C561.06,585.6211 572.73,585.6211 584.41,585.6211 " fill="none" id="Product-Culture" style="stroke:#181818;stroke-width:1.0;"/><text fill="#000000" font-family="sans-serif" font-size="13" lengthAdjust="spacing" textLength="9" x="556.8961" y="581.277">N</text><text fill="#000000" font-family="sans-serif" font-size="13" lengthAdjust="spacing" textLength="7" x="569.5575" y="581.144">1</text></g><!--MD5=[17a5965e0f6d9e6b0249eb2fc33d6114]
link CultureType to Product--><g id="link_CultureType_Product"><path codeLine="86" d="M432.51,585.6211 C444.28,585.6211 456.06,585.6211 467.83,585.6211 " fill="none" id="CultureType-Product" style="stroke:#181818;stroke-width:1.0;"/><text fill="#000000" font-family="sans-serif" font-size="13" lengthAdjust="spacing" textLength="7" x="440.3723" y="581.5522">1</text><text fill="#000000" font-family="sans-serif" font-size="13" lengthAdjust="spacing" textLength="9" x="451.0664" y="581.2252">N</text></g><!--MD5=[afe94810011c36e32cd46e0d4118be55]
link HUB to HUBNAME--><g id="link_HUB_HUBNAME"><path codeLine="88" d="M466.38,342.1211 C477.85,342.1211 489.32,342.1211 500.8,342.1211 " fill="none" id="HUB-HUBNAME" style="stroke:#181818;stroke-width:1.0;"/><text fill="#000000" font-family="sans-serif" font-size="13" lengthAdjust="spacing" textLength="9" x="474.0078" y="337.7252">N</text><text fill="#000000" font-family="sans-serif" font-size="13" lengthAdjust="spacing" textLength="7" x="486.1331" y="337.9502">1</text></g><!--MD5=[48f662c0a858034a56f5fc712ac5b66c]
link HUBTYPE to HUB--><g id="link_HUBTYPE_HUB"><path codeLine="89" d="M352.16,342.1211 C363.68,342.1211 375.2,342.1211 386.71,342.1211 " fill="none" id="HUBTYPE-HUB" style="stroke:#181818;stroke-width:1.0;"/><text fill="#000000" font-family="sans-serif" font-size="13" lengthAdjust="spacing" textLength="7" x="359.9939" y="337.8991">1</text><text fill="#000000" font-family="sans-serif" font-size="13" lengthAdjust="spacing" textLength="9" x="370.0977" y="337.7252">N</text></g><!--MD5=[0c1f2d2083c550f603b8dfcb42a0a727]
link HUB to Sale--><g id="link_HUB_Sale"><path codeLine="91" d="M401.09,289.9711 C389.02,271.1611 372.66,252.0211 352,241.6211 C306.15,218.5311 166.85,218.5311 121,241.6211 C107.23,248.5511 95.36,259.3711 85.41,271.3911 " fill="none" id="HUB-Sale" style="stroke:#181818;stroke-width:1.0;"/><text fill="#000000" font-family="sans-serif" font-size="13" lengthAdjust="spacing" textLength="7" x="390.2052" y="278.8783">1</text><text fill="#000000" font-family="sans-serif" font-size="13" lengthAdjust="spacing" textLength="9" x="79.9585" y="260.2584">N</text></g><!--MD5=[fbcd985668dc6a63d425ab0bd0742665]
@startuml
 title "Snowflake Model"

 class Production <<(F,#5087FF)>>{
     {static} id
     time_id
     sector_id
     product_id
     amount
 }

 class Sale <<(F,#5087FF)>>{
     {static} id
     time_id
     client_id
     product_id
     quantity
 }

 class Time <<(D,#FFA500)>>{
     {static} id
     year
     month
 }

 class Year<<(D,#FFA500)>>{
     {static} year
 }

 class Month<<(D,#FFA500)>>{
     {static} month
 }

 class Client<<(D,#FFA500)>>{
     {static} id
     fiscal_number
     email
     name
 }

 class Product<<(D,#FFA500)>>{
     {static} id
     type
     name
 }

 class Culture<<(D,#FFA500)>>{
     {static} name
 }

 class CultureType<<(D,#FFA500)>>{
     {static} type
 }

 class Sector<<(D,#FFA500)>>{
     {static} id
     name
     exploration
 }

 class HUB<<(D,#FFA500)>>{
     {static} id
     hub_name
     hub_type
 }

 class HUBNAME<<(D,#FFA500)>>{
     {static} hub_name
 }

 class HUBTYPE<<(D,#FFA500)>>{
     {static} hub_type
 }

 Production "N" -up- -"1" Time
 Sale "N" -up- - "1" Time
 Sale "N" -down- - "1" Product
 Production "N" -down- - "1" Product

 Sale "N" -right "1" Client
 Production "N" -left "1" Sector

 Time "N" -right "1" Year
 Time "N" -left "1" Month

 Product "N" -right "1" Culture
 Product "N" -left "1" CultureType

 HUB "N" -down "1" HUBNAME
 HUB "N" -up "1" HUBTYPE

 Sale "N" -left "1" HUB

 @enduml

PlantUML version 1.2022.13(Sat Nov 19 13:22:17 WET 2022)
(GPL source distribution)
Java Runtime: OpenJDK Runtime Environment
JVM: OpenJDK 64-Bit Server VM
Default Encoding: Cp1252
Language: pt
Country: PT
--></g></svg>