<?xml version="1.0" encoding="UTF-8" standalone="no"?><svg xmlns="http://www.w3.org/2000/svg" xmlns:xlink="http://www.w3.org/1999/xlink" contentStyleType="text/css" height="605.5px" preserveAspectRatio="none" style="width:890px;height:605px;background:#FFFFFF;" version="1.1" viewBox="0 0 890 605" width="890px" zoomAndPan="magnify"><defs/><g><rect fill="#FFFFFF" height="508.2832" style="stroke:#181818;stroke-width:0.5;" width="5" x="21.25" y="46.8105"/><rect fill="#FFFFFF" height="496.6377" style="stroke:#181818;stroke-width:0.5;" width="5" x="241.25" y="58.4561"/><rect fill="#FFFFFF" height="198.9551" style="stroke:#181818;stroke-width:0.5;" width="5" x="360.25" y="74.1016"/><rect fill="#FFFFFF" height="220.9551" style="stroke:#181818;stroke-width:0.5;" width="5" x="360.25" y="301.2021"/><rect fill="#FFFFFF" height="15.6455" style="stroke:#181818;stroke-width:0.5;" width="5" x="576.25" y="121.0381"/><rect fill="#FFFFFF" height="15" style="stroke:#181818;stroke-width:0.5;" width="5" x="699.25" y="164.8291"/><rect fill="#FFFFFF" height="15" style="stroke:#181818;stroke-width:0.5;" width="5" x="699.25" y="418.5752"/><rect fill="#FFFFFF" height="15" style="stroke:#181818;stroke-width:0.5;" width="5" x="699.25" y="449.2207"/><rect fill="#FFFFFF" height="31.291" style="stroke:#181818;stroke-width:0.5;" width="5" x="748.75" y="105.3926"/><rect fill="#FFFFFF" height="15.6455" style="stroke:#181818;stroke-width:0.5;" width="5" x="873.75" y="89.7471"/><rect fill="none" height="31.791" style="stroke:#000000;stroke-width:0.75;" width="106.5" x="309.5" y="187.3291"/><rect fill="none" height="31.791" style="stroke:#000000;stroke-width:0.75;" width="162" x="309.5" y="226.1201"/><rect fill="none" height="131.873" style="stroke:#000000;stroke-width:0.75;" width="422.25" x="304.5" y="375.1387"/><rect fill="none" height="31.791" style="stroke:#000000;stroke-width:0.75;" width="195.75" x="309.5" y="471.7207"/><line style="stroke:#181818;stroke-width:0.25;stroke-dasharray:5.0,5.0;" x1="23.5" x2="23.5" y1="41.8105" y2="564.0938"/><line style="stroke:#181818;stroke-width:0.25;stroke-dasharray:5.0,5.0;" x1="243.5" x2="243.5" y1="41.8105" y2="564.0938"/><line style="stroke:#181818;stroke-width:0.25;stroke-dasharray:5.0,5.0;" x1="362.5" x2="362.5" y1="41.8105" y2="564.0938"/><line style="stroke:#181818;stroke-width:0.25;stroke-dasharray:5.0,5.0;" x1="578.5" x2="578.5" y1="41.8105" y2="564.0938"/><line style="stroke:#181818;stroke-width:0.25;stroke-dasharray:5.0,5.0;" x1="701.75" x2="701.75" y1="41.8105" y2="564.0938"/><line style="stroke:#181818;stroke-width:0.25;stroke-dasharray:5.0,5.0;" x1="751.25" x2="751.25" y1="41.8105" y2="564.0938"/><line style="stroke:#181818;stroke-width:0.25;stroke-dasharray:5.0,5.0;" x1="876" x2="876" y1="41.8105" y2="564.0938"/><text fill="#000000" font-family="sans-serif" font-size="7" lengthAdjust="spacing" textLength="39.5" x="2.5" y="40.0537">System User</text><ellipse cx="23.75" cy="6.75" fill="#E2E2F0" rx="4" ry="4" style="stroke:#181818;stroke-width:0.25;"/><path d="M23.75,10.75 L23.75,24.25 M17.25,14.75 L30.25,14.75 M23.75,24.25 L17.25,31.75 M23.75,24.25 L30.25,31.75 " fill="none" style="stroke:#181818;stroke-width:0.25;"/><text fill="#000000" font-family="sans-serif" font-size="7" lengthAdjust="spacing" textLength="39.5" x="2.5" y="571.1475">System User</text><ellipse cx="23.75" cy="577.1543" fill="#E2E2F0" rx="4" ry="4" style="stroke:#181818;stroke-width:0.25;"/><path d="M23.75,581.1543 L23.75,594.6543 M17.25,585.1543 L30.25,585.1543 M23.75,594.6543 L17.25,602.1543 M23.75,594.6543 L30.25,602.1543 " fill="none" style="stroke:#181818;stroke-width:0.25;"/><rect fill="#E2E2F0" height="16.3105" rx="1.25" ry="1.25" style="stroke:#181818;stroke-width:0.25;" width="71.5" x="208" y="25"/><text fill="#000000" font-family="sans-serif" font-size="7" lengthAdjust="spacing" textLength="64.5" x="211.5" y="36.0537">:VerifyConnectivityUI</text><rect fill="#E2E2F0" height="16.3105" rx="1.25" ry="1.25" style="stroke:#181818;stroke-width:0.25;" width="71.5" x="208" y="563.5938"/><text fill="#000000" font-family="sans-serif" font-size="7" lengthAdjust="spacing" textLength="64.5" x="211.5" y="574.6475">:VerifyConnectivityUI</text><rect fill="#E2E2F0" height="16.3105" rx="1.25" ry="1.25" style="stroke:#181818;stroke-width:0.25;" width="96.5" x="314.5" y="25"/><text fill="#000000" font-family="sans-serif" font-size="7" lengthAdjust="spacing" textLength="89.5" x="318" y="36.0537">:VerifyConnectivityController</text><rect fill="#E2E2F0" height="16.3105" rx="1.25" ry="1.25" style="stroke:#181818;stroke-width:0.25;" width="96.5" x="314.5" y="563.5938"/><text fill="#000000" font-family="sans-serif" font-size="7" lengthAdjust="spacing" textLength="89.5" x="318" y="574.6475">:VerifyConnectivityController</text><rect fill="#E2E2F0" height="16.3105" rx="1.25" ry="1.25" style="stroke:#181818;stroke-width:0.25;" width="41.5" x="558" y="25"/><text fill="#000000" font-family="sans-serif" font-size="7" lengthAdjust="spacing" textLength="34.5" x="561.5" y="36.0537">EntityStore</text><rect fill="#E2E2F0" height="16.3105" rx="1.25" ry="1.25" style="stroke:#181818;stroke-width:0.25;" width="41.5" x="558" y="563.5938"/><text fill="#000000" font-family="sans-serif" font-size="7" lengthAdjust="spacing" textLength="34.5" x="561.5" y="574.6475">EntityStore</text><rect fill="#E2E2F0" height="16.3105" rx="1.25" ry="1.25" style="stroke:#181818;stroke-width:0.25;" width="40" x="681.75" y="25"/><text fill="#000000" font-family="sans-serif" font-size="7" lengthAdjust="spacing" textLength="33" x="685.25" y="36.0537">Algorithms</text><rect fill="#E2E2F0" height="16.3105" rx="1.25" ry="1.25" style="stroke:#181818;stroke-width:0.25;" width="40" x="681.75" y="563.5938"/><text fill="#000000" font-family="sans-serif" font-size="7" lengthAdjust="spacing" textLength="33" x="685.25" y="574.6475">Algorithms</text><rect fill="#E2E2F0" height="16.3105" rx="1.25" ry="1.25" style="stroke:#181818;stroke-width:0.25;" width="49" x="726.75" y="25"/><text fill="#000000" font-family="sans-serif" font-size="7" lengthAdjust="spacing" textLength="42" x="730.25" y="36.0537">:Organization</text><rect fill="#E2E2F0" height="16.3105" rx="1.25" ry="1.25" style="stroke:#181818;stroke-width:0.25;" width="49" x="726.75" y="563.5938"/><text fill="#000000" font-family="sans-serif" font-size="7" lengthAdjust="spacing" textLength="42" x="730.25" y="574.6475">:Organization</text><rect fill="#E2E2F0" height="16.3105" rx="1.25" ry="1.25" style="stroke:#181818;stroke-width:0.25;" width="21.5" x="865.5" y="25"/><text fill="#000000" font-family="sans-serif" font-size="7" lengthAdjust="spacing" textLength="14.5" x="869" y="36.0537">:App</text><rect fill="#E2E2F0" height="16.3105" rx="1.25" ry="1.25" style="stroke:#181818;stroke-width:0.25;" width="21.5" x="865.5" y="563.5938"/><text fill="#000000" font-family="sans-serif" font-size="7" lengthAdjust="spacing" textLength="14.5" x="869" y="574.6475">:App</text><rect fill="#FFFFFF" height="508.2832" style="stroke:#181818;stroke-width:0.5;" width="5" x="21.25" y="46.8105"/><rect fill="#FFFFFF" height="496.6377" style="stroke:#181818;stroke-width:0.5;" width="5" x="241.25" y="58.4561"/><rect fill="#FFFFFF" height="198.9551" style="stroke:#181818;stroke-width:0.5;" width="5" x="360.25" y="74.1016"/><rect fill="#FFFFFF" height="220.9551" style="stroke:#181818;stroke-width:0.5;" width="5" x="360.25" y="301.2021"/><rect fill="#FFFFFF" height="15.6455" style="stroke:#181818;stroke-width:0.5;" width="5" x="576.25" y="121.0381"/><rect fill="#FFFFFF" height="15" style="stroke:#181818;stroke-width:0.5;" width="5" x="699.25" y="164.8291"/><rect fill="#FFFFFF" height="15" style="stroke:#181818;stroke-width:0.5;" width="5" x="699.25" y="418.5752"/><rect fill="#FFFFFF" height="15" style="stroke:#181818;stroke-width:0.5;" width="5" x="699.25" y="449.2207"/><rect fill="#FFFFFF" height="31.291" style="stroke:#181818;stroke-width:0.5;" width="5" x="748.75" y="105.3926"/><rect fill="#FFFFFF" height="15.6455" style="stroke:#181818;stroke-width:0.5;" width="5" x="873.75" y="89.7471"/><polygon fill="#181818" points="235.25,56.4561,240.25,58.4561,235.25,60.4561,237.25,58.4561" style="stroke:#181818;stroke-width:0.5;"/><line style="stroke:#181818;stroke-width:0.5;" x1="26.25" x2="238.25" y1="58.4561" y2="58.4561"/><text fill="#000000" font-family="sans-serif" font-size="6.5" font-weight="bold" lengthAdjust="spacing" textLength="3.5" x="29.75" y="55.8247">1</text><text fill="#000000" font-family="sans-serif" font-size="6.5" lengthAdjust="spacing" textLength="147" x="35.25" y="55.8247">requests the verification of connectivity of the graph</text><polygon fill="#181818" points="354.25,72.1016,359.25,74.1016,354.25,76.1016,356.25,74.1016" style="stroke:#181818;stroke-width:0.5;"/><line style="stroke:#181818;stroke-width:0.5;" x1="246.25" x2="357.25" y1="74.1016" y2="74.1016"/><text fill="#000000" font-family="sans-serif" font-size="6.5" font-weight="bold" lengthAdjust="spacing" textLength="3.5" x="249.75" y="71.4702">2</text><text fill="#000000" font-family="sans-serif" font-size="6.5" lengthAdjust="spacing" textLength="40" x="255.25" y="71.4702">isConnected()</text><polygon fill="#181818" points="867.75,87.7471,872.75,89.7471,867.75,91.7471,869.75,89.7471" style="stroke:#181818;stroke-width:0.5;"/><line style="stroke:#181818;stroke-width:0.5;" x1="365.25" x2="870.75" y1="89.7471" y2="89.7471"/><text fill="#000000" font-family="sans-serif" font-size="6.5" font-weight="bold" lengthAdjust="spacing" textLength="3.5" x="368.75" y="87.1157">3</text><text fill="#000000" font-family="sans-serif" font-size="6.5" lengthAdjust="spacing" textLength="69.5" x="374.25" y="87.1157">app = App.getInstance()</text><polygon fill="#181818" points="759.25,103.3926,754.25,105.3926,759.25,107.3926,757.25,105.3926" style="stroke:#181818;stroke-width:0.5;"/><line style="stroke:#181818;stroke-width:0.5;" x1="756.25" x2="875.75" y1="105.3926" y2="105.3926"/><text fill="#000000" font-family="sans-serif" font-size="6.5" font-weight="bold" lengthAdjust="spacing" textLength="3.5" x="762.25" y="102.7612">4</text><text fill="#000000" font-family="sans-serif" font-size="6.5" lengthAdjust="spacing" textLength="105" x="767.75" y="102.7612">organization = app.getOrganization()</text><polygon fill="#181818" points="586.75,119.0381,581.75,121.0381,586.75,123.0381,584.75,121.0381" style="stroke:#181818;stroke-width:0.5;"/><line style="stroke:#181818;stroke-width:0.5;" x1="583.75" x2="748.25" y1="121.0381" y2="121.0381"/><text fill="#000000" font-family="sans-serif" font-size="6.5" font-weight="bold" lengthAdjust="spacing" textLength="3.5" x="589.75" y="118.4067">5</text><text fill="#000000" font-family="sans-serif" font-size="6.5" lengthAdjust="spacing" textLength="122" x="595.25" y="118.4067">entityStore = organization.getEntityStore()</text><polygon fill="#181818" points="370.75,134.6836,365.75,136.6836,370.75,138.6836,368.75,136.6836" style="stroke:#181818;stroke-width:0.5;"/><line style="stroke:#181818;stroke-width:0.5;" x1="367.75" x2="578.25" y1="136.6836" y2="136.6836"/><text fill="#000000" font-family="sans-serif" font-size="6.5" font-weight="bold" lengthAdjust="spacing" textLength="3.5" x="373.75" y="134.0522">6</text><text fill="#000000" font-family="sans-serif" font-size="6.5" lengthAdjust="spacing" textLength="124" x="379.25" y="134.0522">MapGraph = entityStore.getEntitiesGraph()</text><polygon fill="#181818" points="693.25,162.8291,698.25,164.8291,693.25,166.8291,695.25,164.8291" style="stroke:#181818;stroke-width:0.5;"/><line style="stroke:#181818;stroke-width:0.5;" x1="365.25" x2="696.25" y1="164.8291" y2="164.8291"/><text fill="#000000" font-family="sans-serif" font-size="6.5" font-weight="bold" lengthAdjust="spacing" textLength="3.5" x="368.75" y="162.1978">7</text><text fill="#000000" font-family="sans-serif" font-size="6.5" lengthAdjust="spacing" textLength="201.5" x="374.25" y="162.1978">queue = Algorithms.DepthFirstSearch(mapGraph,mapGraph.vertex(0))</text><path d="M309.5,187.3291 L340,187.3291 L340,191.9746 L335,196.9746 L309.5,196.9746 L309.5,187.3291 " fill="#EEEEEE" style="stroke:#000000;stroke-width:0.75;"/><rect fill="none" height="31.791" style="stroke:#000000;stroke-width:0.75;" width="106.5" x="309.5" y="187.3291"/><text fill="#000000" font-family="sans-serif" font-size="6.5" font-weight="bold" lengthAdjust="spacing" textLength="8" x="317" y="194.8433">alt</text><text fill="#000000" font-family="sans-serif" font-size="5.5" font-weight="bold" lengthAdjust="spacing" textLength="44.5" x="347.5" y="194.2642">[(queue == null)]</text><line style="stroke:#181818;stroke-width:0.5;" x1="365.25" x2="386.25" y1="208.6201" y2="208.6201"/><line style="stroke:#181818;stroke-width:0.5;" x1="386.25" x2="386.25" y1="208.6201" y2="215.1201"/><line style="stroke:#181818;stroke-width:0.5;" x1="365.75" x2="386.25" y1="215.1201" y2="215.1201"/><polygon fill="#181818" points="370.75,213.1201,365.75,215.1201,370.75,217.1201,368.75,215.1201" style="stroke:#181818;stroke-width:0.5;"/><text fill="#000000" font-family="sans-serif" font-size="6.5" font-weight="bold" lengthAdjust="spacing" textLength="3.5" x="368.75" y="205.9888">8</text><text fill="#000000" font-family="sans-serif" font-size="6.5" lengthAdjust="spacing" textLength="32" x="374.25" y="205.9888">return false</text><path d="M309.5,226.1201 L340,226.1201 L340,230.7656 L335,235.7656 L309.5,235.7656 L309.5,226.1201 " fill="#EEEEEE" style="stroke:#000000;stroke-width:0.75;"/><rect fill="none" height="31.791" style="stroke:#000000;stroke-width:0.75;" width="162" x="309.5" y="226.1201"/><text fill="#000000" font-family="sans-serif" font-size="6.5" font-weight="bold" lengthAdjust="spacing" textLength="8" x="317" y="233.6343">alt</text><text fill="#000000" font-family="sans-serif" font-size="5.5" font-weight="bold" lengthAdjust="spacing" textLength="121.5" x="347.5" y="233.0552">[(mapGraph.numVertices() == queue.size())]</text><line style="stroke:#181818;stroke-width:0.5;" x1="365.25" x2="386.25" y1="247.4111" y2="247.4111"/><line style="stroke:#181818;stroke-width:0.5;" x1="386.25" x2="386.25" y1="247.4111" y2="253.9111"/><line style="stroke:#181818;stroke-width:0.5;" x1="365.75" x2="386.25" y1="253.9111" y2="253.9111"/><polygon fill="#181818" points="370.75,251.9111,365.75,253.9111,370.75,255.9111,368.75,253.9111" style="stroke:#181818;stroke-width:0.5;"/><text fill="#000000" font-family="sans-serif" font-size="6.5" font-weight="bold" lengthAdjust="spacing" textLength="3.5" x="368.75" y="244.7798">9</text><text fill="#000000" font-family="sans-serif" font-size="6.5" lengthAdjust="spacing" textLength="29.5" x="374.25" y="244.7798">return true</text><polygon fill="#181818" points="251.75,271.0566,246.75,273.0566,251.75,275.0566,249.75,273.0566" style="stroke:#181818;stroke-width:0.5;"/><line style="stroke:#181818;stroke-width:0.5;stroke-dasharray:2.0,2.0;" x1="248.75" x2="362.25" y1="273.0566" y2="273.0566"/><text fill="#000000" font-family="sans-serif" font-size="6.5" font-weight="bold" lengthAdjust="spacing" textLength="7" x="254.75" y="270.4253">10</text><text fill="#000000" font-family="sans-serif" font-size="6.5" lengthAdjust="spacing" textLength="16" x="263.75" y="270.4253">result</text><polygon fill="#181818" points="354.25,299.2021,359.25,301.2021,354.25,303.2021,356.25,301.2021" style="stroke:#181818;stroke-width:0.5;"/><line style="stroke:#181818;stroke-width:0.5;" x1="246.25" x2="357.25" y1="301.2021" y2="301.2021"/><text fill="#000000" font-family="sans-serif" font-size="6.5" font-weight="bold" lengthAdjust="spacing" textLength="7" x="249.75" y="298.5708">11</text><text fill="#000000" font-family="sans-serif" font-size="6.5" lengthAdjust="spacing" textLength="95.5" x="258.75" y="298.5708">minimumNumberOfConnections()</text><line style="stroke:#181818;stroke-width:0.5;" x1="365.25" x2="386.25" y1="316.8477" y2="316.8477"/><line style="stroke:#181818;stroke-width:0.5;" x1="386.25" x2="386.25" y1="316.8477" y2="323.3477"/><line style="stroke:#181818;stroke-width:0.5;" x1="365.75" x2="386.25" y1="323.3477" y2="323.3477"/><polygon fill="#181818" points="370.75,321.3477,365.75,323.3477,370.75,325.3477,368.75,323.3477" style="stroke:#181818;stroke-width:0.5;"/><text fill="#000000" font-family="sans-serif" font-size="6.5" font-weight="bold" lengthAdjust="spacing" textLength="7" x="368.75" y="314.2163">12</text><text fill="#000000" font-family="sans-serif" font-size="6.5" lengthAdjust="spacing" textLength="132" x="377.75" y="314.2163">LinkedList&lt;Entity&gt; path = new LinkedList&lt;&gt;()</text><line style="stroke:#181818;stroke-width:0.5;" x1="365.25" x2="386.25" y1="338.9932" y2="338.9932"/><line style="stroke:#181818;stroke-width:0.5;" x1="386.25" x2="386.25" y1="338.9932" y2="345.4932"/><line style="stroke:#181818;stroke-width:0.5;" x1="365.75" x2="386.25" y1="345.4932" y2="345.4932"/><polygon fill="#181818" points="370.75,343.4932,365.75,345.4932,370.75,347.4932,368.75,345.4932" style="stroke:#181818;stroke-width:0.5;"/><text fill="#000000" font-family="sans-serif" font-size="6.5" font-weight="bold" lengthAdjust="spacing" textLength="7" x="368.75" y="336.3618">13</text><text fill="#000000" font-family="sans-serif" font-size="6.5" lengthAdjust="spacing" textLength="195" x="377.75" y="336.3618">MapGraph&lt;Entity, Integer&gt; noWeightsMapGraph = IgnoreWeights()</text><line style="stroke:#181818;stroke-width:0.5;" x1="365.25" x2="386.25" y1="361.1387" y2="361.1387"/><line style="stroke:#181818;stroke-width:0.5;" x1="386.25" x2="386.25" y1="361.1387" y2="367.6387"/><line style="stroke:#181818;stroke-width:0.5;" x1="365.75" x2="386.25" y1="367.6387" y2="367.6387"/><polygon fill="#181818" points="370.75,365.6387,365.75,367.6387,370.75,369.6387,368.75,367.6387" style="stroke:#181818;stroke-width:0.5;"/><text fill="#000000" font-family="sans-serif" font-size="6.5" font-weight="bold" lengthAdjust="spacing" textLength="7" x="368.75" y="358.5073">14</text><text fill="#000000" font-family="sans-serif" font-size="6.5" lengthAdjust="spacing" textLength="89" x="377.75" y="358.5073">maxNumberOfConnections = 0</text><path d="M304.5,375.1387 L341,375.1387 L341,379.7842 L336,384.7842 L304.5,384.7842 L304.5,375.1387 " fill="#EEEEEE" style="stroke:#000000;stroke-width:0.75;"/><rect fill="none" height="131.873" style="stroke:#000000;stroke-width:0.75;" width="422.25" x="304.5" y="375.1387"/><text fill="#000000" font-family="sans-serif" font-size="6.5" font-weight="bold" lengthAdjust="spacing" textLength="14" x="312" y="382.6528">loop</text><text fill="#000000" font-family="sans-serif" font-size="5.5" font-weight="bold" lengthAdjust="spacing" textLength="109" x="348.5" y="382.0737">[for each entity in noWeightsMapGraph]</text><line style="stroke:#181818;stroke-width:0.5;" x1="365.25" x2="386.25" y1="396.4297" y2="396.4297"/><line style="stroke:#181818;stroke-width:0.5;" x1="386.25" x2="386.25" y1="396.4297" y2="402.9297"/><line style="stroke:#181818;stroke-width:0.5;" x1="365.75" x2="386.25" y1="402.9297" y2="402.9297"/><polygon fill="#181818" points="370.75,400.9297,365.75,402.9297,370.75,404.9297,368.75,402.9297" style="stroke:#181818;stroke-width:0.5;"/><text fill="#000000" font-family="sans-serif" font-size="6.5" font-weight="bold" lengthAdjust="spacing" textLength="7" x="368.75" y="393.7983">15</text><text fill="#000000" font-family="sans-serif" font-size="6.5" lengthAdjust="spacing" textLength="137" x="377.75" y="393.7983">LinkedList&lt;Entity&gt; queue = new LinkedList&lt;&gt;()</text><polygon fill="#181818" points="693.25,416.5752,698.25,418.5752,693.25,420.5752,695.25,418.5752" style="stroke:#181818;stroke-width:0.5;"/><line style="stroke:#181818;stroke-width:0.5;" x1="365.25" x2="696.25" y1="418.5752" y2="418.5752"/><text fill="#000000" font-family="sans-serif" font-size="6.5" font-weight="bold" lengthAdjust="spacing" textLength="7" x="368.75" y="415.9438">16</text><text fill="#000000" font-family="sans-serif" font-size="6.5" lengthAdjust="spacing" textLength="199.5" x="377.75" y="415.9438">queue = Algorithms.BreadthFirstSearch(noWeightsMapGraph, entity)</text><polygon fill="#181818" points="693.25,447.2207,698.25,449.2207,693.25,451.2207,695.25,449.2207" style="stroke:#181818;stroke-width:0.5;"/><line style="stroke:#181818;stroke-width:0.5;" x1="365.25" x2="696.25" y1="449.2207" y2="449.2207"/><text fill="#000000" font-family="sans-serif" font-size="6.5" font-weight="bold" lengthAdjust="spacing" textLength="7" x="368.75" y="446.5894">17</text><text fill="#000000" font-family="sans-serif" font-size="6.5" lengthAdjust="spacing" textLength="315.5" x="377.75" y="446.5894">Algorithms.shortestPath(noWeightsMapGraph,entity,queue.getLast(),Integer::compareTo,Integer::sum,0,path)</text><path d="M309.5,471.7207 L340,471.7207 L340,476.3662 L335,481.3662 L309.5,481.3662 L309.5,471.7207 " fill="#EEEEEE" style="stroke:#000000;stroke-width:0.75;"/><rect fill="none" height="31.791" style="stroke:#000000;stroke-width:0.75;" width="195.75" x="309.5" y="471.7207"/><text fill="#000000" font-family="sans-serif" font-size="6.5" font-weight="bold" lengthAdjust="spacing" textLength="8" x="317" y="479.2349">alt</text><text fill="#000000" font-family="sans-serif" font-size="5.5" font-weight="bold" lengthAdjust="spacing" textLength="122.5" x="347.5" y="478.6558">[(maxNumberOfConnections &lt; path.size()-1)]</text><line style="stroke:#181818;stroke-width:0.5;" x1="365.25" x2="386.25" y1="493.0117" y2="493.0117"/><line style="stroke:#181818;stroke-width:0.5;" x1="386.25" x2="386.25" y1="493.0117" y2="499.5117"/><line style="stroke:#181818;stroke-width:0.5;" x1="365.75" x2="386.25" y1="499.5117" y2="499.5117"/><polygon fill="#181818" points="370.75,497.5117,365.75,499.5117,370.75,501.5117,368.75,499.5117" style="stroke:#181818;stroke-width:0.5;"/><text fill="#000000" font-family="sans-serif" font-size="6.5" font-weight="bold" lengthAdjust="spacing" textLength="7" x="368.75" y="490.3804">18</text><text fill="#000000" font-family="sans-serif" font-size="6.5" lengthAdjust="spacing" textLength="121.5" x="377.75" y="490.3804">maxNumberOfConnections = path.size()-1</text><polygon fill="#181818" points="251.75,520.1572,246.75,522.1572,251.75,524.1572,249.75,522.1572" style="stroke:#181818;stroke-width:0.5;"/><line style="stroke:#181818;stroke-width:0.5;stroke-dasharray:2.0,2.0;" x1="248.75" x2="362.25" y1="522.1572" y2="522.1572"/><text fill="#000000" font-family="sans-serif" font-size="6.5" font-weight="bold" lengthAdjust="spacing" textLength="7" x="254.75" y="519.5259">19</text><text fill="#000000" font-family="sans-serif" font-size="6.5" lengthAdjust="spacing" textLength="16" x="263.75" y="519.5259">result</text><polygon fill="#181818" points="29.25,553.0938,24.25,555.0938,29.25,557.0938,27.25,555.0938" style="stroke:#181818;stroke-width:0.5;"/><line style="stroke:#181818;stroke-width:0.5;stroke-dasharray:2.0,2.0;" x1="26.25" x2="243.25" y1="555.0938" y2="555.0938"/><text fill="#000000" font-family="sans-serif" font-size="6.5" font-weight="bold" lengthAdjust="spacing" textLength="7" x="32.25" y="543.8169">20</text><text fill="#000000" font-family="sans-serif" font-size="6.5" lengthAdjust="spacing" textLength="150.5" x="41.25" y="535.1714">Informs the user if the graph is connected or not and</text><text fill="#000000" font-family="sans-serif" font-size="6.5" lengthAdjust="spacing" textLength="148.5" x="43.25" y="543.8169">shows the minimum number of connections needed</text><text fill="#000000" font-family="sans-serif" font-size="6.5" lengthAdjust="spacing" textLength="192" x="43.25" y="552.4624">so that, in this network, any client/producer can contact any other.</text><!--MD5=[77cf859870aa21070295aaf17e935b0d]
@startuml
autonumber
'hide footbox
actor "System User" as ADM

participant ":VerifyConnectivityUI" as UI
participant ":VerifyConnectivityController" as CTRL
participant "EntityStore" as EST
participant "Algorithms" as ALG
participant ":Organization" as organization
participant ":App" as app

activate ADM

ADM -> UI : requests the verification of connectivity of the graph
activate UI
UI -> CTRL : isConnected()
activate CTRL

CTRL -> app : app = App.getInstance()
activate app
app -> organization : organization = app.getOrganization()
deactivate app
activate organization
organization -> EST : entityStore = organization.getEntityStore()
activate EST
EST -> CTRL : MapGraph = entityStore.getEntitiesGraph()
deactivate EST
deactivate organization
|||
CTRL -> ALG : queue = Algorithms.DepthFirstSearch(mapGraph,mapGraph.vertex(0))
activate ALG
deactivate ALG

alt (queue == null)
   CTRL -> CTRL : return false
end
alt (mapGraph.numVertices() == queue.size())
   CTRL -> CTRL : return true
end
CTRL - -> UI : result
deactivate CTRL
|||



UI -> CTRL : minimumNumberOfConnections()
activate CTRL
CTRL -> CTRL : LinkedList<Entity> path = new LinkedList<>()
CTRL -> CTRL : MapGraph<Entity, Integer> noWeightsMapGraph = IgnoreWeights()
CTRL -> CTRL : maxNumberOfConnections = 0
loop for each entity in noWeightsMapGraph
   CTRL -> CTRL : LinkedList<Entity> queue = new LinkedList<>()
   CTRL -> ALG :  queue = Algorithms.BreadthFirstSearch(noWeightsMapGraph, entity)
   activate ALG
   deactivate ALG
   CTRL -> ALG : Algorithms.shortestPath(noWeightsMapGraph,entity,queue.getLast(),Integer::compareTo,Integer::sum,0,path)
   activate ALG
   deactivate ALG
   alt (maxNumberOfConnections < path.size()-1)
      CTRL -> CTRL : maxNumberOfConnections = path.size()-1
   end
end
CTRL - -> UI : result
deactivate CTRL

UI - -> ADM : Informs the user if the graph is connected or not and \n shows the minimum number of connections needed \n so that, in this network, any client/producer can contact any other.
deactivate UI
deactivate ADM

@enduml

@startuml
autonumber
actor "System User" as ADM

participant ":VerifyConnectivityUI" as UI
participant ":VerifyConnectivityController" as CTRL
participant "EntityStore" as EST
participant "Algorithms" as ALG
participant ":Organization" as organization
participant ":App" as app

activate ADM

ADM -> UI : requests the verification of connectivity of the graph
activate UI
UI -> CTRL : isConnected()
activate CTRL

CTRL -> app : app = App.getInstance()
activate app
app -> organization : organization = app.getOrganization()
deactivate app
activate organization
organization -> EST : entityStore = organization.getEntityStore()
activate EST
EST -> CTRL : MapGraph = entityStore.getEntitiesGraph()
deactivate EST
deactivate organization
|||
CTRL -> ALG : queue = Algorithms.DepthFirstSearch(mapGraph,mapGraph.vertex(0))
activate ALG
deactivate ALG

alt (queue == null)
   CTRL -> CTRL : return false
end
alt (mapGraph.numVertices() == queue.size())
   CTRL -> CTRL : return true
end
CTRL - -> UI : result
deactivate CTRL
|||



UI -> CTRL : minimumNumberOfConnections()
activate CTRL
CTRL -> CTRL : LinkedList<Entity> path = new LinkedList<>()
CTRL -> CTRL : MapGraph<Entity, Integer> noWeightsMapGraph = IgnoreWeights()
CTRL -> CTRL : maxNumberOfConnections = 0
loop for each entity in noWeightsMapGraph
   CTRL -> CTRL : LinkedList<Entity> queue = new LinkedList<>()
   CTRL -> ALG :  queue = Algorithms.BreadthFirstSearch(noWeightsMapGraph, entity)
   activate ALG
   deactivate ALG
   CTRL -> ALG : Algorithms.shortestPath(noWeightsMapGraph,entity,queue.getLast(),Integer::compareTo,Integer::sum,0,path)
   activate ALG
   deactivate ALG
   alt (maxNumberOfConnections < path.size()-1)
      CTRL -> CTRL : maxNumberOfConnections = path.size()-1
   end
end
CTRL - -> UI : result
deactivate CTRL

UI - -> ADM : Informs the user if the graph is connected or not and \n shows the minimum number of connections needed \n so that, in this network, any client/producer can contact any other.
deactivate UI
deactivate ADM

@enduml

PlantUML version 1.2022.12(Sun Oct 23 19:12:26 WEST 2022)
(GPL source distribution)
Java Runtime: OpenJDK Runtime Environment
JVM: OpenJDK 64-Bit Server VM
Default Encoding: Cp1252
Language: pt
Country: PT
--></g></svg>