<?xml version="1.0" encoding="UTF-8" standalone="no"?><svg xmlns="http://www.w3.org/2000/svg" xmlns:xlink="http://www.w3.org/1999/xlink" contentStyleType="text/css" height="1310px" preserveAspectRatio="none" style="width:2049px;height:1310px;background:#FFFFFF;" version="1.1" viewBox="0 0 2049 1310" width="2049px" zoomAndPan="magnify"><defs/><g><rect fill="#FFFFFF" height="1130.2266" style="stroke:#181818;stroke-width:1.0;" width="10" x="42.5" y="90.6406"/><rect fill="#FFFFFF" height="28.5234" style="stroke:#181818;stroke-width:1.0;" width="10" x="276.5" y="111.1641"/><rect fill="#FFFFFF" height="1052.6563" style="stroke:#181818;stroke-width:1.0;" width="10" x="276.5" y="168.2109"/><rect fill="#FFFFFF" height="541.3281" style="stroke:#181818;stroke-width:1.0;" width="10" x="534.5" y="196.7344"/><rect fill="#FFFFFF" height="150.0938" style="stroke:#181818;stroke-width:1.0;" width="10" x="534.5" y="766.5859"/><rect fill="#FFFFFF" height="283.6641" style="stroke:#181818;stroke-width:1.0;" width="10" x="534.5" y="937.2031"/><rect fill="#FFFFFF" height="30" style="stroke:#181818;stroke-width:1.0;" width="10" x="1041.5" y="452.9219"/><rect fill="#FFFFFF" height="30" style="stroke:#181818;stroke-width:1.0;" width="10" x="1041.5" y="708.0625"/><rect fill="#FFFFFF" height="30" style="stroke:#181818;stroke-width:1.0;" width="10" x="1182.5" y="965.7266"/><rect fill="#FFFFFF" height="28.5234" style="stroke:#181818;stroke-width:1.0;" width="10" x="1340.5" y="282.3047"/><rect fill="#FFFFFF" height="57.0469" style="stroke:#181818;stroke-width:1.0;" width="10" x="1766.5" y="253.7813"/><rect fill="#FFFFFF" height="28.5234" style="stroke:#181818;stroke-width:1.0;" width="10" x="2016.5" y="225.2578"/><rect fill="none" height="58.0469" style="stroke:#000000;stroke-width:1.5;" width="414" x="427.5" y="367.3516"/><rect fill="none" height="141.0938" style="stroke:#000000;stroke-width:1.5;" width="619" x="427.5" y="539.4453"/><rect fill="none" height="86.5703" style="stroke:#000000;stroke-width:1.5;" width="835.5" x="427.5" y="823.1094"/><rect fill="none" height="173.6172" style="stroke:#000000;stroke-width:1.5;" width="354" x="417.5" y="1010.7266"/><rect fill="none" height="101.5703" style="stroke:#000000;stroke-width:1.5;" width="270" x="427.5" y="1075.7734"/><line style="stroke:#181818;stroke-width:0.5;stroke-dasharray:5.0,5.0;" x1="47" x2="47" y1="80.6406" y2="1229.8672"/><line style="stroke:#181818;stroke-width:0.5;stroke-dasharray:5.0,5.0;" x1="281.5" x2="281.5" y1="80.6406" y2="1229.8672"/><line style="stroke:#181818;stroke-width:0.5;stroke-dasharray:5.0,5.0;" x1="539.5" x2="539.5" y1="80.6406" y2="1229.8672"/><line style="stroke:#181818;stroke-width:0.5;stroke-dasharray:5.0,5.0;" x1="1046" x2="1046" y1="80.6406" y2="1229.8672"/><line style="stroke:#181818;stroke-width:0.5;stroke-dasharray:5.0,5.0;" x1="1187" x2="1187" y1="80.6406" y2="1229.8672"/><line style="stroke:#181818;stroke-width:0.5;stroke-dasharray:5.0,5.0;" x1="1345" x2="1345" y1="80.6406" y2="1229.8672"/><line style="stroke:#181818;stroke-width:0.5;stroke-dasharray:5.0,5.0;" x1="1771.5" x2="1771.5" y1="80.6406" y2="1229.8672"/><line style="stroke:#181818;stroke-width:0.5;stroke-dasharray:5.0,5.0;" x1="2021" x2="2021" y1="80.6406" y2="1229.8672"/><text fill="#000000" font-family="sans-serif" font-size="14" lengthAdjust="spacing" textLength="79" x="5" y="77.6738">System User</text><ellipse cx="47.5" cy="13.5" fill="#E2E2F0" rx="8" ry="8" style="stroke:#181818;stroke-width:0.5;"/><path d="M47.5,21.5 L47.5,48.5 M34.5,29.5 L60.5,29.5 M47.5,48.5 L34.5,63.5 M47.5,48.5 L60.5,63.5 " fill="none" style="stroke:#181818;stroke-width:0.5;"/><text fill="#000000" font-family="sans-serif" font-size="14" lengthAdjust="spacing" textLength="79" x="5" y="1241.541">System User</text><ellipse cx="47.5" cy="1253.0078" fill="#E2E2F0" rx="8" ry="8" style="stroke:#181818;stroke-width:0.5;"/><path d="M47.5,1261.0078 L47.5,1288.0078 M34.5,1269.0078 L60.5,1269.0078 M47.5,1288.0078 L34.5,1303.0078 M47.5,1288.0078 L60.5,1303.0078 " fill="none" style="stroke:#181818;stroke-width:0.5;"/><rect fill="#E2E2F0" height="29.6406" rx="2.5" ry="2.5" style="stroke:#181818;stroke-width:0.5;" width="154" x="204.5" y="50"/><text fill="#000000" font-family="sans-serif" font-size="14" lengthAdjust="spacing" textLength="140" x="211.5" y="69.6738">:ImportIrrigationDataUi</text><rect fill="#E2E2F0" height="29.6406" rx="2.5" ry="2.5" style="stroke:#181818;stroke-width:0.5;" width="154" x="204.5" y="1228.8672"/><text fill="#000000" font-family="sans-serif" font-size="14" lengthAdjust="spacing" textLength="140" x="211.5" y="1248.541">:ImportIrrigationDataUi</text><rect fill="#E2E2F0" height="29.6406" rx="2.5" ry="2.5" style="stroke:#181818;stroke-width:0.5;" width="204" x="437.5" y="50"/><text fill="#000000" font-family="sans-serif" font-size="14" lengthAdjust="spacing" textLength="190" x="444.5" y="69.6738">:ImportIrrigationDataController</text><rect fill="#E2E2F0" height="29.6406" rx="2.5" ry="2.5" style="stroke:#181818;stroke-width:0.5;" width="204" x="437.5" y="1228.8672"/><text fill="#000000" font-family="sans-serif" font-size="14" lengthAdjust="spacing" textLength="190" x="444.5" y="1248.541">:ImportIrrigationDataController</text><rect fill="#E2E2F0" height="29.6406" rx="2.5" ry="2.5" style="stroke:#181818;stroke-width:0.5;" width="131" x="981" y="50"/><text fill="#000000" font-family="sans-serif" font-size="14" lengthAdjust="spacing" textLength="117" x="988" y="69.6738">IrrigationController</text><rect fill="#E2E2F0" height="29.6406" rx="2.5" ry="2.5" style="stroke:#181818;stroke-width:0.5;" width="131" x="981" y="1228.8672"/><text fill="#000000" font-family="sans-serif" font-size="14" lengthAdjust="spacing" textLength="117" x="988" y="1248.541">IrrigationController</text><rect fill="#E2E2F0" height="29.6406" rx="2.5" ry="2.5" style="stroke:#181818;stroke-width:0.5;" width="131" x="1122" y="50"/><text fill="#000000" font-family="sans-serif" font-size="14" lengthAdjust="spacing" textLength="117" x="1129" y="69.6738">:IrrigationCalendar</text><rect fill="#E2E2F0" height="29.6406" rx="2.5" ry="2.5" style="stroke:#181818;stroke-width:0.5;" width="131" x="1122" y="1228.8672"/><text fill="#000000" font-family="sans-serif" font-size="14" lengthAdjust="spacing" textLength="117" x="1129" y="1248.541">:IrrigationCalendar</text><rect fill="#E2E2F0" height="29.6406" rx="2.5" ry="2.5" style="stroke:#181818;stroke-width:0.5;" width="165" x="1263" y="50"/><text fill="#000000" font-family="sans-serif" font-size="14" lengthAdjust="spacing" textLength="151" x="1270" y="69.6738">IrrigationControllerStore</text><rect fill="#E2E2F0" height="29.6406" rx="2.5" ry="2.5" style="stroke:#181818;stroke-width:0.5;" width="165" x="1263" y="1228.8672"/><text fill="#000000" font-family="sans-serif" font-size="14" lengthAdjust="spacing" textLength="151" x="1270" y="1248.541">IrrigationControllerStore</text><rect fill="#E2E2F0" height="29.6406" rx="2.5" ry="2.5" style="stroke:#181818;stroke-width:0.5;" width="98" x="1722.5" y="50"/><text fill="#000000" font-family="sans-serif" font-size="14" lengthAdjust="spacing" textLength="84" x="1729.5" y="69.6738">:Organization</text><rect fill="#E2E2F0" height="29.6406" rx="2.5" ry="2.5" style="stroke:#181818;stroke-width:0.5;" width="98" x="1722.5" y="1228.8672"/><text fill="#000000" font-family="sans-serif" font-size="14" lengthAdjust="spacing" textLength="84" x="1729.5" y="1248.541">:Organization</text><rect fill="#E2E2F0" height="29.6406" rx="2.5" ry="2.5" style="stroke:#181818;stroke-width:0.5;" width="43" x="2000" y="50"/><text fill="#000000" font-family="sans-serif" font-size="14" lengthAdjust="spacing" textLength="29" x="2007" y="69.6738">:App</text><rect fill="#E2E2F0" height="29.6406" rx="2.5" ry="2.5" style="stroke:#181818;stroke-width:0.5;" width="43" x="2000" y="1228.8672"/><text fill="#000000" font-family="sans-serif" font-size="14" lengthAdjust="spacing" textLength="29" x="2007" y="1248.541">:App</text><rect fill="#FFFFFF" height="1130.2266" style="stroke:#181818;stroke-width:1.0;" width="10" x="42.5" y="90.6406"/><rect fill="#FFFFFF" height="28.5234" style="stroke:#181818;stroke-width:1.0;" width="10" x="276.5" y="111.1641"/><rect fill="#FFFFFF" height="1052.6563" style="stroke:#181818;stroke-width:1.0;" width="10" x="276.5" y="168.2109"/><rect fill="#FFFFFF" height="541.3281" style="stroke:#181818;stroke-width:1.0;" width="10" x="534.5" y="196.7344"/><rect fill="#FFFFFF" height="150.0938" style="stroke:#181818;stroke-width:1.0;" width="10" x="534.5" y="766.5859"/><rect fill="#FFFFFF" height="283.6641" style="stroke:#181818;stroke-width:1.0;" width="10" x="534.5" y="937.2031"/><rect fill="#FFFFFF" height="30" style="stroke:#181818;stroke-width:1.0;" width="10" x="1041.5" y="452.9219"/><rect fill="#FFFFFF" height="30" style="stroke:#181818;stroke-width:1.0;" width="10" x="1041.5" y="708.0625"/><rect fill="#FFFFFF" height="30" style="stroke:#181818;stroke-width:1.0;" width="10" x="1182.5" y="965.7266"/><rect fill="#FFFFFF" height="28.5234" style="stroke:#181818;stroke-width:1.0;" width="10" x="1340.5" y="282.3047"/><rect fill="#FFFFFF" height="57.0469" style="stroke:#181818;stroke-width:1.0;" width="10" x="1766.5" y="253.7813"/><rect fill="#FFFFFF" height="28.5234" style="stroke:#181818;stroke-width:1.0;" width="10" x="2016.5" y="225.2578"/><polygon fill="#181818" points="264.5,107.1641,274.5,111.1641,264.5,115.1641,268.5,111.1641" style="stroke:#181818;stroke-width:1.0;"/><line style="stroke:#181818;stroke-width:1.0;" x1="52.5" x2="270.5" y1="111.1641" y2="111.1641"/><text fill="#000000" font-family="sans-serif" font-size="13" font-weight="bold" lengthAdjust="spacing" textLength="7" x="59.5" y="106.4092">1</text><text fill="#000000" font-family="sans-serif" font-size="13" lengthAdjust="spacing" textLength="118" x="70.5" y="106.4092">import irrigation data</text><polygon fill="#181818" points="63.5,135.6875,53.5,139.6875,63.5,143.6875,59.5,139.6875" style="stroke:#181818;stroke-width:1.0;"/><line style="stroke:#181818;stroke-width:1.0;stroke-dasharray:2.0,2.0;" x1="57.5" x2="280.5" y1="139.6875" y2="139.6875"/><text fill="#000000" font-family="sans-serif" font-size="13" font-weight="bold" lengthAdjust="spacing" textLength="7" x="69.5" y="134.9326">2</text><text fill="#000000" font-family="sans-serif" font-size="13" lengthAdjust="spacing" textLength="189" x="80.5" y="134.9326">requests data (irrigation data file)</text><polygon fill="#181818" points="264.5,164.2109,274.5,168.2109,264.5,172.2109,268.5,168.2109" style="stroke:#181818;stroke-width:1.0;"/><line style="stroke:#181818;stroke-width:1.0;" x1="52.5" x2="270.5" y1="168.2109" y2="168.2109"/><text fill="#000000" font-family="sans-serif" font-size="13" font-weight="bold" lengthAdjust="spacing" textLength="7" x="59.5" y="163.4561">3</text><text fill="#000000" font-family="sans-serif" font-size="13" lengthAdjust="spacing" textLength="125" x="70.5" y="163.4561">inputs requested data</text><polygon fill="#181818" points="522.5,192.7344,532.5,196.7344,522.5,200.7344,526.5,196.7344" style="stroke:#181818;stroke-width:1.0;"/><line style="stroke:#181818;stroke-width:1.0;" x1="286.5" x2="528.5" y1="196.7344" y2="196.7344"/><text fill="#000000" font-family="sans-serif" font-size="13" font-weight="bold" lengthAdjust="spacing" textLength="7" x="293.5" y="191.9795">4</text><text fill="#000000" font-family="sans-serif" font-size="13" lengthAdjust="spacing" textLength="218" x="304.5" y="191.9795">importIrrigaitonController(irrigationFile)</text><polygon fill="#181818" points="2004.5,221.2578,2014.5,225.2578,2004.5,229.2578,2008.5,225.2578" style="stroke:#181818;stroke-width:1.0;"/><line style="stroke:#181818;stroke-width:1.0;" x1="544.5" x2="2010.5" y1="225.2578" y2="225.2578"/><text fill="#000000" font-family="sans-serif" font-size="13" font-weight="bold" lengthAdjust="spacing" textLength="7" x="551.5" y="220.5029">5</text><text fill="#000000" font-family="sans-serif" font-size="13" lengthAdjust="spacing" textLength="139" x="562.5" y="220.5029">app = App.getInstance()</text><polygon fill="#181818" points="1787.5,249.7813,1777.5,253.7813,1787.5,257.7813,1783.5,253.7813" style="stroke:#181818;stroke-width:1.0;"/><line style="stroke:#181818;stroke-width:1.0;" x1="1781.5" x2="2020.5" y1="253.7813" y2="253.7813"/><text fill="#000000" font-family="sans-serif" font-size="13" font-weight="bold" lengthAdjust="spacing" textLength="7" x="1793.5" y="249.0264">6</text><text fill="#000000" font-family="sans-serif" font-size="13" lengthAdjust="spacing" textLength="210" x="1804.5" y="249.0264">organization = app.getOrganization()</text><polygon fill="#181818" points="1361.5,278.3047,1351.5,282.3047,1361.5,286.3047,1357.5,282.3047" style="stroke:#181818;stroke-width:1.0;"/><line style="stroke:#181818;stroke-width:1.0;" x1="1355.5" x2="1765.5" y1="282.3047" y2="282.3047"/><text fill="#000000" font-family="sans-serif" font-size="13" font-weight="bold" lengthAdjust="spacing" textLength="7" x="1367.5" y="277.5498">7</text><text fill="#000000" font-family="sans-serif" font-size="13" lengthAdjust="spacing" textLength="386" x="1378.5" y="277.5498">irrigationControllerStore = organization.getIrrigationControllerStore()</text><polygon fill="#181818" points="555.5,306.8281,545.5,310.8281,555.5,314.8281,551.5,310.8281" style="stroke:#181818;stroke-width:1.0;"/><line style="stroke:#181818;stroke-width:1.0;" x1="549.5" x2="1344.5" y1="310.8281" y2="310.8281"/><text fill="#000000" font-family="sans-serif" font-size="13" font-weight="bold" lengthAdjust="spacing" textLength="7" x="561.5" y="306.0732">8</text><text fill="#000000" font-family="sans-serif" font-size="13" lengthAdjust="spacing" textLength="381" x="572.5" y="306.0732">irrigationCalendar = irrigationControllerStore.getIrrigationCalendar()</text><line style="stroke:#181818;stroke-width:1.0;" x1="544.5" x2="586.5" y1="339.3516" y2="339.3516"/><line style="stroke:#181818;stroke-width:1.0;" x1="586.5" x2="586.5" y1="339.3516" y2="352.3516"/><line style="stroke:#181818;stroke-width:1.0;" x1="545.5" x2="586.5" y1="352.3516" y2="352.3516"/><polygon fill="#181818" points="555.5,348.3516,545.5,352.3516,555.5,356.3516,551.5,352.3516" style="stroke:#181818;stroke-width:1.0;"/><text fill="#000000" font-family="sans-serif" font-size="13" font-weight="bold" lengthAdjust="spacing" textLength="7" x="551.5" y="334.5967">9</text><text fill="#000000" font-family="sans-serif" font-size="13" lengthAdjust="spacing" textLength="301" x="562.5" y="334.5967">ArrayList&lt;Hour&gt; irrigationHours = new ArrayList&lt;&gt;()</text><path d="M427.5,367.3516 L500.5,367.3516 L500.5,373.875 L490.5,383.875 L427.5,383.875 L427.5,367.3516 " fill="#EEEEEE" style="stroke:#000000;stroke-width:1.5;"/><rect fill="none" height="58.0469" style="stroke:#000000;stroke-width:1.5;" width="414" x="427.5" y="367.3516"/><text fill="#000000" font-family="sans-serif" font-size="13" font-weight="bold" lengthAdjust="spacing" textLength="28" x="442.5" y="380.1201">loop</text><text fill="#000000" font-family="sans-serif" font-size="11" font-weight="bold" lengthAdjust="spacing" textLength="215" x="515.5" y="379.3096">[while irrigationFile.firstLine.hasNext()]</text><line style="stroke:#181818;stroke-width:1.0;" x1="544.5" x2="586.5" y1="404.3984" y2="404.3984"/><line style="stroke:#181818;stroke-width:1.0;" x1="586.5" x2="586.5" y1="404.3984" y2="417.3984"/><line style="stroke:#181818;stroke-width:1.0;" x1="545.5" x2="586.5" y1="417.3984" y2="417.3984"/><polygon fill="#181818" points="555.5,413.3984,545.5,417.3984,555.5,421.3984,551.5,417.3984" style="stroke:#181818;stroke-width:1.0;"/><text fill="#000000" font-family="sans-serif" font-size="13" font-weight="bold" lengthAdjust="spacing" textLength="14" x="551.5" y="399.6436">10</text><text fill="#000000" font-family="sans-serif" font-size="13" lengthAdjust="spacing" textLength="260" x="569.5" y="399.6436">irrigationHours.add(new Hour(firstLine.next()))</text><polygon fill="#181818" points="1029.5,448.9219,1039.5,452.9219,1029.5,456.9219,1033.5,452.9219" style="stroke:#181818;stroke-width:1.0;"/><line style="stroke:#181818;stroke-width:1.0;" x1="544.5" x2="1035.5" y1="452.9219" y2="452.9219"/><text fill="#000000" font-family="sans-serif" font-size="13" font-weight="bold" lengthAdjust="spacing" textLength="14" x="551.5" y="448.167">11</text><text fill="#000000" font-family="sans-serif" font-size="13" lengthAdjust="spacing" textLength="192" x="569.5" y="448.167">setIrrigationHours(irrigationHours)</text><line style="stroke:#181818;stroke-width:1.0;" x1="544.5" x2="586.5" y1="511.4453" y2="511.4453"/><line style="stroke:#181818;stroke-width:1.0;" x1="586.5" x2="586.5" y1="511.4453" y2="524.4453"/><line style="stroke:#181818;stroke-width:1.0;" x1="545.5" x2="586.5" y1="524.4453" y2="524.4453"/><polygon fill="#181818" points="555.5,520.4453,545.5,524.4453,555.5,528.4453,551.5,524.4453" style="stroke:#181818;stroke-width:1.0;"/><text fill="#000000" font-family="sans-serif" font-size="13" font-weight="bold" lengthAdjust="spacing" textLength="14" x="551.5" y="506.6904">12</text><text fill="#000000" font-family="sans-serif" font-size="13" lengthAdjust="spacing" textLength="462" x="569.5" y="506.6904">HashMap&lt;Plot, Pair&lt;Integer, String&gt;&gt; irrigationValuesMap = new HashMap&lt;&gt;()</text><path d="M427.5,539.4453 L500.5,539.4453 L500.5,545.9688 L490.5,555.9688 L427.5,555.9688 L427.5,539.4453 " fill="#EEEEEE" style="stroke:#000000;stroke-width:1.5;"/><rect fill="none" height="141.0938" style="stroke:#000000;stroke-width:1.5;" width="619" x="427.5" y="539.4453"/><text fill="#000000" font-family="sans-serif" font-size="13" font-weight="bold" lengthAdjust="spacing" textLength="28" x="442.5" y="552.2139">loop</text><text fill="#000000" font-family="sans-serif" font-size="11" font-weight="bold" lengthAdjust="spacing" textLength="189" x="515.5" y="551.4033">[while irrigationFile.hasNextLine()]</text><line style="stroke:#181818;stroke-width:1.0;" x1="544.5" x2="586.5" y1="576.4922" y2="576.4922"/><line style="stroke:#181818;stroke-width:1.0;" x1="586.5" x2="586.5" y1="576.4922" y2="589.4922"/><line style="stroke:#181818;stroke-width:1.0;" x1="545.5" x2="586.5" y1="589.4922" y2="589.4922"/><polygon fill="#181818" points="555.5,585.4922,545.5,589.4922,555.5,593.4922,551.5,589.4922" style="stroke:#181818;stroke-width:1.0;"/><text fill="#000000" font-family="sans-serif" font-size="13" font-weight="bold" lengthAdjust="spacing" textLength="14" x="551.5" y="571.7373">13</text><text fill="#000000" font-family="sans-serif" font-size="13" lengthAdjust="spacing" textLength="181" x="569.5" y="571.7373">Plot plot = new Plot(plotName);</text><line style="stroke:#181818;stroke-width:1.0;" x1="544.5" x2="586.5" y1="618.0156" y2="618.0156"/><line style="stroke:#181818;stroke-width:1.0;" x1="586.5" x2="586.5" y1="618.0156" y2="631.0156"/><line style="stroke:#181818;stroke-width:1.0;" x1="545.5" x2="586.5" y1="631.0156" y2="631.0156"/><polygon fill="#181818" points="555.5,627.0156,545.5,631.0156,555.5,635.0156,551.5,631.0156" style="stroke:#181818;stroke-width:1.0;"/><text fill="#000000" font-family="sans-serif" font-size="13" font-weight="bold" lengthAdjust="spacing" textLength="14" x="551.5" y="613.2607">14</text><text fill="#000000" font-family="sans-serif" font-size="13" lengthAdjust="spacing" textLength="465" x="569.5" y="613.2607">Pair&lt;Integer, String&gt; irrigationValues = new Pair&lt;&gt;(irrigationTime, irrigationType)</text><line style="stroke:#181818;stroke-width:1.0;" x1="544.5" x2="586.5" y1="659.5391" y2="659.5391"/><line style="stroke:#181818;stroke-width:1.0;" x1="586.5" x2="586.5" y1="659.5391" y2="672.5391"/><line style="stroke:#181818;stroke-width:1.0;" x1="545.5" x2="586.5" y1="672.5391" y2="672.5391"/><polygon fill="#181818" points="555.5,668.5391,545.5,672.5391,555.5,676.5391,551.5,672.5391" style="stroke:#181818;stroke-width:1.0;"/><text fill="#000000" font-family="sans-serif" font-size="13" font-weight="bold" lengthAdjust="spacing" textLength="14" x="551.5" y="654.7842">15</text><text fill="#000000" font-family="sans-serif" font-size="13" lengthAdjust="spacing" textLength="262" x="569.5" y="654.7842">irrigationValuesMap.put(plot, irrigationValues)</text><polygon fill="#181818" points="1029.5,704.0625,1039.5,708.0625,1029.5,712.0625,1033.5,708.0625" style="stroke:#181818;stroke-width:1.0;"/><line style="stroke:#181818;stroke-width:1.0;" x1="544.5" x2="1035.5" y1="708.0625" y2="708.0625"/><text fill="#000000" font-family="sans-serif" font-size="13" font-weight="bold" lengthAdjust="spacing" textLength="14" x="551.5" y="703.3076">16</text><text fill="#000000" font-family="sans-serif" font-size="13" lengthAdjust="spacing" textLength="254" x="569.5" y="703.3076">setIrrigationValuesMap(irrigationValuesMap)</text><polygon fill="#181818" points="522.5,762.5859,532.5,766.5859,522.5,770.5859,526.5,766.5859" style="stroke:#181818;stroke-width:1.0;"/><line style="stroke:#181818;stroke-width:1.0;" x1="286.5" x2="528.5" y1="766.5859" y2="766.5859"/><text fill="#000000" font-family="sans-serif" font-size="13" font-weight="bold" lengthAdjust="spacing" textLength="14" x="293.5" y="761.8311">17</text><text fill="#000000" font-family="sans-serif" font-size="13" lengthAdjust="spacing" textLength="91" x="311.5" y="761.8311">addThirtyDays()</text><line style="stroke:#181818;stroke-width:1.0;" x1="544.5" x2="586.5" y1="795.1094" y2="795.1094"/><line style="stroke:#181818;stroke-width:1.0;" x1="586.5" x2="586.5" y1="795.1094" y2="808.1094"/><line style="stroke:#181818;stroke-width:1.0;" x1="545.5" x2="586.5" y1="808.1094" y2="808.1094"/><polygon fill="#181818" points="555.5,804.1094,545.5,808.1094,555.5,812.1094,551.5,808.1094" style="stroke:#181818;stroke-width:1.0;"/><text fill="#000000" font-family="sans-serif" font-size="13" font-weight="bold" lengthAdjust="spacing" textLength="14" x="551.5" y="790.3545">18</text><text fill="#000000" font-family="sans-serif" font-size="13" lengthAdjust="spacing" textLength="271" x="569.5" y="790.3545">currentDate = Calendar.getInstance().getTime()</text><path d="M427.5,823.1094 L500.5,823.1094 L500.5,829.6328 L490.5,839.6328 L427.5,839.6328 L427.5,823.1094 " fill="#EEEEEE" style="stroke:#000000;stroke-width:1.5;"/><rect fill="none" height="86.5703" style="stroke:#000000;stroke-width:1.5;" width="835.5" x="427.5" y="823.1094"/><text fill="#000000" font-family="sans-serif" font-size="13" font-weight="bold" lengthAdjust="spacing" textLength="28" x="442.5" y="835.8779">loop</text><text fill="#000000" font-family="sans-serif" font-size="11" font-weight="bold" lengthAdjust="spacing" textLength="90" x="515.5" y="835.0674">[for i=0; i&lt;30; i++]</text><line style="stroke:#181818;stroke-width:1.0;" x1="544.5" x2="586.5" y1="860.1563" y2="860.1563"/><line style="stroke:#181818;stroke-width:1.0;" x1="586.5" x2="586.5" y1="860.1563" y2="873.1563"/><line style="stroke:#181818;stroke-width:1.0;" x1="545.5" x2="586.5" y1="873.1563" y2="873.1563"/><polygon fill="#181818" points="555.5,869.1563,545.5,873.1563,555.5,877.1563,551.5,873.1563" style="stroke:#181818;stroke-width:1.0;"/><text fill="#000000" font-family="sans-serif" font-size="13" font-weight="bold" lengthAdjust="spacing" textLength="14" x="551.5" y="855.4014">19</text><text fill="#000000" font-family="sans-serif" font-size="13" lengthAdjust="spacing" textLength="127" x="569.5" y="855.4014">date = currentDate + i</text><polygon fill="#181818" points="1175.5,897.6797,1185.5,901.6797,1175.5,905.6797,1179.5,901.6797" style="stroke:#181818;stroke-width:1.0;"/><line style="stroke:#181818;stroke-width:1.0;" x1="544.5" x2="1181.5" y1="901.6797" y2="901.6797"/><text fill="#000000" font-family="sans-serif" font-size="13" font-weight="bold" lengthAdjust="spacing" textLength="14" x="551.5" y="896.9248">20</text><text fill="#000000" font-family="sans-serif" font-size="13" lengthAdjust="spacing" textLength="77" x="569.5" y="896.9248">addDay(date)</text><polygon fill="#181818" points="522.5,933.2031,532.5,937.2031,522.5,941.2031,526.5,937.2031" style="stroke:#181818;stroke-width:1.0;"/><line style="stroke:#181818;stroke-width:1.0;" x1="286.5" x2="528.5" y1="937.2031" y2="937.2031"/><text fill="#000000" font-family="sans-serif" font-size="13" font-weight="bold" lengthAdjust="spacing" textLength="14" x="293.5" y="932.4482">21</text><text fill="#000000" font-family="sans-serif" font-size="13" lengthAdjust="spacing" textLength="120" x="311.5" y="932.4482">fillIrrigationCalendar()</text><polygon fill="#181818" points="1170.5,961.7266,1180.5,965.7266,1170.5,969.7266,1174.5,965.7266" style="stroke:#181818;stroke-width:1.0;"/><line style="stroke:#181818;stroke-width:1.0;" x1="544.5" x2="1176.5" y1="965.7266" y2="965.7266"/><text fill="#000000" font-family="sans-serif" font-size="13" font-weight="bold" lengthAdjust="spacing" textLength="14" x="551.5" y="960.9717">22</text><text fill="#000000" font-family="sans-serif" font-size="13" lengthAdjust="spacing" textLength="525" x="569.5" y="960.9717">TreeMap&lt;Date, LinkedList&lt;Pair&lt;Plot, Hour&gt;&gt;&gt; daysIrrigationMap = getDaysIrrigationMap()</text><path d="M417.5,1010.7266 L490.5,1010.7266 L490.5,1017.25 L480.5,1027.25 L417.5,1027.25 L417.5,1010.7266 " fill="#EEEEEE" style="stroke:#000000;stroke-width:1.5;"/><rect fill="none" height="173.6172" style="stroke:#000000;stroke-width:1.5;" width="354" x="417.5" y="1010.7266"/><text fill="#000000" font-family="sans-serif" font-size="13" font-weight="bold" lengthAdjust="spacing" textLength="28" x="432.5" y="1023.4951">loop</text><text fill="#000000" font-family="sans-serif" font-size="11" font-weight="bold" lengthAdjust="spacing" textLength="261" x="505.5" y="1022.6846">[foreach Date date : daysIrrigationMap.keySet()]</text><line style="stroke:#181818;stroke-width:1.0;" x1="544.5" x2="586.5" y1="1047.7734" y2="1047.7734"/><line style="stroke:#181818;stroke-width:1.0;" x1="586.5" x2="586.5" y1="1047.7734" y2="1060.7734"/><line style="stroke:#181818;stroke-width:1.0;" x1="545.5" x2="586.5" y1="1060.7734" y2="1060.7734"/><polygon fill="#181818" points="555.5,1056.7734,545.5,1060.7734,555.5,1064.7734,551.5,1060.7734" style="stroke:#181818;stroke-width:1.0;"/><text fill="#000000" font-family="sans-serif" font-size="13" font-weight="bold" lengthAdjust="spacing" textLength="14" x="551.5" y="1043.0186">23</text><text fill="#000000" font-family="sans-serif" font-size="13" lengthAdjust="spacing" textLength="119" x="569.5" y="1043.0186">day = date.getDate()</text><path d="M427.5,1075.7734 L488.5,1075.7734 L488.5,1082.2969 L478.5,1092.2969 L427.5,1092.2969 L427.5,1075.7734 " fill="#EEEEEE" style="stroke:#000000;stroke-width:1.5;"/><rect fill="none" height="101.5703" style="stroke:#000000;stroke-width:1.5;" width="270" x="427.5" y="1075.7734"/><text fill="#000000" font-family="sans-serif" font-size="13" font-weight="bold" lengthAdjust="spacing" textLength="16" x="442.5" y="1088.542">alt</text><text fill="#000000" font-family="sans-serif" font-size="11" font-weight="bold" lengthAdjust="spacing" textLength="72" x="503.5" y="1087.7314">[day % 2 == 0]</text><line style="stroke:#181818;stroke-width:1.0;" x1="544.5" x2="586.5" y1="1112.8203" y2="1112.8203"/><line style="stroke:#181818;stroke-width:1.0;" x1="586.5" x2="586.5" y1="1112.8203" y2="1125.8203"/><line style="stroke:#181818;stroke-width:1.0;" x1="545.5" x2="586.5" y1="1125.8203" y2="1125.8203"/><polygon fill="#181818" points="555.5,1121.8203,545.5,1125.8203,555.5,1129.8203,551.5,1125.8203" style="stroke:#181818;stroke-width:1.0;"/><text fill="#000000" font-family="sans-serif" font-size="13" font-weight="bold" lengthAdjust="spacing" textLength="14" x="551.5" y="1108.0654">24</text><text fill="#000000" font-family="sans-serif" font-size="13" lengthAdjust="spacing" textLength="116" x="569.5" y="1108.0654">addToDay(date, "p")</text><line style="stroke:#000000;stroke-width:1.0;stroke-dasharray:2.0,2.0;" x1="427.5" x2="697.5" y1="1134.8203" y2="1134.8203"/><line style="stroke:#181818;stroke-width:1.0;" x1="544.5" x2="586.5" y1="1156.3438" y2="1156.3438"/><line style="stroke:#181818;stroke-width:1.0;" x1="586.5" x2="586.5" y1="1156.3438" y2="1169.3438"/><line style="stroke:#181818;stroke-width:1.0;" x1="545.5" x2="586.5" y1="1169.3438" y2="1169.3438"/><polygon fill="#181818" points="555.5,1165.3438,545.5,1169.3438,555.5,1173.3438,551.5,1169.3438" style="stroke:#181818;stroke-width:1.0;"/><text fill="#000000" font-family="sans-serif" font-size="13" font-weight="bold" lengthAdjust="spacing" textLength="14" x="551.5" y="1151.5889">25</text><text fill="#000000" font-family="sans-serif" font-size="13" lengthAdjust="spacing" textLength="112" x="569.5" y="1151.5889">addToDay(date, "i")</text><polygon fill="#181818" points="63.5,1207.8672,53.5,1211.8672,63.5,1215.8672,59.5,1211.8672" style="stroke:#181818;stroke-width:1.0;"/><line style="stroke:#181818;stroke-width:1.0;stroke-dasharray:2.0,2.0;" x1="57.5" x2="275.5" y1="1211.8672" y2="1211.8672"/><text fill="#000000" font-family="sans-serif" font-size="13" font-weight="bold" lengthAdjust="spacing" textLength="14" x="69.5" y="1207.1123">26</text><text fill="#000000" font-family="sans-serif" font-size="13" lengthAdjust="spacing" textLength="152" x="87.5" y="1207.1123">informs operation success</text><!--MD5=[68e013a2b7700a7a17b49607c1facbb1]
@startuml
'https://plantuml.com/sequence-diagram

autonumber

actor user as "System User"

participant ":ImportIrrigationDataUi" as ui
participant ":ImportIrrigationDataController" as controller
participant "IrrigationController" as irrigationController
participant ":IrrigationCalendar" as calendar
participant "IrrigationControllerStore" as store
participant ":Organization" as organization
participant ":App" as app




activate user

user -> ui : import irrigation data
activate ui

ui - -> user : requests data (irrigation data file)
deactivate ui
user -> ui : inputs requested data
activate ui

ui -> controller : importIrrigaitonController(irrigationFile)
activate controller
controller -> app : app = App.getInstance()
activate app
app -> organization : organization = app.getOrganization()
deactivate app
activate organization
organization -> store : irrigationControllerStore = organization.getIrrigationControllerStore()
activate store
store -> controller : irrigationCalendar = irrigationControllerStore.getIrrigationCalendar()
deactivate store
deactivate organization
controller -> controller :ArrayList<Hour> irrigationHours = new ArrayList<>()
loop while irrigationFile.firstLine.hasNext()
    controller -> controller : irrigationHours.add(new Hour(firstLine.next()))
    end
controller -> irrigationController : setIrrigationHours(irrigationHours)
activate irrigationController
deactivate irrigationController
controller -> controller : HashMap<Plot, Pair<Integer, String>> irrigationValuesMap = new HashMap<>()
loop while irrigationFile.hasNextLine()
    controller -> controller : Plot plot = new Plot(plotName);
    controller -> controller :  Pair<Integer, String> irrigationValues = new Pair<>(irrigationTime, irrigationType)
    controller -> controller : irrigationValuesMap.put(plot, irrigationValues)
end
controller -> irrigationController : setIrrigationValuesMap(irrigationValuesMap)
activate irrigationController
deactivate irrigationController
deactivate controller
ui -> controller : addThirtyDays()
activate controller
controller -> controller : currentDate = Calendar.getInstance().getTime()
loop for i=0; i<30; i++
 controller -> controller : date = currentDate + i
 controller -> calendar : addDay(date)
end

deactivate controller
ui -> controller : fillIrrigationCalendar()
activate controller
controller -> calendar : TreeMap<Date, LinkedList<Pair<Plot, Hour>>> daysIrrigationMap = getDaysIrrigationMap()
activate calendar
deactivate calendar
loop foreach Date date : daysIrrigationMap.keySet()
controller -> controller : day = date.getDate()
alt day % 2 == 0
controller -> controller : addToDay(date, "p")
else
controller -> controller : addToDay(date, "i")
end
end
ui - -> user : informs operation success






@enduml

@startuml

autonumber

actor user as "System User"

participant ":ImportIrrigationDataUi" as ui
participant ":ImportIrrigationDataController" as controller
participant "IrrigationController" as irrigationController
participant ":IrrigationCalendar" as calendar
participant "IrrigationControllerStore" as store
participant ":Organization" as organization
participant ":App" as app




activate user

user -> ui : import irrigation data
activate ui

ui - -> user : requests data (irrigation data file)
deactivate ui
user -> ui : inputs requested data
activate ui

ui -> controller : importIrrigaitonController(irrigationFile)
activate controller
controller -> app : app = App.getInstance()
activate app
app -> organization : organization = app.getOrganization()
deactivate app
activate organization
organization -> store : irrigationControllerStore = organization.getIrrigationControllerStore()
activate store
store -> controller : irrigationCalendar = irrigationControllerStore.getIrrigationCalendar()
deactivate store
deactivate organization
controller -> controller :ArrayList<Hour> irrigationHours = new ArrayList<>()
loop while irrigationFile.firstLine.hasNext()
    controller -> controller : irrigationHours.add(new Hour(firstLine.next()))
    end
controller -> irrigationController : setIrrigationHours(irrigationHours)
activate irrigationController
deactivate irrigationController
controller -> controller : HashMap<Plot, Pair<Integer, String>> irrigationValuesMap = new HashMap<>()
loop while irrigationFile.hasNextLine()
    controller -> controller : Plot plot = new Plot(plotName);
    controller -> controller :  Pair<Integer, String> irrigationValues = new Pair<>(irrigationTime, irrigationType)
    controller -> controller : irrigationValuesMap.put(plot, irrigationValues)
end
controller -> irrigationController : setIrrigationValuesMap(irrigationValuesMap)
activate irrigationController
deactivate irrigationController
deactivate controller
ui -> controller : addThirtyDays()
activate controller
controller -> controller : currentDate = Calendar.getInstance().getTime()
loop for i=0; i<30; i++
 controller -> controller : date = currentDate + i
 controller -> calendar : addDay(date)
end

deactivate controller
ui -> controller : fillIrrigationCalendar()
activate controller
controller -> calendar : TreeMap<Date, LinkedList<Pair<Plot, Hour>>> daysIrrigationMap = getDaysIrrigationMap()
activate calendar
deactivate calendar
loop foreach Date date : daysIrrigationMap.keySet()
controller -> controller : day = date.getDate()
alt day % 2 == 0
controller -> controller : addToDay(date, "p")
else
controller -> controller : addToDay(date, "i")
end
end
ui - -> user : informs operation success






@enduml

PlantUML version 1.2022.12(Sun Oct 23 19:12:26 WEST 2022)
(GPL source distribution)
Java Runtime: OpenJDK Runtime Environment
JVM: OpenJDK 64-Bit Server VM
Default Encoding: Cp1252
Language: en
Country: GB
--></g></svg>