<?xml version="1.0" encoding="UTF-8" standalone="no"?><svg xmlns="http://www.w3.org/2000/svg" xmlns:xlink="http://www.w3.org/1999/xlink" contentStyleType="text/css" height="408px" preserveAspectRatio="none" style="width:480px;height:408px;background:#FFFFFF;" version="1.1" viewBox="0 0 480 408" width="480px" zoomAndPan="magnify"><defs/><g><rect fill="#FFFFFF" height="229.1875" style="stroke:#181818;stroke-width:1.0;" width="10" x="42.5" y="90.6406"/><rect fill="#FFFFFF" height="28.5234" style="stroke:#181818;stroke-width:1.0;" width="10" x="437.5" y="111.1641"/><rect fill="#FFFFFF" height="28.5234" style="stroke:#181818;stroke-width:1.0;" width="10" x="437.5" y="168.2109"/><rect fill="#FFFFFF" height="28.5234" style="stroke:#181818;stroke-width:1.0;" width="10" x="437.5" y="225.2578"/><rect fill="#FFFFFF" height="37.5234" style="stroke:#181818;stroke-width:1.0;" width="10" x="437.5" y="282.3047"/><line style="stroke:#181818;stroke-width:0.5;stroke-dasharray:5.0,5.0;" x1="47" x2="47" y1="80.6406" y2="328.8281"/><line style="stroke:#181818;stroke-width:0.5;stroke-dasharray:5.0,5.0;" x1="442.5" x2="442.5" y1="80.6406" y2="328.8281"/><text fill="#000000" font-family="sans-serif" font-size="14" lengthAdjust="spacing" textLength="79" x="5" y="77.6738">System User</text><ellipse cx="47.5" cy="13.5" fill="#E2E2F0" rx="8" ry="8" style="stroke:#181818;stroke-width:0.5;"/><path d="M47.5,21.5 L47.5,48.5 M34.5,29.5 L60.5,29.5 M47.5,48.5 L34.5,63.5 M47.5,48.5 L60.5,63.5 " fill="none" style="stroke:#181818;stroke-width:0.5;"/><text fill="#000000" font-family="sans-serif" font-size="14" lengthAdjust="spacing" textLength="79" x="5" y="340.502">System User</text><ellipse cx="47.5" cy="351.9688" fill="#E2E2F0" rx="8" ry="8" style="stroke:#181818;stroke-width:0.5;"/><path d="M47.5,359.9688 L47.5,386.9688 M34.5,367.9688 L60.5,367.9688 M47.5,386.9688 L34.5,401.9688 M47.5,386.9688 L60.5,401.9688 " fill="none" style="stroke:#181818;stroke-width:0.5;"/><rect fill="#E2E2F0" height="29.6406" rx="2.5" ry="2.5" style="stroke:#181818;stroke-width:0.5;" width="64" x="410.5" y="50"/><text fill="#000000" font-family="sans-serif" font-size="14" lengthAdjust="spacing" textLength="50" x="417.5" y="69.6738">:System</text><rect fill="#E2E2F0" height="29.6406" rx="2.5" ry="2.5" style="stroke:#181818;stroke-width:0.5;" width="64" x="410.5" y="327.8281"/><text fill="#000000" font-family="sans-serif" font-size="14" lengthAdjust="spacing" textLength="50" x="417.5" y="347.502">:System</text><rect fill="#FFFFFF" height="229.1875" style="stroke:#181818;stroke-width:1.0;" width="10" x="42.5" y="90.6406"/><rect fill="#FFFFFF" height="28.5234" style="stroke:#181818;stroke-width:1.0;" width="10" x="437.5" y="111.1641"/><rect fill="#FFFFFF" height="28.5234" style="stroke:#181818;stroke-width:1.0;" width="10" x="437.5" y="168.2109"/><rect fill="#FFFFFF" height="28.5234" style="stroke:#181818;stroke-width:1.0;" width="10" x="437.5" y="225.2578"/><rect fill="#FFFFFF" height="37.5234" style="stroke:#181818;stroke-width:1.0;" width="10" x="437.5" y="282.3047"/><polygon fill="#181818" points="425.5,107.1641,435.5,111.1641,425.5,115.1641,429.5,111.1641" style="stroke:#181818;stroke-width:1.0;"/><line style="stroke:#181818;stroke-width:1.0;" x1="52.5" x2="431.5" y1="111.1641" y2="111.1641"/><text fill="#000000" font-family="sans-serif" font-size="13" font-weight="bold" lengthAdjust="spacing" textLength="7" x="59.5" y="106.4092">1</text><text fill="#000000" font-family="sans-serif" font-size="13" lengthAdjust="spacing" textLength="134" x="70.5" y="106.4092">requests to import data</text><polygon fill="#181818" points="63.5,135.6875,53.5,139.6875,63.5,143.6875,59.5,139.6875" style="stroke:#181818;stroke-width:1.0;"/><line style="stroke:#181818;stroke-width:1.0;stroke-dasharray:2.0,2.0;" x1="57.5" x2="441.5" y1="139.6875" y2="139.6875"/><text fill="#000000" font-family="sans-serif" font-size="13" font-weight="bold" lengthAdjust="spacing" textLength="7" x="69.5" y="134.9326">2</text><text fill="#000000" font-family="sans-serif" font-size="13" lengthAdjust="spacing" textLength="188" x="80.5" y="134.9326">requests data (irrigation plan file)</text><polygon fill="#181818" points="425.5,164.2109,435.5,168.2109,425.5,172.2109,429.5,168.2109" style="stroke:#181818;stroke-width:1.0;"/><line style="stroke:#181818;stroke-width:1.0;" x1="52.5" x2="431.5" y1="168.2109" y2="168.2109"/><text fill="#000000" font-family="sans-serif" font-size="13" font-weight="bold" lengthAdjust="spacing" textLength="7" x="59.5" y="163.4561">3</text><text fill="#000000" font-family="sans-serif" font-size="13" lengthAdjust="spacing" textLength="64" x="70.5" y="163.4561">inputs data</text><polygon fill="#181818" points="63.5,192.7344,53.5,196.7344,63.5,200.7344,59.5,196.7344" style="stroke:#181818;stroke-width:1.0;"/><line style="stroke:#181818;stroke-width:1.0;stroke-dasharray:2.0,2.0;" x1="57.5" x2="441.5" y1="196.7344" y2="196.7344"/><text fill="#000000" font-family="sans-serif" font-size="13" font-weight="bold" lengthAdjust="spacing" textLength="7" x="69.5" y="191.9795">4</text><text fill="#000000" font-family="sans-serif" font-size="13" lengthAdjust="spacing" textLength="156" x="80.5" y="191.9795">irrigation calendar imported</text><polygon fill="#181818" points="425.5,221.2578,435.5,225.2578,425.5,229.2578,429.5,225.2578" style="stroke:#181818;stroke-width:1.0;"/><line style="stroke:#181818;stroke-width:1.0;" x1="52.5" x2="431.5" y1="225.2578" y2="225.2578"/><text fill="#000000" font-family="sans-serif" font-size="13" font-weight="bold" lengthAdjust="spacing" textLength="7" x="59.5" y="220.5029">5</text><text fill="#000000" font-family="sans-serif" font-size="13" lengthAdjust="spacing" textLength="249" x="70.5" y="220.5029">requests to check if a plot is being irrigated</text><polygon fill="#181818" points="63.5,249.7813,53.5,253.7813,63.5,257.7813,59.5,253.7813" style="stroke:#181818;stroke-width:1.0;"/><line style="stroke:#181818;stroke-width:1.0;stroke-dasharray:2.0,2.0;" x1="57.5" x2="441.5" y1="253.7813" y2="253.7813"/><text fill="#000000" font-family="sans-serif" font-size="13" font-weight="bold" lengthAdjust="spacing" textLength="7" x="69.5" y="249.0264">6</text><text fill="#000000" font-family="sans-serif" font-size="13" lengthAdjust="spacing" textLength="187" x="80.5" y="249.0264">requests hour and date to check</text><polygon fill="#181818" points="425.5,278.3047,435.5,282.3047,425.5,286.3047,429.5,282.3047" style="stroke:#181818;stroke-width:1.0;"/><line style="stroke:#181818;stroke-width:1.0;" x1="52.5" x2="431.5" y1="282.3047" y2="282.3047"/><text fill="#000000" font-family="sans-serif" font-size="13" font-weight="bold" lengthAdjust="spacing" textLength="7" x="59.5" y="277.5498">7</text><text fill="#000000" font-family="sans-serif" font-size="13" lengthAdjust="spacing" textLength="118" x="70.5" y="277.5498">inputs hour and date</text><polygon fill="#181818" points="63.5,306.8281,53.5,310.8281,63.5,314.8281,59.5,310.8281" style="stroke:#181818;stroke-width:1.0;"/><line style="stroke:#181818;stroke-width:1.0;stroke-dasharray:2.0,2.0;" x1="57.5" x2="436.5" y1="310.8281" y2="310.8281"/><text fill="#000000" font-family="sans-serif" font-size="13" font-weight="bold" lengthAdjust="spacing" textLength="7" x="69.5" y="306.0732">8</text><text fill="#000000" font-family="sans-serif" font-size="13" lengthAdjust="spacing" textLength="350" x="80.5" y="306.0732">returns the plot being irrigated and the remaining minutes left</text><!--MD5=[b031ad68f7c0f79577d8a0d09df922ae]
@startuml
'https://plantuml.com/sequence-diagram

autonumber

actor "System User" as user

activate user

user -> ":System" : requests to import data
activate ":System"
":System" - -> user : requests data (irrigation plan file)
deactivate ":System"

user -> ":System" : inputs data
activate ":System"
":System" - -> user : irrigation calendar imported
deactivate ":System"
user -> ":System" : requests to check if a plot is being irrigated
activate ":System"
":System" - -> user : requests hour and date to check
deactivate ":System"
user -> ":System" : inputs hour and date
activate ":System"
":System" - -> user : returns the plot being irrigated and the remaining minutes left

@enduml

@startuml

autonumber

actor "System User" as user

activate user

user -> ":System" : requests to import data
activate ":System"
":System" - -> user : requests data (irrigation plan file)
deactivate ":System"

user -> ":System" : inputs data
activate ":System"
":System" - -> user : irrigation calendar imported
deactivate ":System"
user -> ":System" : requests to check if a plot is being irrigated
activate ":System"
":System" - -> user : requests hour and date to check
deactivate ":System"
user -> ":System" : inputs hour and date
activate ":System"
":System" - -> user : returns the plot being irrigated and the remaining minutes left

@enduml

PlantUML version 1.2022.12(Sun Oct 23 19:12:26 WEST 2022)
(GPL source distribution)
Java Runtime: OpenJDK Runtime Environment
JVM: OpenJDK 64-Bit Server VM
Default Encoding: Cp1252
Language: en
Country: GB
--></g></svg>